<svg width="462" height="452" viewBox="0 0 462 452" fill="none" xmlns="http://www.w3.org/2000/svg">
<path opacity="0.15" d="M462 318.566L231.009 452L0 318.566L231.009 185.115L462 318.566Z" fill="#1D1D1B"/>
<path opacity="0.15" d="M73.4666 197.103C57.2009 206.488 57.2009 221.696 73.4666 231.081C89.7323 240.466 116.047 240.466 132.294 231.081C148.542 221.696 148.56 206.488 132.294 197.103C116.029 187.718 89.7142 187.754 73.4666 197.103Z" fill="#1D1D1B"/>
<path opacity="0.15" d="M356.309 202.384C340.043 211.769 340.043 226.976 356.309 236.362C372.575 245.747 398.889 245.747 415.137 236.362C431.384 226.976 431.402 211.769 415.137 202.384C398.871 192.999 372.557 192.999 356.309 202.384Z" fill="#1D1D1B"/>
<path d="M20.0068 305.438V282.636L28.9891 277.446V300.248L20.0068 305.438Z" fill="#B2B2B2"/>
<path d="M20.0068 282.636L31.6639 289.381L40.6643 284.191L28.9891 277.446L20.0068 282.636Z" fill="white"/>
<path d="M36.9592 280.61V272.835L45.9415 267.645V275.42L36.9592 280.61Z" fill="#B2B2B2"/>
<path d="M36.9592 272.835L48.6163 279.561L57.6167 274.39L45.9415 267.645L36.9592 272.835Z" fill="white"/>
<path d="M53.9119 270.809V263.034L62.8941 257.844V265.619L53.9119 270.809Z" fill="#B2B2B2"/>
<path d="M53.9119 263.034L65.5689 269.76L74.5512 264.571L62.8941 257.844L53.9119 263.034Z" fill="white"/>
<path d="M70.8643 261.008V253.215L79.8465 248.025V255.819L70.8643 261.008Z" fill="#B2B2B2"/>
<path d="M70.8643 253.215L82.5213 259.96L91.5036 254.77L79.8465 248.025L70.8643 253.215Z" fill="white"/>
<path d="M87.8167 251.189V243.414L96.7989 238.224V245.999L87.8167 251.189Z" fill="#B2B2B2"/>
<path d="M87.8167 243.414L99.4737 250.159L108.456 244.969L96.7989 238.224L87.8167 243.414Z" fill="white"/>
<path d="M104.769 241.389V233.613L113.751 228.423V236.199L104.769 241.389Z" fill="#B2B2B2"/>
<path d="M104.769 233.613L116.426 240.358L125.408 235.168L113.751 228.423L104.769 233.613Z" fill="white"/>
<path d="M121.722 231.588V223.812L130.704 218.622V226.398L121.722 231.588Z" fill="#B2B2B2"/>
<path d="M121.722 223.812L133.379 230.557L142.361 225.367L130.704 218.622L121.722 223.812Z" fill="white"/>
<path d="M138.656 221.786V214.011L147.638 208.821V216.597L138.656 221.786Z" fill="#B2B2B2"/>
<path d="M138.656 214.011L150.331 220.756L159.313 215.548L147.638 208.821L138.656 214.011Z" fill="white"/>
<path d="M155.609 211.986V204.21L164.591 199.02V206.796L155.609 211.986Z" fill="#B2B2B2"/>
<path d="M155.609 204.21L167.284 210.937L176.266 205.747L164.591 199.02L155.609 204.21Z" fill="white"/>
<path d="M172.561 202.185V194.391L181.543 189.219V196.995L172.561 202.185Z" fill="#B2B2B2"/>
<path d="M172.561 194.391L184.236 201.136L193.218 195.946L181.543 189.219L172.561 194.391Z" fill="white"/>
<path d="M189.513 192.384V184.59L198.496 179.4V187.194L189.513 192.384Z" fill="#B2B2B2"/>
<path d="M189.513 184.59L201.171 191.335L210.171 186.145L198.496 179.4L189.513 184.59Z" fill="white"/>
<path d="M206.466 182.565V174.789L215.448 169.599V177.375L206.466 182.565Z" fill="#B2B2B2"/>
<path d="M206.466 174.789L218.123 181.534L227.123 176.344L215.448 169.599L206.466 174.789Z" fill="white"/>
<path d="M435.848 286.288V278.513L426.866 273.323V281.098L435.848 286.288Z" fill="#B2B2B2"/>
<path d="M435.848 278.513L424.191 285.257L415.209 280.068L426.866 273.323L435.848 278.513Z" fill="white"/>
<path d="M418.896 276.487V268.712L409.914 263.522V271.298L418.896 276.487Z" fill="#B2B2B2"/>
<path d="M418.896 268.712L407.239 275.457L398.257 270.267L409.914 263.522L418.896 268.712Z" fill="white"/>
<path d="M401.962 266.686V258.911L392.979 253.721V261.497L401.962 266.686Z" fill="#B2B2B2"/>
<path d="M401.961 258.911L390.286 265.638L381.304 260.448L392.979 253.721L401.961 258.911Z" fill="white"/>
<path d="M385.009 256.885V249.11L376.027 243.92V251.696L385.009 256.885Z" fill="#B2B2B2"/>
<path d="M385.009 249.11L373.334 255.837L364.352 250.647L376.027 243.92L385.009 249.11Z" fill="white"/>
<path d="M368.056 247.085V239.291L359.074 234.119V241.895L368.056 247.085Z" fill="#B2B2B2"/>
<path d="M368.057 239.291L356.381 246.036L347.399 240.846L359.074 234.119L368.057 239.291Z" fill="white"/>
<path d="M351.104 237.265V229.49L342.122 224.3V232.076L351.104 237.265Z" fill="#B2B2B2"/>
<path d="M351.104 229.49L339.429 236.235L330.447 231.045L342.122 224.3L351.104 229.49Z" fill="white"/>
<path d="M334.151 227.465V219.689L325.169 214.499V222.275L334.151 227.465Z" fill="#B2B2B2"/>
<path d="M334.152 219.689L322.494 226.434L313.512 221.244L325.169 214.499L334.152 219.689Z" fill="white"/>
<path d="M317.199 217.664V209.888L308.217 204.698V212.474L317.199 217.664Z" fill="#B2B2B2"/>
<path d="M317.199 209.888L305.542 216.633L296.56 211.443L308.217 204.698L317.199 209.888Z" fill="white"/>
<path d="M300.247 207.863V200.087L291.264 194.897V202.673L300.247 207.863Z" fill="#B2B2B2"/>
<path d="M300.247 200.087L288.59 206.814L279.607 201.624L291.264 194.897L300.247 200.087Z" fill="white"/>
<path d="M283.294 198.062V190.286L274.312 185.096V192.872L283.294 198.062Z" fill="#B2B2B2"/>
<path d="M283.294 190.286L271.637 197.013L262.655 191.823L274.312 185.096L283.294 190.286Z" fill="white"/>
<path d="M266.342 188.261V180.467L257.359 175.277V183.071L266.342 188.261Z" fill="#B2B2B2"/>
<path d="M266.342 180.467L254.685 187.212L245.702 182.022L257.359 175.277L266.342 180.467Z" fill="white"/>
<path d="M249.389 178.442V170.666L240.407 165.477V173.252L249.389 178.442Z" fill="#B2B2B2"/>
<path d="M249.389 170.666L237.732 177.411L228.75 172.221L240.407 165.477L249.389 170.666Z" fill="white"/>
<path d="M436.174 299.362L230.72 418.058L25.266 299.362V282.943L230.72 180.684L436.174 282.943V299.362Z" fill="#3C3C3B"/>
<path d="M436.174 282.943L230.72 401.621L25.266 282.943L230.72 164.247L436.174 282.943Z" fill="#575756"/>
<path d="M40.4112 302.056L28.7361 308.801L19.7538 303.612L31.4289 296.867L40.4112 302.056Z" fill="white"/>
<path d="M28.7361 329.145V308.801L19.7538 303.612V323.955L28.7361 329.145Z" fill="#B2B2B2"/>
<path d="M57.2552 311.821L45.5981 318.566L36.6158 313.377L48.2729 306.632L57.2552 311.821Z" fill="white"/>
<path d="M45.5981 338.91V318.566L36.6158 313.376V333.72L45.5981 338.91Z" fill="#B2B2B2"/>
<path d="M74.1174 321.586L62.4603 328.313L53.478 323.123L65.1351 316.396L74.1174 321.586Z" fill="white"/>
<path d="M62.4603 348.656V328.313L53.478 323.123V343.466L62.4603 348.656Z" fill="#B2B2B2"/>
<path d="M90.9794 331.333L79.3224 338.078L70.3401 332.888L81.9972 326.143L90.9794 331.333Z" fill="white"/>
<path d="M79.3224 358.421V338.078L70.3401 332.888V353.231L79.3224 358.421Z" fill="#B2B2B2"/>
<path d="M107.842 341.098L96.1844 347.842L87.1841 342.653L98.8592 335.908L107.842 341.098Z" fill="white"/>
<path d="M96.1844 368.168V347.842L87.1841 342.653V362.996L96.1844 368.168Z" fill="#B2B2B2"/>
<path d="M124.704 350.862L113.029 357.589L104.046 352.399L115.722 345.672L124.704 350.862Z" fill="white"/>
<path d="M113.029 377.932V357.589L104.046 352.399V372.743L113.029 377.932Z" fill="#B2B2B2"/>
<path d="M141.566 360.609L129.89 367.354L120.908 362.164L132.565 355.419L141.566 360.609Z" fill="white"/>
<path d="M129.89 387.697V367.354L120.908 362.164V382.507L129.89 387.697Z" fill="#B2B2B2"/>
<path d="M158.41 370.374L146.753 377.119L137.771 371.929L149.428 365.184L158.41 370.374Z" fill="white"/>
<path d="M146.753 397.444V377.119L137.771 371.929V392.272L146.753 397.444Z" fill="#B2B2B2"/>
<path d="M175.272 380.139L163.615 386.865L154.633 381.676L166.29 374.949L175.272 380.139Z" fill="white"/>
<path d="M163.615 407.209V386.865L154.633 381.676V402.019L163.615 407.209Z" fill="#B2B2B2"/>
<path d="M192.134 389.885L180.477 396.63L171.477 391.44L183.152 384.695L192.134 389.885Z" fill="white"/>
<path d="M180.477 416.973V396.63L171.477 391.44V411.783L180.477 416.973Z" fill="#B2B2B2"/>
<path d="M208.996 399.65L197.321 406.395L188.339 401.205L200.014 394.46L208.996 399.65Z" fill="white"/>
<path d="M197.321 426.738V406.395L188.339 401.205V421.548L197.321 426.738Z" fill="#B2B2B2"/>
<path d="M225.84 409.415L214.183 416.142L205.201 410.952L216.858 404.225L225.84 409.415Z" fill="white"/>
<path d="M214.183 436.485V416.141L205.201 410.952V431.295L214.183 436.485Z" fill="#B2B2B2"/>
<path d="M421.589 300.321L433.264 307.047L442.246 301.858L430.571 295.131L421.589 300.321Z" fill="white"/>
<path d="M433.264 327.391V307.047L442.246 301.858V322.201L433.264 327.391Z" fill="#B2B2B2"/>
<path d="M404.727 310.067L416.402 316.812L425.384 311.622L413.709 304.877L404.727 310.067Z" fill="white"/>
<path d="M416.402 337.155V316.812L425.384 311.622V331.966L416.402 337.155Z" fill="#B2B2B2"/>
<path d="M387.883 319.832L399.54 326.559L408.522 321.369L396.865 314.642L387.883 319.832Z" fill="white"/>
<path d="M399.54 346.902V326.559L408.522 321.369V341.712L399.54 346.902Z" fill="#B2B2B2"/>
<path d="M371.021 329.579L382.678 336.324L391.66 331.134L380.003 324.407L371.021 329.579Z" fill="white"/>
<path d="M382.678 356.667V336.324L391.66 331.134V351.477L382.678 356.667Z" fill="#B2B2B2"/>
<path d="M354.158 339.344L365.816 346.088L374.798 340.899L363.141 334.154L354.158 339.344Z" fill="white"/>
<path d="M365.815 366.432V346.088L374.798 340.899V361.242L365.815 366.432Z" fill="#B2B2B2"/>
<path d="M337.296 349.108L348.972 355.835L357.954 350.645L346.279 343.918L337.296 349.108Z" fill="white"/>
<path d="M348.972 376.178V355.835L357.954 350.645V370.989L348.972 376.178Z" fill="#B2B2B2"/>
<path d="M320.452 358.873L332.109 365.6L341.092 360.41L329.435 353.683L320.452 358.873Z" fill="white"/>
<path d="M332.109 385.943V365.6L341.092 360.41V380.753L332.109 385.943Z" fill="#B2B2B2"/>
<path d="M303.59 368.62L315.247 375.365L324.23 370.175L312.573 363.43L303.59 368.62Z" fill="white"/>
<path d="M315.247 395.708V375.365L324.23 370.175V390.518L315.247 395.708Z" fill="#B2B2B2"/>
<path d="M286.728 378.384L298.385 385.111L307.367 379.921L295.71 373.195L286.728 378.384Z" fill="white"/>
<path d="M298.385 405.454V385.111L307.368 379.921V400.265L298.385 405.454Z" fill="#B2B2B2"/>
<path d="M269.866 388.149L281.541 394.876L290.523 389.686L278.848 382.959L269.866 388.149Z" fill="white"/>
<path d="M281.541 415.219V394.876L290.523 389.686V410.03L281.541 415.219Z" fill="#B2B2B2"/>
<path d="M253.004 397.896L264.679 404.641L273.661 399.451L261.986 392.706L253.004 397.896Z" fill="white"/>
<path d="M264.679 424.984V404.641L273.661 399.451V419.794L264.679 424.984Z" fill="#B2B2B2"/>
<path d="M236.16 407.661L247.817 414.388L256.799 409.198L245.142 402.471L236.16 407.661Z" fill="white"/>
<path d="M247.817 434.731V414.388L256.799 409.198V429.541L247.817 434.731Z" fill="#B2B2B2"/>
<path d="M320.019 237.573L400.389 283.992L405.413 281.08L325.043 234.662L320.019 237.573Z" fill="white"/>
<path d="M302.904 238.766L390.793 289.543L395.817 286.632L307.928 235.873L302.904 238.766Z" fill="white"/>
<path d="M326.362 263.395L381.196 295.076L386.22 292.183L331.387 260.502L326.362 263.395Z" fill="white"/>
<path d="M331.405 277.41L371.599 300.628L376.623 297.717L336.429 274.498L331.405 277.41Z" fill="white"/>
<path d="M152.41 290.881C152.4 292.936 153.029 294.944 154.21 296.625C155.391 298.306 157.066 299.579 159.001 300.266C160.937 300.953 163.038 301.021 165.014 300.461C166.99 299.901 168.743 298.739 170.031 297.138L201.695 315.42C201.169 316.781 200.949 318.241 201.05 319.697C201.151 321.153 201.572 322.568 202.281 323.844C202.99 325.119 203.972 326.222 205.155 327.075C206.338 327.928 207.695 328.51 209.128 328.78C210.561 329.05 212.037 329.001 213.449 328.636C214.861 328.272 216.176 327.601 217.3 326.671C218.424 325.741 219.33 324.575 219.953 323.256C220.576 321.936 220.902 320.496 220.906 319.036L267.336 311.803C267.821 313.283 268.648 314.627 269.749 315.727C270.849 316.828 272.193 317.654 273.672 318.139C275.151 318.624 276.723 318.754 278.261 318.519C279.8 318.284 281.261 317.69 282.528 316.785C283.794 315.88 284.83 314.69 285.552 313.311C286.274 311.931 286.662 310.402 286.683 308.845C286.705 307.288 286.361 305.748 285.678 304.349C284.995 302.949 283.993 301.731 282.752 300.791L292.475 279.833C293.349 280.095 294.256 280.235 295.168 280.249C296.842 280.246 298.489 279.821 299.955 279.012C301.421 278.203 302.659 277.036 303.555 275.621C304.45 274.205 304.973 272.586 305.076 270.914C305.179 269.242 304.858 267.571 304.143 266.056C303.428 264.541 302.342 263.232 300.987 262.249C299.631 261.266 298.049 260.642 296.387 260.434C294.726 260.226 293.039 260.442 291.483 261.061C289.927 261.68 288.553 262.682 287.487 263.974L255.191 245.439C255.653 244.073 255.812 242.622 255.657 241.188C255.502 239.754 255.036 238.371 254.293 237.135C253.549 235.899 252.545 234.84 251.351 234.032C250.157 233.224 248.801 232.686 247.378 232.456C245.954 232.225 244.498 232.308 243.11 232.698C241.722 233.088 240.436 233.776 239.34 234.714C238.245 235.652 237.367 236.817 236.768 238.129C236.169 239.441 235.863 240.868 235.871 242.311L189.55 249.544C189.061 248.04 188.22 246.675 187.097 245.562C185.975 244.449 184.602 243.621 183.095 243.146C181.588 242.671 179.989 242.563 178.431 242.831C176.874 243.099 175.403 243.735 174.141 244.687C172.879 245.639 171.863 246.879 171.176 248.303C170.49 249.728 170.154 251.296 170.195 252.876C170.237 254.457 170.656 256.005 171.416 257.391C172.176 258.777 173.257 259.962 174.567 260.846L165.024 281.406C164.15 281.143 163.244 281.003 162.332 280.99C159.708 280.995 157.192 282.037 155.334 283.89C153.475 285.743 152.424 288.256 152.41 290.881ZM171.621 294.498C172.44 292.405 172.519 290.094 171.845 287.95C171.171 285.805 169.785 283.956 167.916 282.708L177.459 262.148C178.333 262.41 179.239 262.55 180.152 262.564C182.782 262.564 185.304 261.521 187.168 259.663C189.031 257.806 190.082 255.286 190.092 252.654L236.431 245.421C236.996 247.14 238.022 248.67 239.396 249.845C240.771 251.019 242.442 251.794 244.227 252.083C246.012 252.372 247.842 252.165 249.517 251.485C251.192 250.804 252.649 249.676 253.727 248.224L285.879 266.795C285.06 268.888 284.981 271.199 285.654 273.343C286.328 275.488 287.715 277.337 289.584 278.585L279.969 299.326C278.471 298.781 276.863 298.608 275.283 298.822C273.704 299.037 272.2 299.632 270.902 300.558C269.603 301.483 268.549 302.71 267.831 304.134C267.112 305.557 266.75 307.134 266.775 308.729L220.382 315.962C219.848 314.256 218.859 312.727 217.522 311.54C216.186 310.353 214.551 309.552 212.795 309.223C211.038 308.894 209.225 309.049 207.549 309.673C205.874 310.296 204.4 311.364 203.285 312.762L171.621 294.498Z" fill="white"/>
<path d="M230.485 154.392C230.245 154.392 230.015 154.296 229.846 154.127C229.677 153.957 229.581 153.727 229.581 153.487V148.967C229.581 148.727 229.677 148.497 229.846 148.327C230.015 148.158 230.245 148.062 230.485 148.062C230.725 148.062 230.954 148.158 231.124 148.327C231.293 148.497 231.389 148.727 231.389 148.967V153.487C231.389 153.727 231.293 153.957 231.124 154.127C230.954 154.296 230.725 154.392 230.485 154.392Z" fill="white"/>
<path d="M230.485 266.343C230.245 266.343 230.015 266.248 229.846 266.078C229.677 265.908 229.581 265.678 229.581 265.439V256.108C229.581 255.868 229.677 255.638 229.846 255.469C230.015 255.299 230.245 255.204 230.485 255.204C230.725 255.204 230.954 255.299 231.124 255.469C231.293 255.638 231.389 255.868 231.389 256.108V265.439C231.389 265.678 231.293 265.908 231.124 266.078C230.954 266.248 230.725 266.343 230.485 266.343ZM230.485 247.681C230.245 247.681 230.015 247.586 229.846 247.416C229.677 247.247 229.581 247.017 229.581 246.777V237.446C229.581 237.207 229.677 236.977 229.846 236.807C230.015 236.637 230.245 236.542 230.485 236.542C230.725 236.542 230.954 236.637 231.124 236.807C231.293 236.977 231.389 237.207 231.389 237.446V246.777C231.396 246.9 231.378 247.024 231.336 247.14C231.294 247.256 231.229 247.362 231.144 247.452C231.059 247.542 230.957 247.613 230.844 247.662C230.73 247.711 230.608 247.736 230.485 247.736V247.681ZM230.485 229.02C230.245 229.02 230.015 228.924 229.846 228.755C229.677 228.585 229.581 228.355 229.581 228.116V218.803C229.581 218.563 229.677 218.333 229.846 218.164C230.015 217.994 230.245 217.899 230.485 217.899C230.725 217.899 230.954 217.994 231.124 218.164C231.293 218.333 231.389 218.563 231.389 218.803V228.134C231.384 228.37 231.287 228.596 231.118 228.761C230.949 228.927 230.722 229.02 230.485 229.02ZM230.485 210.358C230.245 210.358 230.015 210.263 229.846 210.093C229.677 209.924 229.581 209.694 229.581 209.454V200.123C229.581 199.883 229.677 199.653 229.846 199.484C230.015 199.314 230.245 199.219 230.485 199.219C230.725 199.219 230.954 199.314 231.124 199.484C231.293 199.653 231.389 199.883 231.389 200.123V209.454C231.391 209.574 231.369 209.694 231.325 209.806C231.281 209.917 231.215 210.019 231.13 210.105C231.046 210.191 230.946 210.259 230.835 210.306C230.724 210.352 230.605 210.376 230.485 210.376V210.358ZM230.485 191.697C230.245 191.697 230.015 191.601 229.846 191.432C229.677 191.262 229.581 191.032 229.581 190.793V181.462C229.581 181.222 229.677 180.992 229.846 180.822C230.015 180.653 230.245 180.558 230.485 180.558C230.725 180.558 230.954 180.653 231.124 180.822C231.293 180.992 231.389 181.222 231.389 181.462V190.793C231.384 191.029 231.287 191.255 231.118 191.42C230.949 191.586 230.722 191.679 230.485 191.679V191.697ZM230.485 173.035C230.245 173.035 230.015 172.94 229.846 172.77C229.677 172.601 229.581 172.371 229.581 172.131V162.746C229.581 162.506 229.677 162.276 229.846 162.107C230.015 161.937 230.245 161.842 230.485 161.842C230.725 161.842 230.954 161.937 231.124 162.107C231.293 162.276 231.389 162.506 231.389 162.746V172.149C231.389 172.389 231.293 172.619 231.124 172.788C230.954 172.958 230.725 173.053 230.485 173.053V173.035Z" fill="white"/>
<path d="M230.485 280.194C230.245 280.194 230.015 280.099 229.846 279.929C229.677 279.76 229.581 279.53 229.581 279.29V274.769C229.581 274.53 229.677 274.3 229.846 274.13C230.015 273.961 230.245 273.865 230.485 273.865C230.725 273.865 230.954 273.961 231.124 274.13C231.293 274.3 231.389 274.53 231.389 274.769V279.29C231.389 279.53 231.293 279.76 231.124 279.929C230.954 280.099 230.725 280.194 230.485 280.194Z" fill="white"/>
<path d="M100.594 39.0228C102.402 40.6684 103.865 42.1331 105.257 43.5255C113.227 51.4096 116.661 55.2974 129.168 59.3842C136.86 64.0172 145.225 67.4273 153.964 69.4925C157.181 70.3059 160.447 70.9099 163.741 71.3008C167.519 72.0241 169.76 64.5197 166.705 62.3859C155.066 57.3589 148.813 52.9466 136.162 49.2758C124.866 37.1603 120.185 33.6341 109.342 24.7012L100.594 39.0228Z" fill="white"/>
<path d="M163.994 68.8958C167.302 72.3315 171.82 75.8035 175.001 76.6895L180.603 77.2682C182.862 77.6298 183.603 77.2682 183.82 76.9969C183.866 76.9172 183.891 76.8268 183.891 76.7347C183.891 76.6427 183.866 76.5522 183.82 76.4725C187.001 77.0873 187.254 75.5684 186.387 75.1886C188.357 75.8396 189.495 74.2845 188.393 73.7058C189.676 73.5793 190.2 72.1507 188.031 71.771L181.543 70.5052C180.571 69.9833 179.646 69.3783 178.778 68.6969C178.198 68.2015 177.736 67.584 177.422 66.8886C179.005 66.2991 180.454 65.4018 181.688 64.2485C181.761 64.1741 181.822 64.0887 181.868 63.9953C182.483 63.0731 182.067 62.0243 180.838 62.6029C178.055 63.6698 176.609 64.5921 174.314 64.6463C171.522 64.1095 168.666 63.9876 165.838 64.2847C163.795 65.2611 162.675 66.5812 163.362 67.9012L163.994 68.8958Z" fill="#FFC9AD"/>
<path opacity="0.15" d="M163.994 68.8956C167.302 72.3314 171.82 75.8033 175.001 76.6894L180.603 77.268C182.863 77.6297 183.604 77.268 183.82 76.9968C176.591 76.5447 175.941 76.6713 169.724 70.4507C167.913 69.0052 165.708 68.1416 163.398 67.9734L163.994 68.8956Z" fill="black"/>
<path opacity="0.15" d="M174.549 66.6895C175.699 67.8195 177.194 68.5324 178.796 68.7148C178.229 68.2121 177.773 67.5961 177.459 66.9065C179.041 66.317 180.491 65.4197 181.724 64.2664C181.797 64.192 181.858 64.1066 181.905 64.0132C181.898 63.9109 181.898 63.8082 181.905 63.7058C181.869 64.1579 175.959 66.9065 174.549 66.6895Z" fill="black"/>
<path opacity="0.1" d="M104.606 32.4587L105.257 43.5255C113.227 51.4096 116.661 55.2974 129.168 59.3842C136.86 64.0172 145.225 67.4273 153.964 69.4925C144.349 65.6228 136.56 61.1925 132.855 55.4602C122.896 53.9231 114.221 41.7714 104.606 32.4587Z" fill="#1D1D1B"/>
<path d="M230.991 107.286C231.17 107.287 231.347 107.241 231.502 107.152C231.658 107.063 231.787 106.935 231.877 106.779L256.239 64.5558C256.373 64.316 256.407 64.0327 256.332 63.7681C256.257 63.5036 256.081 63.2796 255.841 63.1453C255.602 63.011 255.318 62.9775 255.054 63.0521C254.79 63.1267 254.566 63.3033 254.432 63.5431L230.123 105.767C230.034 105.921 229.987 106.097 229.988 106.275C229.988 106.454 230.036 106.629 230.126 106.783C230.216 106.937 230.345 107.065 230.5 107.153C230.655 107.242 230.831 107.287 231.009 107.286H230.991Z" fill="#3C3C3B"/>
<path d="M230.991 107.286C231.169 107.287 231.345 107.242 231.5 107.153C231.655 107.065 231.784 106.937 231.874 106.783C231.964 106.629 232.012 106.454 232.012 106.275C232.012 106.097 231.966 105.921 231.876 105.767L207.514 63.5431C207.448 63.4244 207.358 63.3199 207.252 63.2357C207.145 63.1514 207.022 63.089 206.892 63.0521C206.761 63.0152 206.624 63.0044 206.489 63.0204C206.354 63.0364 206.223 63.0788 206.104 63.1453C205.986 63.2118 205.881 63.301 205.797 63.4079C205.713 63.5148 205.651 63.6372 205.614 63.7681C205.577 63.8991 205.566 64.0361 205.582 64.1712C205.598 64.3064 205.64 64.437 205.707 64.5558L230.069 106.779C230.162 106.94 230.297 107.072 230.459 107.162C230.622 107.251 230.806 107.294 230.991 107.286Z" fill="#3C3C3B"/>
<path d="M255.372 65.0983C255.64 65.0983 255.897 64.9917 256.087 64.8017C256.277 64.6118 256.384 64.3543 256.384 64.0857V22.2419C256.384 21.9733 256.277 21.7158 256.087 21.5258C255.897 21.3359 255.64 21.2292 255.372 21.2292C255.103 21.2292 254.846 21.3359 254.656 21.5258C254.466 21.7158 254.36 21.9733 254.36 22.2419V64.0495C254.355 64.1855 254.377 64.3211 254.426 64.4482C254.475 64.5752 254.548 64.6912 254.643 64.7891C254.737 64.887 254.851 64.9648 254.976 65.018C255.101 65.0711 255.236 65.0984 255.372 65.0983Z" fill="#3C3C3B"/>
<path d="M206.628 65.0983C206.897 65.0983 207.154 64.9917 207.344 64.8017C207.534 64.6118 207.641 64.3543 207.641 64.0857V22.2419C207.641 21.9733 207.534 21.7158 207.344 21.5258C207.154 21.3359 206.897 21.2292 206.628 21.2292C206.36 21.2292 206.103 21.3359 205.913 21.5258C205.723 21.7158 205.616 21.9733 205.616 22.2419V64.0495C205.612 64.1855 205.634 64.3211 205.683 64.4482C205.731 64.5752 205.805 64.6912 205.9 64.7891C205.994 64.887 206.107 64.9648 206.233 65.018C206.358 65.0711 206.492 65.0984 206.628 65.0983Z" fill="#3C3C3B"/>
<path d="M255.371 23.2545C255.64 23.2545 255.897 23.1478 256.087 22.9579C256.277 22.768 256.384 22.5105 256.384 22.2419C256.384 21.9733 256.277 21.7158 256.087 21.5258C255.897 21.3359 255.64 21.2292 255.371 21.2292H206.574C206.306 21.2292 206.049 21.3359 205.859 21.5258C205.669 21.7158 205.562 21.9733 205.562 22.2419C205.562 22.5105 205.669 22.768 205.859 22.9579C206.049 23.1478 206.306 23.2545 206.574 23.2545H255.371Z" fill="#3C3C3B"/>
<path d="M255.371 27.0701C258.036 27.0701 260.197 24.9085 260.197 22.242C260.197 19.5754 258.036 17.4138 255.371 17.4138C252.706 17.4138 250.546 19.5754 250.546 22.242C250.546 24.9085 252.706 27.0701 255.371 27.0701Z" fill="#8C71EF"/>
<path d="M206.628 27.0701C209.294 27.0701 211.454 24.9085 211.454 22.242C211.454 19.5754 209.294 17.4138 206.628 17.4138C203.963 17.4138 201.803 19.5754 201.803 22.242C201.803 24.9085 203.963 27.0701 206.628 27.0701Z" fill="#8C71EF"/>
<path d="M170.446 85.966C170.625 85.9632 170.8 85.9133 170.952 85.8213L207.098 64.9175C207.338 64.7832 207.515 64.5591 207.589 64.2946C207.664 64.0301 207.63 63.7468 207.496 63.507C207.362 63.2672 207.138 63.0906 206.874 63.016C206.609 62.9414 206.326 62.9749 206.086 63.1092L169.886 84.0853C169.726 84.2086 169.607 84.3767 169.544 84.5683C169.48 84.7598 169.475 84.9659 169.53 85.1602C169.584 85.3546 169.695 85.5282 169.849 85.6589C170.003 85.7895 170.192 85.8713 170.392 85.8936L170.446 85.966Z" fill="#3C3C3B"/>
<path d="M194.809 128.208C194.987 128.205 195.162 128.155 195.315 128.063L231.461 107.159C231.579 107.093 231.684 107.003 231.768 106.897C231.852 106.79 231.915 106.667 231.952 106.536C231.988 106.405 231.999 106.268 231.983 106.133C231.967 105.998 231.925 105.867 231.858 105.749C231.792 105.63 231.703 105.525 231.596 105.441C231.489 105.357 231.367 105.295 231.236 105.258C231.105 105.221 230.968 105.21 230.833 105.226C230.698 105.242 230.567 105.284 230.449 105.351L194.303 126.255C194.143 126.378 194.024 126.546 193.96 126.738C193.897 126.929 193.892 127.135 193.946 127.33C194.001 127.524 194.112 127.698 194.265 127.828C194.419 127.959 194.608 128.041 194.809 128.063V128.208Z" fill="#3C3C3B"/>
<path d="M194.809 128.208C194.987 128.209 195.163 128.164 195.318 128.075C195.473 127.987 195.602 127.859 195.692 127.705C195.782 127.551 195.83 127.376 195.83 127.197C195.831 127.019 195.784 126.843 195.695 126.689L171.314 84.4469C171.18 84.2071 170.956 84.0305 170.692 83.9559C170.427 83.8813 170.144 83.9148 169.904 84.0491C169.665 84.1834 169.488 84.4074 169.414 84.672C169.339 84.9365 169.373 85.2198 169.507 85.4596L193.923 127.701C194.013 127.857 194.142 127.985 194.298 128.074C194.453 128.163 194.63 128.209 194.809 128.208Z" fill="#3C3C3B"/>
<path d="M194.809 132.023C197.474 132.023 199.634 129.861 199.634 127.195C199.634 124.528 197.474 122.367 194.809 122.367C192.144 122.367 189.983 124.528 189.983 127.195C189.983 129.861 192.144 132.023 194.809 132.023Z" fill="#8C71EF"/>
<path d="M170.446 89.9985C173.111 89.9985 175.272 87.8369 175.272 85.1704C175.272 82.5039 173.111 80.3423 170.446 80.3423C167.781 80.3423 165.621 82.5039 165.621 85.1704C165.621 87.8369 167.781 89.9985 170.446 89.9985Z" fill="#8C71EF"/>
<path d="M267.191 128.208C267.37 128.209 267.547 128.163 267.702 128.074C267.858 127.985 267.987 127.857 268.077 127.701L292.439 85.4776C292.506 85.3589 292.548 85.2282 292.564 85.0931C292.58 84.958 292.569 84.821 292.532 84.69C292.495 84.559 292.433 84.4366 292.349 84.3298C292.265 84.2229 292.16 84.1337 292.041 84.0672C291.923 84.0007 291.792 83.9582 291.657 83.9422C291.522 83.9262 291.385 83.937 291.254 83.974C291.123 84.0109 291.001 84.0733 290.894 84.1575C290.787 84.2418 290.698 84.3463 290.632 84.465L266.306 126.67C266.216 126.825 266.17 127.001 266.17 127.179C266.17 127.358 266.218 127.533 266.308 127.687C266.398 127.841 266.527 127.969 266.682 128.057C266.837 128.145 267.013 128.191 267.191 128.189V128.208Z" fill="#3C3C3B"/>
<path d="M267.191 128.208C267.392 128.185 267.581 128.103 267.735 127.973C267.888 127.842 267.999 127.668 268.054 127.474C268.108 127.28 268.103 127.074 268.04 126.882C267.976 126.691 267.857 126.522 267.697 126.399L231.551 105.495C231.312 105.361 231.028 105.328 230.764 105.402C230.5 105.477 230.276 105.653 230.142 105.893C230.007 106.133 229.974 106.416 230.048 106.681C230.123 106.945 230.3 107.169 230.539 107.304L266.685 128.208C266.851 128.25 267.025 128.25 267.191 128.208Z" fill="#3C3C3B"/>
<path d="M267.191 132.023C269.856 132.023 272.017 129.861 272.017 127.195C272.017 124.528 269.856 122.367 267.191 122.367C264.526 122.367 262.366 124.528 262.366 127.195C262.366 129.861 264.526 132.023 267.191 132.023Z" fill="#8C71EF"/>
<path d="M291.554 85.9841C291.754 85.9618 291.943 85.88 292.097 85.7494C292.251 85.6187 292.362 85.4451 292.416 85.2507C292.471 85.0564 292.466 84.8503 292.402 84.6588C292.339 84.4672 292.22 84.2991 292.06 84.1758L255.914 63.272C255.795 63.2055 255.665 63.1631 255.529 63.1471C255.394 63.1311 255.258 63.1419 255.127 63.1788C254.862 63.2534 254.638 63.43 254.504 63.6698C254.37 63.9096 254.336 64.1929 254.411 64.4575C254.486 64.722 254.662 64.946 254.902 65.0803L291.048 85.9841C291.214 86.027 291.388 86.027 291.554 85.9841Z" fill="#3C3C3B"/>
<path d="M291.554 89.7815C294.219 89.7815 296.379 87.6199 296.379 84.9534C296.379 82.2869 294.219 80.1252 291.554 80.1252C288.888 80.1252 286.728 82.2869 286.728 84.9534C286.728 87.6199 288.888 89.7815 291.554 89.7815Z" fill="#8C71EF"/>
<path d="M230.991 149.111C231.191 149.089 231.38 149.007 231.534 148.877C231.688 148.746 231.799 148.572 231.853 148.378C231.908 148.184 231.903 147.977 231.839 147.786C231.776 147.594 231.656 147.426 231.497 147.303L195.351 126.399C195.111 126.265 194.828 126.231 194.564 126.306C194.299 126.381 194.075 126.557 193.941 126.797C193.807 127.037 193.773 127.32 193.848 127.585C193.923 127.849 194.099 128.073 194.339 128.207L230.485 149.111C230.651 149.154 230.825 149.154 230.991 149.111Z" fill="white"/>
<path d="M230.991 149.111C231.169 149.109 231.344 149.059 231.497 148.967L267.643 128.063C267.762 127.996 267.866 127.907 267.95 127.8C268.034 127.694 268.097 127.571 268.134 127.44C268.171 127.309 268.181 127.172 268.165 127.037C268.149 126.902 268.107 126.771 268.041 126.653C267.974 126.534 267.885 126.429 267.778 126.345C267.671 126.261 267.549 126.198 267.418 126.161C267.287 126.125 267.15 126.114 267.015 126.13C266.88 126.146 266.749 126.188 266.631 126.255L230.485 147.159C230.325 147.282 230.206 147.45 230.142 147.641C230.079 147.833 230.074 148.039 230.128 148.233C230.183 148.428 230.294 148.601 230.448 148.732C230.601 148.863 230.79 148.944 230.991 148.967V149.111Z" fill="white"/>
<path d="M291.554 44.1582C291.754 44.1359 291.943 44.0541 292.097 43.9234C292.251 43.7928 292.362 43.6191 292.416 43.4248C292.471 43.2305 292.466 43.0244 292.402 42.8328C292.339 42.6413 292.22 42.4731 292.06 42.3499L255.914 21.4461C255.674 21.3118 255.391 21.2783 255.127 21.3529C254.862 21.4275 254.638 21.6041 254.504 21.8439C254.37 22.0837 254.336 22.367 254.411 22.6315C254.486 22.896 254.662 23.1201 254.902 23.2544L291.048 44.1582C291.214 44.2011 291.388 44.2011 291.554 44.1582Z" fill="white"/>
<path d="M291.554 85.9841C291.822 85.9841 292.079 85.8774 292.269 85.6875C292.459 85.4976 292.566 85.24 292.566 84.9714V43.1457C292.566 42.8771 292.459 42.6196 292.269 42.4297C292.079 42.2397 291.822 42.1331 291.554 42.1331C291.285 42.1331 291.028 42.2397 290.838 42.4297C290.648 42.6196 290.542 42.8771 290.542 43.1457V84.9895C290.546 85.2549 290.655 85.5079 290.844 85.6939C291.034 85.8799 291.288 85.9841 291.554 85.9841Z" fill="white"/>
<path d="M170.446 85.966C170.579 85.966 170.711 85.9398 170.834 85.8889C170.957 85.838 171.068 85.7634 171.162 85.6694C171.256 85.5754 171.331 85.4637 171.381 85.3409C171.432 85.218 171.459 85.0863 171.459 84.9533V43.1457C171.459 42.8771 171.352 42.6196 171.162 42.4297C170.972 42.2397 170.715 42.1331 170.446 42.1331C170.178 42.1331 169.921 42.2397 169.731 42.4297C169.541 42.6196 169.434 42.8771 169.434 43.1457V84.9895C169.444 85.2518 169.554 85.5001 169.743 85.6823C169.932 85.8644 170.184 85.9662 170.446 85.966Z" fill="white"/>
<path d="M170.446 44.1583C170.625 44.1556 170.8 44.1057 170.952 44.0137L207.098 23.1098C207.338 22.9756 207.515 22.7515 207.589 22.487C207.664 22.2225 207.63 21.9392 207.496 21.6994C207.362 21.4596 207.138 21.283 206.874 21.2083C206.609 21.1337 206.326 21.1673 206.086 21.3016L169.886 42.2596C169.726 42.3829 169.607 42.551 169.544 42.7426C169.48 42.9341 169.475 43.1402 169.53 43.3345C169.584 43.5289 169.695 43.7025 169.849 43.8332C170.003 43.9638 170.192 44.0456 170.392 44.0679L170.446 44.1583Z" fill="white"/>
<path d="M206.629 135.025C206.829 135.003 207.018 134.921 207.172 134.79C207.326 134.659 207.437 134.486 207.491 134.291C207.546 134.097 207.541 133.891 207.477 133.699C207.414 133.508 207.294 133.34 207.135 133.217L170.989 112.313C170.779 112.241 170.552 112.24 170.343 112.31C170.133 112.379 169.951 112.516 169.826 112.698C169.701 112.881 169.64 113.099 169.65 113.32C169.661 113.541 169.744 113.753 169.886 113.922L206.032 134.826C206.205 134.954 206.414 135.024 206.629 135.025Z" fill="white"/>
<path d="M170.446 114.121C170.715 114.121 170.972 114.014 171.162 113.824C171.352 113.635 171.459 113.377 171.459 113.108V71.3007C171.459 71.0322 171.352 70.7746 171.162 70.5847C170.972 70.3948 170.715 70.2881 170.446 70.2881C170.178 70.2881 169.921 70.3948 169.731 70.5847C169.541 70.7746 169.434 71.0322 169.434 71.3007V113.108C169.434 113.377 169.541 113.635 169.731 113.824C169.921 114.014 170.178 114.121 170.446 114.121Z" fill="white"/>
<path d="M206.628 93.2173C206.829 93.1949 207.018 93.1132 207.172 92.9825C207.325 92.8519 207.437 92.6782 207.491 92.4839C207.545 92.2896 207.541 92.0834 207.477 91.8919C207.413 91.7004 207.294 91.5322 207.135 91.409L170.989 70.5052C170.749 70.3709 170.466 70.3374 170.201 70.412C169.937 70.4866 169.713 70.6632 169.579 70.903C169.445 71.1428 169.411 71.4261 169.486 71.6906C169.56 71.9551 169.737 72.1792 169.976 72.3135L206.122 93.2173C206.288 93.2602 206.463 93.2602 206.628 93.2173Z" fill="white"/>
<path d="M206.629 135.025C206.897 135.025 207.154 134.918 207.344 134.728C207.534 134.538 207.641 134.281 207.641 134.012V92.2226C207.641 91.954 207.534 91.6965 207.344 91.5066C207.154 91.3167 206.897 91.21 206.629 91.21C206.36 91.21 206.103 91.3167 205.913 91.5066C205.723 91.6965 205.616 91.954 205.616 92.2226V134.012C205.616 134.281 205.723 134.538 205.913 134.728C206.103 134.918 206.36 135.025 206.629 135.025Z" fill="white"/>
<path d="M255.372 135.043C255.64 135.043 255.897 134.936 256.087 134.746C256.277 134.556 256.384 134.299 256.384 134.03V92.2226C256.384 91.954 256.277 91.6965 256.087 91.5066C255.897 91.3167 255.64 91.21 255.372 91.21C255.103 91.21 254.846 91.3167 254.656 91.5066C254.466 91.6965 254.36 91.954 254.36 92.2226V134.012C254.357 134.147 254.382 134.28 254.431 134.405C254.481 134.53 254.555 134.644 254.649 134.74C254.744 134.836 254.856 134.912 254.98 134.964C255.104 135.016 255.237 135.043 255.372 135.043Z" fill="white"/>
<path d="M255.371 93.2172C255.55 93.2144 255.725 93.1645 255.878 93.0725L292.024 72.1687C292.263 72.0344 292.44 71.8104 292.514 71.5458C292.589 71.2813 292.555 70.998 292.421 70.7582C292.287 70.5184 292.063 70.3418 291.799 70.2672C291.534 70.1926 291.251 70.2261 291.011 70.3604L254.829 91.3365C254.67 91.4598 254.55 91.628 254.487 91.8195C254.423 92.011 254.418 92.2171 254.473 92.4115C254.527 92.6058 254.638 92.7794 254.792 92.9101C254.946 93.0408 255.135 93.1225 255.335 93.1448L255.371 93.2172Z" fill="white"/>
<path d="M291.554 114.121C291.822 114.121 292.079 114.014 292.269 113.824C292.459 113.635 292.566 113.377 292.566 113.108V71.3007C292.566 71.0322 292.459 70.7746 292.269 70.5847C292.079 70.3948 291.822 70.2881 291.554 70.2881C291.285 70.2881 291.028 70.3948 290.838 70.5847C290.648 70.7746 290.542 71.0322 290.542 71.3007V113.108C290.542 113.377 290.648 113.635 290.838 113.824C291.028 114.014 291.285 114.121 291.554 114.121Z" fill="white"/>
<path d="M255.371 135.043C255.55 135.04 255.725 134.99 255.878 134.898L292.06 113.922C292.299 113.788 292.476 113.564 292.55 113.299C292.625 113.035 292.592 112.751 292.457 112.512C292.323 112.272 292.099 112.095 291.835 112.021C291.57 111.946 291.287 111.98 291.048 112.114L254.829 133.144C254.67 133.267 254.55 133.436 254.487 133.627C254.423 133.819 254.418 134.025 254.473 134.219C254.527 134.413 254.638 134.587 254.792 134.718C254.946 134.848 255.135 134.93 255.335 134.953L255.371 135.043Z" fill="white"/>
<path d="M231.009 50.9936C231.209 50.9713 231.399 50.8896 231.552 50.7589C231.706 50.6282 231.817 50.4546 231.871 50.2603C231.926 50.0659 231.921 49.8598 231.857 49.6683C231.794 49.4768 231.675 49.3086 231.515 49.1854L195.369 28.2815C195.129 28.1472 194.846 28.1137 194.582 28.1883C194.317 28.2629 194.093 28.4396 193.959 28.6794C193.825 28.9191 193.791 29.2025 193.866 29.467C193.941 29.7315 194.117 29.9555 194.357 30.0898L230.503 50.9936C230.669 51.0365 230.843 51.0365 231.009 50.9936Z" fill="white"/>
<path d="M194.809 30.0897C194.987 30.087 195.162 30.0371 195.315 29.9451L231.515 9.04124C231.634 8.97475 231.738 8.88552 231.822 8.77865C231.906 8.67179 231.969 8.54937 232.006 8.4184C232.043 8.28742 232.053 8.15046 232.037 8.01532C232.021 7.88017 231.979 7.74951 231.913 7.63077C231.846 7.51204 231.757 7.40756 231.65 7.32331C231.543 7.23906 231.421 7.17669 231.29 7.13974C231.026 7.06514 230.743 7.09866 230.503 7.23295L194.357 28.1368C194.197 28.26 194.078 28.4282 194.014 28.6197C193.951 28.8112 193.946 29.0174 194 29.2117C194.055 29.406 194.166 29.5796 194.32 29.7103C194.473 29.841 194.662 29.9227 194.863 29.9451L194.809 30.0897Z" fill="white"/>
<path d="M267.191 30.0897C267.391 30.0674 267.581 29.9856 267.734 29.855C267.888 29.7243 267.999 29.5507 268.054 29.3563C268.108 29.162 268.103 28.9559 268.04 28.7644C267.976 28.5728 267.857 28.4047 267.697 28.2814L231.515 7.23295C231.275 7.09866 230.992 7.06514 230.728 7.13974C230.463 7.21435 230.239 7.39098 230.105 7.63077C229.971 7.87057 229.937 8.15388 230.012 8.4184C230.087 8.68291 230.263 8.90695 230.503 9.04124L266.649 29.9451C266.812 30.0435 267 30.0936 267.191 30.0897Z" fill="white"/>
<path d="M231.009 50.9935C231.187 50.9908 231.362 50.9409 231.515 50.8489L267.661 29.945C267.78 29.8786 267.884 29.7893 267.968 29.6825C268.053 29.5756 268.115 29.4532 268.152 29.3222C268.189 29.1912 268.199 29.0543 268.183 28.9191C268.167 28.784 268.125 28.6533 268.059 28.5346C267.992 28.4158 267.903 28.3114 267.796 28.2271C267.689 28.1429 267.567 28.0805 267.436 28.0436C267.305 28.0066 267.168 27.9958 267.033 28.0118C266.898 28.0278 266.768 28.0703 266.649 28.1368L230.503 49.0406C230.343 49.1638 230.224 49.332 230.16 49.5235C230.097 49.715 230.092 49.9212 230.146 50.1155C230.201 50.3098 230.312 50.4834 230.466 50.6141C230.619 50.7448 230.808 50.8265 231.009 50.8489V50.9935Z" fill="white"/>
<path d="M255.371 93.2173C255.55 93.2189 255.726 93.1733 255.881 93.085C256.036 92.9968 256.165 92.8691 256.255 92.7149C256.345 92.5607 256.392 92.3855 256.393 92.2069C256.393 92.0284 256.346 91.8529 256.257 91.6983L231.877 49.4748C231.742 49.235 231.518 49.0583 231.254 48.9837C230.99 48.9091 230.707 48.9427 230.467 49.0769C230.227 49.2112 230.051 49.4353 229.976 49.6998C229.902 49.9643 229.935 50.2476 230.069 50.4874L254.432 92.711C254.526 92.8746 254.663 93.0087 254.829 93.0982C254.996 93.1876 255.183 93.2289 255.371 93.2173Z" fill="white"/>
<path d="M206.629 93.2173C206.808 93.2189 206.984 93.1729 207.14 93.0839C207.295 92.9949 207.425 92.8662 207.514 92.711L231.877 50.4874C232.011 50.2476 232.044 49.9643 231.97 49.6998C231.895 49.4353 231.719 49.2112 231.479 49.0769C231.239 48.9427 230.956 48.9091 230.692 48.9837C230.427 49.0583 230.204 49.235 230.069 49.4748L205.761 91.6983C205.672 91.8529 205.625 92.0284 205.625 92.2069C205.626 92.3855 205.673 92.5607 205.763 92.7149C205.853 92.8691 205.982 92.9968 206.137 93.085C206.293 93.1733 206.468 93.2189 206.647 93.2173H206.629Z" fill="white"/>
<path d="M291.554 72.3316C291.732 72.3332 291.908 72.2876 292.063 72.1993C292.218 72.1111 292.347 71.9834 292.437 71.8292C292.527 71.675 292.574 71.4997 292.575 71.3212C292.575 71.1427 292.528 70.9672 292.439 70.8126L268.077 28.5529C267.943 28.3131 267.719 28.1365 267.454 28.0619C267.19 27.9873 266.907 28.0208 266.667 28.1551C266.427 28.2894 266.251 28.5134 266.176 28.7779C266.102 29.0424 266.135 29.3257 266.269 29.5655L290.632 71.7891C290.72 71.9566 290.852 72.0962 291.015 72.1921C291.178 72.2879 291.365 72.3363 291.554 72.3316Z" fill="white"/>
<path d="M255.371 93.2172C255.64 93.2172 255.897 93.1105 256.087 92.9206C256.277 92.7307 256.384 92.4731 256.384 92.2045C256.384 91.936 256.277 91.6784 256.087 91.4885C255.897 91.2986 255.64 91.1919 255.371 91.1919H206.574C206.306 91.1919 206.049 91.2986 205.859 91.4885C205.669 91.6784 205.562 91.936 205.562 92.2045C205.562 92.4731 205.669 92.7307 205.859 92.9206C206.049 93.1105 206.306 93.2172 206.574 93.2172H255.371Z" fill="white"/>
<path d="M255.371 135.043C255.64 135.043 255.897 134.936 256.087 134.746C256.277 134.556 256.384 134.299 256.384 134.03C256.384 133.762 256.277 133.504 256.087 133.314C255.897 133.124 255.64 133.018 255.371 133.018H206.574C206.306 133.018 206.049 133.124 205.859 133.314C205.669 133.504 205.562 133.762 205.562 134.03C205.562 134.299 205.669 134.556 205.859 134.746C206.049 134.936 206.306 135.043 206.574 135.043H255.371Z" fill="white"/>
<path d="M255.371 65.0983C255.504 65.0983 255.636 65.0721 255.759 65.0212C255.882 64.9703 255.993 64.8957 256.087 64.8017C256.181 64.7077 256.256 64.596 256.307 64.4732C256.357 64.3503 256.384 64.2186 256.384 64.0856C256.384 63.9527 256.357 63.821 256.307 63.6981C256.256 63.5753 256.181 63.4636 256.087 63.3696C255.993 63.2756 255.882 63.201 255.759 63.1501C255.636 63.0992 255.504 63.073 255.371 63.073H206.574C206.441 63.073 206.31 63.0992 206.187 63.1501C206.064 63.201 205.953 63.2756 205.859 63.3696C205.765 63.4636 205.69 63.5753 205.639 63.6981C205.588 63.821 205.562 63.9527 205.562 64.0856C205.562 64.2186 205.588 64.3503 205.639 64.4732C205.69 64.596 205.765 64.7077 205.859 64.8017C205.953 64.8957 206.064 64.9703 206.187 65.0212C206.31 65.0721 206.441 65.0983 206.574 65.0983H255.371Z" fill="#3C3C3B"/>
<path d="M170.446 72.3315C170.625 72.3331 170.802 72.2871 170.957 72.1982C171.113 72.1092 171.242 71.9805 171.332 71.8252L195.694 29.6017C195.828 29.3619 195.862 29.0786 195.787 28.814C195.713 28.5495 195.536 28.3255 195.297 28.1912C195.057 28.0569 194.774 28.0234 194.509 28.098C194.245 28.1726 194.021 28.3492 193.887 28.589L169.561 70.7945C169.471 70.9491 169.425 71.1246 169.425 71.3031C169.425 71.4816 169.473 71.6569 169.563 71.8111C169.653 71.9653 169.782 72.093 169.937 72.1812C170.092 72.2694 170.268 72.3151 170.446 72.3135V72.3315Z" fill="white"/>
<path d="M230.883 54.8091C233.548 54.8091 235.708 52.6475 235.708 49.981C235.708 47.3145 233.548 45.1528 230.883 45.1528C228.218 45.1528 226.057 47.3145 226.057 49.981C226.057 52.6475 228.218 54.8091 230.883 54.8091Z" fill="#8C71EF"/>
<path d="M267.191 33.9053C269.856 33.9053 272.017 31.7437 272.017 29.0772C272.017 26.4107 269.856 24.249 267.191 24.249C264.526 24.249 262.366 26.4107 262.366 29.0772C262.366 31.7437 264.526 33.9053 267.191 33.9053Z" fill="#8C71EF"/>
<path d="M291.554 75.9119C294.219 75.9119 296.379 73.7502 296.379 71.0837C296.379 68.4172 294.219 66.2556 291.554 66.2556C288.888 66.2556 286.728 68.4172 286.728 71.0837C286.728 73.7502 288.888 75.9119 291.554 75.9119Z" fill="#8C71EF"/>
<path d="M255.371 97.0327C258.036 97.0327 260.197 94.8711 260.197 92.2046C260.197 89.5381 258.036 87.3765 255.371 87.3765C252.706 87.3765 250.546 89.5381 250.546 92.2046C250.546 94.8711 252.706 97.0327 255.371 97.0327Z" fill="#8C71EF"/>
<path d="M206.628 97.0327C209.294 97.0327 211.454 94.8711 211.454 92.2046C211.454 89.5381 209.294 87.3765 206.628 87.3765C203.963 87.3765 201.803 89.5381 201.803 92.2046C201.803 94.8711 203.963 97.0327 206.628 97.0327Z" fill="#8C71EF"/>
<path d="M255.371 138.84C258.036 138.84 260.197 136.679 260.197 134.012C260.197 131.346 258.036 129.184 255.371 129.184C252.706 129.184 250.546 131.346 250.546 134.012C250.546 136.679 252.706 138.84 255.371 138.84Z" fill="#8C71EF"/>
<path d="M206.628 138.84C209.294 138.84 211.454 136.679 211.454 134.012C211.454 131.346 209.294 129.184 206.628 129.184C203.963 129.184 201.803 131.346 201.803 134.012C201.803 136.679 203.963 138.84 206.628 138.84Z" fill="#8C71EF"/>
<path d="M230.883 152.927C233.548 152.927 235.708 150.765 235.708 148.099C235.708 145.432 233.548 143.271 230.883 143.271C228.218 143.271 226.057 145.432 226.057 148.099C226.057 150.765 228.218 152.927 230.883 152.927Z" fill="#8C71EF"/>
<path d="M230.991 111.101C233.656 111.101 235.816 108.939 235.816 106.273C235.816 103.606 233.656 101.445 230.991 101.445C228.326 101.445 226.165 103.606 226.165 106.273C226.165 108.939 228.326 111.101 230.991 111.101Z" fill="#8C71EF"/>
<path d="M170.446 117.937C173.111 117.937 175.272 115.775 175.272 113.108C175.272 110.442 173.111 108.28 170.446 108.28C167.781 108.28 165.621 110.442 165.621 113.108C165.621 115.775 167.781 117.937 170.446 117.937Z" fill="#8C71EF"/>
<path d="M170.446 76.1289C173.111 76.1289 175.272 73.9673 175.272 71.3008C175.272 68.6343 173.111 66.4727 170.446 66.4727C167.781 66.4727 165.621 68.6343 165.621 71.3008C165.621 73.9673 167.781 76.1289 170.446 76.1289Z" fill="#8C71EF"/>
<path d="M206.628 68.8777C209.294 68.8777 211.454 66.7161 211.454 64.0496C211.454 61.3831 209.294 59.2214 206.628 59.2214C203.963 59.2214 201.803 61.3831 201.803 64.0496C201.803 66.7161 203.963 68.8777 206.628 68.8777Z" fill="#8C71EF"/>
<path d="M255.371 68.8777C258.036 68.8777 260.197 66.7161 260.197 64.0496C260.197 61.3831 258.036 59.2214 255.371 59.2214C252.706 59.2214 250.546 61.3831 250.546 64.0496C250.546 66.7161 252.706 68.8777 255.371 68.8777Z" fill="#8C71EF"/>
<path d="M291.554 117.937C294.219 117.937 296.379 115.775 296.379 113.108C296.379 110.442 294.219 108.28 291.554 108.28C288.888 108.28 286.728 110.442 286.728 113.108C286.728 115.775 288.888 117.937 291.554 117.937Z" fill="#8C71EF"/>
<path d="M291.554 47.9739C294.219 47.9739 296.379 45.8123 296.379 43.1458C296.379 40.4793 294.219 38.3176 291.554 38.3176C288.888 38.3176 286.728 40.4793 286.728 43.1458C286.728 45.8123 288.888 47.9739 291.554 47.9739Z" fill="#8C71EF"/>
<path d="M231.009 12.9834C233.674 12.9834 235.834 10.8218 235.834 8.15528C235.834 5.48878 233.674 3.32715 231.009 3.32715C228.344 3.32715 226.183 5.48878 226.183 8.15528C226.183 10.8218 228.344 12.9834 231.009 12.9834Z" fill="#8C71EF"/>
<path d="M194.809 33.9053C197.474 33.9053 199.634 31.7437 199.634 29.0772C199.634 26.4107 197.474 24.249 194.809 24.249C192.144 24.249 189.983 26.4107 189.983 29.0772C189.983 31.7437 192.144 33.9053 194.809 33.9053Z" fill="#8C71EF"/>
<path d="M170.446 47.9739C173.111 47.9739 175.272 45.8123 175.272 43.1458C175.272 40.4793 173.111 38.3176 170.446 38.3176C167.781 38.3176 165.621 40.4793 165.621 43.1458C165.621 45.8123 167.781 47.9739 170.446 47.9739Z" fill="#8C71EF"/>
<path d="M87.3287 49.6736L83.8586 173.849C91.1782 160.504 101.823 157.068 115.45 162.583L118.197 96.5264L114.583 76.6352L113.444 52.2956L87.3287 49.6736Z" fill="#9D9D9C"/>
<path d="M82.937 16.6001C80.0837 20.0187 78.1969 24.139 77.4723 28.5334C76.7477 32.9279 77.2118 37.4362 78.8164 41.5907C84.4913 55.8038 92.0458 29.2039 92.0458 29.2039L82.937 16.6001Z" fill="#1D1D1B"/>
<path d="M100.016 190.847C99.3291 192.655 99.6725 194.879 100.016 198.08C100.48 199.308 101.234 200.406 102.212 201.281C103.19 202.156 104.365 202.782 105.637 203.107C109.432 206 110.95 210.919 115.739 212.329C121.161 213.957 124.559 211.823 124.125 208.55C123.366 202.908 116.896 200.394 113.95 193.885L111.185 187.357H101.371L100.016 190.847Z" fill="#1D1D1B"/>
<path d="M92.877 110.975L99.582 146.761C97.594 154.88 100.883 175.277 98.3892 191.968C98.8591 199.201 114.167 199.454 114.402 193.921C113.769 176.742 115.45 161.806 116.95 147.954C121.432 134.338 120.258 104.284 111.528 79.0945L93.9794 88.2083L92.877 110.975Z" fill="#00CFDD"/>
<path d="M76.1596 202.149C74.6053 204.3 74.3523 211.045 75.2198 212.275C79.1597 216.615 84.5454 225.331 95.2989 224.716C99.6545 223.902 100.865 221.787 99.2207 218.477C97.5761 215.168 92.0999 211.678 89.7324 205.385L87.0034 199.87L76.1596 202.149Z" fill="#1D1D1B"/>
<path d="M113.535 85.2247C113.056 90.3168 111.838 95.3119 109.92 100.053C107.083 106.834 102.89 111.933 97.9737 112.584C97.4135 133.126 99.0401 154.175 93.3651 161.806C90.1481 178.315 88.4674 194.264 90.8891 207.013C88.2866 211.262 78.5091 210.774 75.5813 205.874C75.2517 205.314 75.0194 204.703 74.8945 204.065C73.9909 182.059 70.6835 164.898 78.1477 152.873L73.2499 113.741C70.6474 99.9261 72.9246 92.7833 80.0996 86.1107C80.9671 85.3151 81.9008 84.5134 82.9009 83.7057L112.685 82.4941L113.535 85.2247Z" fill="#00CFDD"/>
<path d="M121.722 61.4818C121.679 62.5872 121.402 63.671 120.911 64.6622C120.42 65.6533 119.725 66.5293 118.872 67.2328C118.019 67.9363 117.026 68.4514 115.96 68.7442C114.894 69.037 113.778 69.101 112.685 68.9319C112.685 73.0187 111.42 78.7328 112.685 82.4941C110.643 87.3946 107.914 91.1739 102.51 92.5482C97.1062 93.9225 86.2443 92.7652 80.0995 86.0926C81.1296 78.4978 78.5633 68.7692 75.8885 60.6138C73.8281 54.3029 71.6955 48.9322 71.1172 46.1475C76.0696 40.0722 81.8774 34.7485 88.3588 30.343C94.7024 26.0212 97.5941 20.3974 104.823 23.1099C112.053 25.8223 112.938 40.2344 115.667 45.9124C118.396 51.5904 121.704 55.5687 121.722 61.4818Z" fill="#8C71EF"/>
<path opacity="0.15" d="M86.7504 111.933C82.449 127.882 81.8346 138.822 86.0636 156.634C77.0271 168.768 76.7922 184.138 77.0271 206.326L75.3825 205.801C75.0528 205.242 74.8206 204.63 74.6957 203.993C73.7921 181.986 70.4847 164.826 77.9489 152.8L73.2499 113.741C70.6474 99.926 72.9246 92.7833 80.0996 86.1107C81.1297 78.5159 78.5634 68.7873 75.8886 60.6319L82.449 58.9502L89.5517 70.3424C95.0821 79.6732 109.432 77.8287 110.047 68.2991L112.667 69.0224C112.667 73.0187 111.402 78.7329 112.667 82.4941L113.517 85.2246C113.038 90.3167 111.82 95.3119 109.902 100.053C105.528 111.626 98.2448 116.472 86.7504 111.933Z" fill="#1D1D1B"/>
<path d="M97.4496 179.021C91.4288 178.859 85.4978 177.52 79.9911 175.078C73.539 172.004 69.2557 167.158 68.2437 160.522C72.5631 143.849 71.8583 123.434 71.1173 101.264C70.1775 84.2842 80.6779 76.7798 75.2018 57.0695C74.15 53.3436 72.7836 49.714 71.1173 46.2197C74.1716 41.699 81.6177 35.37 87.383 28.2634C84.5093 37.4495 88.8288 49.7821 96.4195 61.0658C98.5229 66.0171 100.127 71.1661 101.209 76.4363L101.335 76.9968C101.697 78.8051 102.04 80.7038 102.293 82.5844C106.631 112.114 98.9497 146.254 97.4496 179.021Z" fill="white"/>
<path d="M123.89 153.506C122.083 161.534 121.143 169.274 113.535 170.974C109.92 137.43 114.854 116.002 115.125 91.3004C115.125 89.7091 115.125 88.1178 115.125 86.5085C115.125 85.7369 115.125 84.9533 115.125 84.1577C115.125 83.579 115.125 83.0185 115.125 82.4398C115.125 81.8612 115.125 81.4091 115.125 80.8847C115.125 80.3603 115.125 80.1433 115.125 79.7635L115.017 77.9553C114.86 75.6648 114.655 73.326 114.402 70.9391C114.402 70.2519 114.24 69.5829 114.167 68.9138C113.313 62.7597 112.125 56.6567 110.607 50.632C106.921 41.2441 101.57 32.6002 94.811 25.117C100.432 19.9092 108.8 22.0249 112.992 27.7933C111.727 44.0679 119.517 48.3174 121.812 59.4926C122.085 60.6837 122.083 61.9212 121.807 63.1116C121.532 64.3019 120.99 65.4141 120.222 66.3641C119.416 67.2948 118.391 68.0096 117.24 68.4437H117.131L117.005 80.8485C119.535 86.9786 120.366 95.4414 120.764 105.188C121.306 119.672 120.981 136.869 123.89 153.506Z" fill="white"/>
<path opacity="0.1" d="M102.546 82.4941L101.986 80.5593C95.823 79.6732 90.0939 79.8902 85.3949 82.7654C75.9428 89.2933 75.4367 106.508 77.0452 118.931C73.6836 140.468 73.1595 161.842 79.9911 174.988C73.539 171.914 69.2557 167.068 68.2437 160.431C72.5631 143.759 71.8583 123.343 71.1173 101.174C70.1775 84.1939 80.6779 76.6895 75.2018 56.9792L78.4007 52.7839C85.3949 63.4528 88.7565 78.2989 101.209 76.4364L101.335 76.9969L102.546 82.4941Z" fill="#1D1D1B"/>
<path d="M71.0629 46.3102C65.0581 57.0861 61.5209 69.0622 60.7071 81.373C59.0443 90.8303 60.8336 108.045 65.1169 117.141C66.1832 115.821 68.0989 115.242 71.081 115.586C71.7858 102.928 72.6352 90.6676 71.081 84.1035L80.6054 63.2901C87.1659 48.9323 76.4306 39.493 71.0629 46.3102Z" fill="white"/>
<path d="M82.666 125.423C82.3406 125.587 81.9732 125.649 81.612 125.601C81.2507 125.552 80.9126 125.396 80.6418 125.152C79.0514 123.488 77.3706 122.168 75.2199 122.909C74.8389 123.769 74.7748 124.737 75.0392 125.64V125.875C75.9831 128.824 77.2563 131.656 78.8345 134.32C78.9295 134.504 78.9597 134.714 78.9204 134.918C78.8811 135.121 78.7744 135.305 78.6177 135.441C78.401 135.594 78.1421 135.676 77.8767 135.676C77.6113 135.676 77.3524 135.594 77.1357 135.441C77.1357 136.291 76.1236 136.616 75.3284 135.839L74.2259 134.627C74.0994 135.622 72.9247 135.332 72.5632 134.627L70.5752 132.005C69.122 130.57 67.9024 128.917 66.9606 127.105L66.5449 126.291C65.5703 123.315 65.0821 120.2 65.0991 117.069C65.822 114.519 68.0992 114.139 71.0632 115.513L74.6778 117.322C77.967 118.931 79.6478 121.246 83.1721 124.103C83.3889 124.609 83.1359 125.134 82.666 125.423Z" fill="#FFC9AD"/>
<path opacity="0.15" d="M78.6717 135.459C78.455 135.612 78.1962 135.695 77.9307 135.695C77.6653 135.695 77.4064 135.612 77.1898 135.459C77.1898 136.309 76.1777 136.634 75.3825 135.857L74.28 134.645C74.1535 135.64 72.9788 135.35 72.6173 134.645L70.575 132.005C69.1219 130.57 67.9023 128.917 66.9604 127.105C67.8382 127.387 68.7679 127.468 69.6812 127.343C70.5946 127.218 71.4682 126.889 72.2378 126.381C73.774 129.998 76.5211 134.79 78.6717 135.459Z" fill="black"/>
<path opacity="0.15" d="M82.6479 125.423C82.3225 125.587 81.9551 125.649 81.5938 125.601C81.2326 125.552 80.8944 125.396 80.6237 125.152C79.0333 123.488 77.3525 122.168 75.2018 122.909C74.8208 123.77 74.7567 124.737 75.0211 125.64L74.0994 121.879C78.0754 120.975 80.8044 124.682 82.6479 125.423Z" fill="black"/>
<path opacity="0.1" d="M117.203 68.3713C118.296 67.8319 119.301 67.1309 120.185 66.2917C119.38 67.2225 118.355 67.9373 117.203 68.3713Z" fill="#1D1D1B"/>
<path opacity="0.1" d="M120.728 105.17C119.282 99.0942 117.691 93.6693 115.125 91.3185C115.125 89.7092 115.125 88.1179 115.125 86.5266C115.125 85.743 115.125 84.9594 115.125 84.1758C115.125 83.5972 115.125 83.0366 115.125 82.4579C115.125 81.8793 115.125 81.4091 115.125 80.9028C115.125 80.3965 115.125 80.1433 115.125 79.7817C115.125 79.42 115.125 78.6244 115.016 77.9734C114.872 75.5623 114.667 73.2236 114.402 70.9572C114.402 70.2701 114.239 69.601 114.167 68.9319C115.26 69.0214 116.357 68.8218 117.348 68.3533L117.221 80.7581C119.499 86.9606 120.33 95.4234 120.728 105.17Z" fill="#1D1D1B"/>
<path d="M94.1243 25.3159C102.979 36.3291 109.419 49.0823 113.029 62.7475L110.39 37.1782L106.468 38.0824L108.438 35.153L95.9135 24.3032L94.1243 25.3159Z" fill="#DADADA"/>
<path d="M89.1724 21.175C88.2145 24.4661 87.3651 29.0592 86.1542 32.4588C85.4313 36.3285 92.6062 44.068 97.3956 43.7244C100.775 43.0553 100.703 36.4913 101.209 32.4588L89.1724 21.175Z" fill="#FFC9AD"/>
<path d="M87.419 28.2815C82.6658 31.8981 82.2321 39.6195 83.8044 49.2034H87.9974L84.5635 52.82C90.9252 56.4366 96.0579 65.6769 101.046 75.5863C98.6966 54.9718 83.6779 38.4802 87.419 28.2815Z" fill="#DADADA"/>
<path opacity="0.1" d="M89.8589 21.157C89.8589 32.4045 95.1181 48.5345 101.986 45.7859C106.866 43.8329 101.986 35.6052 101.986 27.8838L89.8589 21.157Z" fill="#1D1D1B"/>
<path d="M90.3649 26.4552C93.7446 30.6866 97.4134 34.3213 103.396 33.4352C105.619 33.1097 107.661 29.8186 107.498 16.5639C107.234 12.1261 105.662 7.8661 102.98 4.32175C101.411 2.56156 99.3813 1.27504 97.1204 0.607264C94.8595 -0.0605097 92.4571 -0.0829661 90.1842 0.542427C88.6957 0.799034 87.2733 1.34984 86.0001 2.16266C84.7268 2.97548 83.6281 4.03403 82.7683 5.27646C81.9085 6.51889 81.3048 7.92029 80.9924 9.39881C80.68 10.8773 80.6652 12.4033 80.9489 13.8876C82.4851 22.8386 86.3346 26.1659 90.3649 26.4552Z" fill="#FFC9AD"/>
<path d="M88.0514 25.6233C89.2792 25.1854 90.3023 24.3097 90.925 23.1641C92.0788 20.9254 92.6974 18.4494 92.7323 15.9309C98.9133 15.298 105.383 10.7773 105.383 8.69776C105.094 5.82258 103.341 3.27289 98.1542 1.12103C95.5503 0.00388896 92.6547 -0.238696 89.9013 0.429636C87.148 1.09797 84.6854 2.64121 82.8825 4.82802C76.3401 11.9346 82.25 24.5022 87.7984 26.7807L88.0514 25.6233Z" fill="black"/>
<path d="M108.257 14.4661C107.697 13.0014 106.45 15.1171 104.932 16.6722C104.66 16.9622 104.484 17.3281 104.426 17.721C103.892 17.876 103.434 18.224 103.143 18.6975C102.998 18.4263 102.311 18.6975 102.058 18.6975C99.9617 19.9814 97.2688 20.5058 97.2688 22.3141C97.2688 26.5455 104.498 25.0808 103.359 19.24V19.1134C103.595 18.7362 103.962 18.4594 104.39 18.3359C104.387 18.384 104.387 18.4323 104.39 18.4805C104.805 21.5546 106.775 20.976 108.004 19.0049C108.345 18.3031 108.544 17.5403 108.587 16.761C108.63 15.9817 108.518 15.2016 108.257 14.4661ZM102.655 22.5492C102.215 23.3443 101.492 23.9446 100.63 24.2309C100.242 24.3818 99.8211 24.4327 99.4074 24.379C98.9938 24.3253 98.6003 24.1687 98.2628 23.9235C98.0358 23.7164 97.8579 23.4612 97.7422 23.1765C97.6265 22.8917 97.5759 22.5847 97.5941 22.2779C97.5941 21.3919 98.552 20.8855 100.142 20.1622C100.829 19.8548 101.516 19.457 102.203 19.0953C102.89 18.7337 102.998 19.0953 103.07 19.3847C103.294 20.4462 103.14 21.5524 102.636 22.513L102.655 22.5492ZM107.751 18.6071C107.439 19.3163 106.88 19.8882 106.179 20.2165C105.167 20.542 104.697 19.2038 104.661 18.0284C104.666 17.6255 104.821 17.2389 105.094 16.9435C105.51 16.5456 105.908 16.1117 106.305 15.6777C106.703 15.2437 107.209 14.5565 107.607 14.4299C107.715 14.4299 107.86 14.4299 107.968 14.665C108.384 15.9487 108.306 17.3413 107.751 18.5709V18.6071Z" fill="#1D1D1B"/>
<path d="M97.4676 22.4226L87.9793 22.6577L87.7625 22.1875L97.6122 21.6089L97.4676 22.4226Z" fill="#1D1D1B"/>
<path d="M89.4613 23.9416C89.0648 23.265 88.5647 22.6549 87.9793 22.1333C87.3826 21.6057 86.6063 21.3274 85.8105 21.3557C85.6025 21.3674 85.3993 21.4229 85.2141 21.5185C85.014 21.6464 84.8493 21.823 84.7356 22.0316C84.6219 22.2402 84.5627 22.4743 84.5635 22.7119C84.5689 23.1885 84.68 23.6579 84.8888 24.0862C85.23 24.9278 85.7477 25.6862 86.4069 26.3104C87.0766 26.9372 87.9487 27.3029 88.8649 27.3412C89.2205 27.3708 89.5746 27.2677 89.8589 27.0518C90.0563 26.8576 90.1835 26.6031 90.2203 26.3285C90.2596 25.4678 89.9904 24.6214 89.4613 23.9416Z" fill="#FFC9AD"/>
<path d="M363.538 167.321L411.956 177.031L397.353 106.635L367.316 121.951L363.538 167.321Z" fill="#C6C6C6"/>
<path d="M351.14 127.412L357.339 127.104C358.225 123.596 359.147 120.414 360.014 117.466C363.81 104.808 367.243 96.3997 366.774 86.5445L371.238 77.0148L377.491 63.7239L382.407 41.0118C370.171 37.3952 366.141 45.3155 362.978 54.3208L356.219 81.4451C352.9 96.5436 351.198 111.953 351.14 127.412Z" fill="white"/>
<path opacity="0.15" d="M358.912 118.135L360.014 117.448C363.809 104.79 367.243 96.3817 366.773 86.5265L371.237 76.9969C370.804 70.9753 369.105 56.5994 369.105 56.5994C367.297 67.7203 365.4 78.0276 361.388 82.3856C364.478 89.4921 360.972 104.501 358.912 118.135Z" fill="black"/>
<path d="M374.111 206.253C374.836 208.596 374.955 211.085 374.454 213.487L370.496 216.326H369.249C365.834 223.089 361.333 225.367 356.49 226.325C355.4 226.346 354.317 226.141 353.31 225.724C352.302 225.307 351.391 224.687 350.634 223.902C350.339 223.044 350.23 222.132 350.314 221.228C350.398 220.324 350.674 219.448 351.122 218.658C353.327 215.837 357.195 213.957 359.743 208.098L360.701 204.3L373.117 202.239L374.111 206.253Z" fill="black"/>
<path d="M391.064 121.788L372.792 163.722C377.581 170.847 376.406 190.612 375.575 205.765C373.768 211.479 360.99 213.83 359.201 207.573C360.755 194.481 358.532 178.785 358.532 163.523C358.315 144.139 362.147 123.542 371.183 106.526L391.064 121.788Z" fill="#4B5951"/>
<path d="M395.925 226.958C396.776 227.752 397.783 228.359 398.881 228.742C399.98 229.125 401.145 229.275 402.305 229.183C408.522 228.297 413.366 224.897 415.715 216.85C416.78 216.382 417.726 215.678 418.48 214.792C419.234 213.905 419.778 212.859 420.071 211.733V211.479C419.833 209.889 419.332 208.348 418.589 206.923C417.913 205.673 417.061 204.528 416.058 203.523L415.01 204.029L404.871 208.912C404.728 209.815 404.529 210.709 404.275 211.588C402.178 218.821 397.19 220.105 395.835 222.673C395.302 224.058 395.335 225.597 395.925 226.958Z" fill="black"/>
<path d="M374.924 114.682L384.756 127.647C382.587 144.392 383.563 161.191 389.798 175.531C395.862 186.466 400.41 198.177 403.317 210.34C403.549 210.843 403.919 211.269 404.383 211.57C406.219 212.59 408.305 213.072 410.402 212.96C412.499 212.848 414.522 212.147 416.239 210.937C417.509 209.937 418.376 208.511 418.679 206.922C418.849 205.917 418.849 204.89 418.679 203.885C417.07 189.219 412.317 174.03 402.413 168.551C404.799 153.397 406.462 136.652 405.684 124.519C406.763 119.105 407.098 113.568 406.678 108.063C406.685 107.991 406.685 107.919 406.678 107.846C406.494 105.466 406.168 103.099 405.703 100.758L374.762 104.628L372.43 104.917L372.249 105.694L371.472 108.913L371.255 109.817L374.924 114.682Z" fill="#667A6F"/>
<path opacity="0.15" d="M397.028 126.237C401.492 138.406 399.341 154.536 395.492 168.84C406.552 176.29 412.299 190.123 415.083 203.993C415.534 206.235 415.914 208.55 416.221 210.919L420.053 211.714V211.461C419.815 209.87 419.315 208.33 418.571 206.904C418.74 205.899 418.74 204.872 418.571 203.866C416.962 189.201 412.209 174.012 402.305 168.532C404.691 153.379 406.353 136.634 405.576 124.501C406.655 119.086 406.99 113.55 406.57 108.045C406.576 107.973 406.576 107.9 406.57 107.828C406.385 105.448 406.06 103.081 405.594 100.74C405.124 98.0815 404.636 95.4956 404.022 93.0364L385.786 89.3113C385.467 92.6218 384.265 95.7858 382.307 98.4734C380.349 101.161 377.706 103.274 374.653 104.591C373.829 104.991 372.985 105.348 372.123 105.658H372.015L370.695 108.063L367.894 113.163C370.226 113.517 372.537 114 374.816 114.609C383.018 116.716 390.621 120.696 397.028 126.237Z" fill="black"/>
<path d="M371.274 101.861C383.925 109.6 395.528 112.204 406.082 103.922L410.257 70.7222L412.064 56.7622C404.835 47.7207 394.823 41.5002 382.515 40.9939C376.027 41.8619 372.521 48.1366 369.231 56.5994C366.466 65.9664 368.039 85.3693 371.274 101.861Z" fill="#8C71EF"/>
<path d="M416.366 177.032C415.354 183.668 411.07 188.514 404.6 191.498C399.099 193.936 393.174 195.275 387.16 195.44C386.22 174.934 382.876 153.849 381.557 133.723C380.597 122.168 380.845 110.544 382.298 99.04C382.29 98.9135 382.29 98.7867 382.298 98.6603C382.533 96.852 382.84 95.1703 383.202 93.4524L383.328 92.8918C384.406 87.6265 386.01 82.4831 388.118 77.5394C395.654 66.2557 399.991 53.9232 397.154 44.7371C401.6 46.2741 408.883 52.1872 411.92 56.6899C410.438 59.8182 410.257 66.4004 409.805 70.6498C409.738 71.5945 409.593 72.5319 409.371 73.4527C403.949 93.1811 408.883 101.065 407.944 118.027C407.185 140.323 412.064 160.359 416.366 177.032Z" fill="white"/>
<path d="M355.387 163.975C357.195 172.004 359.707 179.653 367.315 181.353C370.93 147.809 369.773 132.529 369.502 107.864C369.502 106.273 369.502 104.682 369.502 103.072C369.502 102.301 369.502 101.517 369.502 100.721C369.502 100.143 369.502 99.5823 369.502 99.0036C369.502 98.425 369.502 97.9729 369.502 97.4485C369.502 96.9241 369.502 96.7071 369.502 96.3273L369.611 94.5191C369.767 92.2286 369.972 89.8898 370.225 87.5029C370.225 86.8157 370.388 86.1467 370.46 85.4776C371.231 79.2733 372.341 73.1158 373.786 67.0331C377.55 57.6532 382.981 49.0331 389.816 41.5904C384.196 36.3826 375.828 38.4983 371.635 44.2667C363.665 61.7709 365.11 85.8574 365.129 85.8574C365.147 85.8574 364.261 112.005 363.882 121.752C363.267 136.218 358.279 147.339 355.387 163.975Z" fill="white"/>
<path d="M390.485 41.8979C381.635 52.9005 375.195 65.6409 371.581 79.2934L374.219 53.7422L378.141 54.6464L376.189 51.6989L388.714 40.8491L390.485 41.8979Z" fill="#DADADA"/>
<path d="M397.19 44.8274C401.943 48.444 402.377 56.1654 400.805 65.7493H396.612L400.046 69.3659C393.684 72.9825 388.551 82.2228 383.563 92.1322C385.913 71.5358 400.931 55.0261 397.19 44.8274Z" fill="#DADADA"/>
<path d="M397.154 45.3337C395.925 42.2465 395.017 39.041 394.443 35.7678L379.768 42.0607L381.882 51.6446C384.376 61.0658 399.232 52.6572 397.154 45.3337Z" fill="#FFC9AD"/>
<path opacity="0.15" d="M377.997 43.8329C378.629 47.4495 375.846 60.6319 381.394 64.1943C387.937 68.3533 395.853 46.5273 394.299 42.6575L389.473 36.9614L377.997 43.8329Z" fill="black"/>
<path d="M387.106 19.0232C393.883 19.0232 397.769 22.3866 397.949 29.7102C397.751 37.3954 395.401 44.1765 389.419 48.3717C387.826 49.7013 385.937 50.6272 383.911 51.0711C381.885 51.5149 379.782 51.4636 377.78 50.9214C373.894 49.5471 374.021 41.5002 373.442 34.1043C372.503 26.618 379.533 21.0666 387.106 19.0232Z" fill="#FFC9AD"/>
<path d="M373.731 30.1441C375.268 33.8873 382.768 37.8836 389.274 34.9361L390.033 41.0481L392.961 39.511C393.684 41.3193 394.425 43.1276 395.654 42.5128L396.666 41.0481C400.696 35.0084 401.13 23.797 392.527 19.6018C382.461 15.6055 372.52 24.8096 373.731 30.1441Z" fill="black"/>
<path d="M393.991 42.1331C394.675 41.5952 395.236 40.9169 395.636 40.144C395.827 39.7527 395.927 39.3228 395.927 38.8872C395.927 38.4515 395.827 38.0217 395.636 37.6304C395.447 37.2353 395.121 36.9222 394.719 36.7492C394.317 36.5763 393.865 36.5553 393.449 36.6901C393.156 36.7966 392.89 36.967 392.672 37.1891C392.453 37.4112 392.286 37.6794 392.184 37.974C392.005 38.5601 391.914 39.1695 391.913 39.7823L391.822 41.4098C391.751 41.7801 391.829 42.1636 392.039 42.4766C392.163 42.5977 392.319 42.682 392.488 42.7203C392.657 42.7586 392.833 42.7494 392.997 42.6936C393.368 42.5868 393.708 42.3948 393.991 42.1331Z" fill="#FFC9AD"/>
<path opacity="0.15" d="M416.366 177.031C410.456 158.153 403.841 138.732 397.335 127.412C396.377 125.748 382.497 135.332 381.557 133.813C373.153 120.378 377.942 105.984 371.292 101.879C375.177 101.708 378.969 100.637 382.37 98.7506C383.708 98.0273 385.081 97.1955 386.527 96.2371C391.859 92.7109 400.335 71.1923 400.335 71.1923L409.841 70.7583C409.774 71.7029 409.629 72.6404 409.407 73.5611C403.986 93.2896 408.919 101.174 407.98 118.135C407.184 140.323 412.064 160.359 416.366 177.031Z" fill="black"/>
<path opacity="0.15" d="M366.755 145.296L367.298 144.952L366.755 145.278V145.296Z" fill="black"/>
<path d="M325.296 99.1483L356.092 81.3547L387.648 98.859L356.851 116.779L325.296 99.1483Z" fill="white"/>
<path d="M356.454 152.909L325.603 134.681L325.874 99.1484L356.454 116.779V152.909Z" fill="#EDEDED"/>
<path d="M356.851 152.909L387.648 135.115V98.8591L356.851 116.779V152.909Z" fill="#DADADA"/>
<path d="M359.526 81.2282C359.526 81.804 359.355 82.3669 359.036 82.8457C358.716 83.3245 358.262 83.6976 357.73 83.918C357.198 84.1383 356.613 84.196 356.049 84.0836C355.484 83.9713 354.966 83.694 354.559 83.2869C354.152 82.8797 353.875 82.361 353.762 81.7962C353.65 81.2315 353.708 80.6461 353.928 80.1141C354.148 79.5821 354.521 79.1274 355 78.8075C355.478 78.4876 356.041 78.3169 356.616 78.3169C357.388 78.3169 358.128 78.6236 358.674 79.1696C359.219 79.7156 359.526 80.4561 359.526 81.2282Z" fill="#00CFDD"/>
<path d="M372.123 90.4143H371.978L358.044 82.3675C357.994 82.3227 357.961 82.2622 357.951 82.196C357.941 82.1298 357.954 82.0622 357.988 82.0046C358.022 81.947 358.076 81.9031 358.138 81.8802C358.201 81.8573 358.27 81.857 358.333 81.8792L372.304 89.9442C372.36 89.9754 372.404 90.0247 372.43 90.084C372.455 90.1434 372.46 90.2096 372.443 90.2719C372.426 90.3343 372.389 90.3893 372.338 90.4282C372.287 90.4671 372.224 90.4877 372.159 90.4867L372.123 90.4143Z" fill="#3C3C3B"/>
<path d="M375.033 90.1792C375.033 90.755 374.862 91.3179 374.542 91.7966C374.223 92.2754 373.768 92.6486 373.237 92.8689C372.705 93.0893 372.12 93.1469 371.555 93.0346C370.991 92.9222 370.473 92.645 370.066 92.2378C369.659 91.8306 369.382 91.3119 369.269 90.7472C369.157 90.1824 369.215 89.597 369.435 89.065C369.655 88.5331 370.028 88.0784 370.507 87.7585C370.985 87.4386 371.548 87.2678 372.123 87.2678C372.505 87.2678 372.884 87.3431 373.237 87.4894C373.59 87.6357 373.91 87.8502 374.181 88.1205C374.451 88.3909 374.665 88.7118 374.811 89.065C374.958 89.4183 375.033 89.7968 375.033 90.1792Z" fill="#00CFDD"/>
<path d="M341.092 90.4144C341.027 90.4154 340.964 90.3949 340.913 90.356C340.861 90.317 340.824 90.262 340.808 90.1997C340.791 90.1373 340.796 90.0711 340.821 90.0118C340.846 89.9524 340.891 89.9031 340.947 89.8719L354.863 81.825C354.926 81.8028 354.995 81.8031 355.058 81.826C355.121 81.8489 355.174 81.8928 355.208 81.9504C355.242 82.008 355.255 82.0756 355.245 82.1418C355.235 82.208 355.202 82.2685 355.152 82.3133L341.236 90.4144H341.092Z" fill="#3C3C3B"/>
<path d="M344.001 90.1792C344.001 90.755 343.831 91.3179 343.511 91.7966C343.191 92.2754 342.737 92.6486 342.205 92.8689C341.673 93.0893 341.088 93.1469 340.524 93.0346C339.96 92.9222 339.441 92.645 339.034 92.2378C338.627 91.8306 338.35 91.3119 338.238 90.7472C338.126 90.1824 338.183 89.597 338.403 89.065C338.624 88.5331 338.997 88.0784 339.475 87.7585C339.954 87.4386 340.516 87.2678 341.092 87.2678C341.863 87.2678 342.603 87.5746 343.149 88.1205C343.695 88.6665 344.001 89.407 344.001 90.1792Z" fill="#00CFDD"/>
<path d="M390.557 134.681C390.557 135.257 390.387 135.82 390.067 136.299C389.747 136.778 389.293 137.151 388.761 137.371C388.229 137.591 387.644 137.649 387.08 137.537C386.515 137.424 385.997 137.147 385.59 136.74C385.183 136.333 384.906 135.814 384.794 135.249C384.681 134.685 384.739 134.099 384.959 133.567C385.18 133.035 385.552 132.581 386.031 132.261C386.509 131.941 387.072 131.77 387.648 131.77C388.419 131.77 389.159 132.077 389.705 132.623C390.251 133.169 390.557 133.909 390.557 134.681Z" fill="#00CFDD"/>
<path d="M387.648 133.162C387.571 133.162 387.498 133.132 387.443 133.078C387.389 133.023 387.359 132.95 387.359 132.873V117.069C387.359 116.992 387.389 116.918 387.443 116.864C387.498 116.81 387.571 116.779 387.648 116.779C387.725 116.779 387.798 116.81 387.852 116.864C387.907 116.918 387.937 116.992 387.937 117.069V132.873C387.937 132.911 387.93 132.949 387.915 132.984C387.9 133.019 387.879 133.051 387.852 133.078C387.825 133.105 387.794 133.126 387.758 133.14C387.723 133.155 387.686 133.162 387.648 133.162Z" fill="#3C3C3B"/>
<path d="M390.557 117.069C390.557 117.644 390.387 118.207 390.067 118.686C389.747 119.165 389.293 119.538 388.761 119.758C388.229 119.979 387.644 120.036 387.08 119.924C386.515 119.812 385.997 119.534 385.59 119.127C385.183 118.72 384.906 118.201 384.794 117.637C384.681 117.072 384.739 116.486 384.959 115.954C385.18 115.422 385.552 114.968 386.031 114.648C386.509 114.328 387.072 114.157 387.648 114.157C388.419 114.157 389.159 114.464 389.705 115.01C390.251 115.556 390.557 116.296 390.557 117.069Z" fill="#1599B0"/>
<path d="M328.513 134.681C328.513 135.257 328.342 135.82 328.023 136.299C327.703 136.778 327.248 137.151 326.717 137.371C326.185 137.591 325.6 137.649 325.035 137.537C324.471 137.424 323.953 137.147 323.546 136.74C323.139 136.333 322.862 135.814 322.749 135.249C322.637 134.685 322.695 134.099 322.915 133.567C323.135 133.035 323.508 132.581 323.987 132.261C324.465 131.941 325.028 131.77 325.603 131.77C325.985 131.77 326.364 131.845 326.717 131.992C327.07 132.138 327.39 132.352 327.661 132.623C327.931 132.893 328.145 133.214 328.291 133.567C328.438 133.92 328.513 134.299 328.513 134.681Z" fill="#00CFDD"/>
<path d="M325.585 133.162C325.508 133.162 325.435 133.132 325.381 133.078C325.326 133.023 325.296 132.95 325.296 132.873V117.069C325.296 116.992 325.326 116.918 325.381 116.864C325.435 116.81 325.508 116.779 325.585 116.779C325.662 116.779 325.735 116.81 325.79 116.864C325.844 116.918 325.874 116.992 325.874 117.069V132.873C325.874 132.911 325.867 132.949 325.852 132.984C325.838 133.019 325.816 133.051 325.79 133.078C325.763 133.105 325.731 133.126 325.696 133.14C325.661 133.155 325.623 133.162 325.585 133.162Z" fill="#3C3C3B"/>
<path d="M328.513 117.069C328.513 117.644 328.342 118.207 328.023 118.686C327.703 119.165 327.248 119.538 326.717 119.758C326.185 119.979 325.6 120.036 325.035 119.924C324.471 119.812 323.953 119.534 323.546 119.127C323.139 118.72 322.862 118.201 322.749 117.637C322.637 117.072 322.695 116.486 322.915 115.954C323.135 115.422 323.508 114.968 323.987 114.648C324.465 114.328 325.028 114.157 325.603 114.157C325.985 114.157 326.364 114.233 326.717 114.379C327.07 114.525 327.39 114.74 327.661 115.01C327.931 115.28 328.145 115.601 328.291 115.954C328.438 116.308 328.513 116.686 328.513 117.069Z" fill="#00CFDD"/>
<path d="M325.585 115.604C325.508 115.604 325.435 115.573 325.381 115.519C325.326 115.465 325.296 115.391 325.296 115.315V99.1485C325.296 99.0717 325.326 98.9981 325.381 98.9439C325.435 98.8896 325.508 98.8591 325.585 98.8591C325.662 98.8591 325.735 98.8896 325.79 98.9439C325.844 98.9981 325.874 99.0717 325.874 99.1485V115.315C325.874 115.391 325.844 115.465 325.79 115.519C325.735 115.573 325.662 115.604 325.585 115.604Z" fill="#3C3C3B"/>
<path d="M341.092 126.327C341.015 126.327 340.941 126.296 340.887 126.242C340.833 126.188 340.802 126.114 340.802 126.038V108.117C340.802 108.041 340.833 107.967 340.887 107.913C340.941 107.859 341.015 107.828 341.092 107.828C341.168 107.828 341.242 107.859 341.296 107.913C341.35 107.967 341.381 108.041 341.381 108.117V126.038C341.381 126.114 341.35 126.188 341.296 126.242C341.242 126.296 341.168 126.327 341.092 126.327Z" fill="#3C3C3B"/>
<path d="M341.092 144.247H340.947L326.705 136.019C326.656 135.975 326.623 135.914 326.613 135.848C326.603 135.782 326.616 135.714 326.65 135.656C326.684 135.599 326.737 135.555 326.8 135.532C326.863 135.509 326.931 135.509 326.995 135.531L341.236 143.759C341.293 143.79 341.337 143.839 341.362 143.899C341.388 143.958 341.392 144.024 341.376 144.087C341.359 144.149 341.322 144.204 341.27 144.243C341.219 144.282 341.156 144.302 341.092 144.301V144.247Z" fill="#3C3C3B"/>
<path d="M341.092 126.327H340.947L326.959 118.244C326.925 118.225 326.896 118.2 326.872 118.17C326.849 118.139 326.831 118.105 326.821 118.068C326.811 118.031 326.808 117.992 326.813 117.954C326.818 117.916 326.831 117.879 326.85 117.846C326.869 117.813 326.894 117.783 326.925 117.76C326.955 117.736 326.989 117.719 327.026 117.708C327.063 117.698 327.102 117.696 327.14 117.701C327.178 117.706 327.215 117.718 327.248 117.737L341.236 125.821C341.293 125.852 341.337 125.901 341.362 125.96C341.388 126.02 341.392 126.086 341.376 126.148C341.359 126.211 341.322 126.266 341.271 126.305C341.219 126.343 341.156 126.364 341.092 126.363V126.327Z" fill="#3C3C3B"/>
<path d="M341.092 144.247C341.015 144.247 340.941 144.217 340.887 144.162C340.833 144.108 340.802 144.035 340.802 143.958V126.038C340.802 125.961 340.833 125.887 340.887 125.833C340.941 125.779 341.015 125.748 341.092 125.748C341.168 125.748 341.242 125.779 341.296 125.833C341.35 125.887 341.381 125.961 341.381 126.038V143.958C341.381 144.035 341.35 144.108 341.296 144.162C341.242 144.217 341.168 144.247 341.092 144.247Z" fill="#3C3C3B"/>
<path d="M387.648 115.604C387.571 115.604 387.498 115.573 387.443 115.519C387.389 115.465 387.359 115.391 387.359 115.315V99.1485C387.359 99.0717 387.389 98.9981 387.443 98.9439C387.498 98.8896 387.571 98.8591 387.648 98.8591C387.725 98.8591 387.798 98.8896 387.852 98.9439C387.907 98.9981 387.937 99.0717 387.937 99.1485V115.315C387.937 115.391 387.907 115.465 387.852 115.519C387.798 115.573 387.725 115.604 387.648 115.604Z" fill="#3C3C3B"/>
<path d="M372.123 126.327C372.046 126.327 371.973 126.296 371.918 126.242C371.864 126.188 371.834 126.114 371.834 126.038V108.117C371.834 108.041 371.864 107.967 371.918 107.913C371.973 107.859 372.046 107.828 372.123 107.828C372.2 107.828 372.273 107.859 372.327 107.913C372.382 107.967 372.412 108.041 372.412 108.117V126.038C372.412 126.114 372.382 126.188 372.327 126.242C372.273 126.296 372.2 126.327 372.123 126.327Z" fill="#3C3C3B"/>
<path d="M372.123 144.247C372.058 144.248 371.995 144.228 371.944 144.189C371.892 144.15 371.855 144.095 371.839 144.032C371.822 143.97 371.827 143.904 371.852 143.844C371.877 143.785 371.922 143.736 371.978 143.705L386.22 135.477C386.283 135.455 386.352 135.455 386.415 135.478C386.478 135.501 386.531 135.545 386.565 135.602C386.599 135.66 386.612 135.727 386.602 135.794C386.592 135.86 386.559 135.92 386.509 135.965L372.304 144.211L372.123 144.247Z" fill="#3C3C3B"/>
<path d="M372.123 126.327C372.058 126.328 371.995 126.308 371.944 126.269C371.892 126.23 371.855 126.175 371.839 126.112C371.822 126.05 371.827 125.984 371.852 125.924C371.877 125.865 371.922 125.816 371.978 125.785L385.967 117.701C386.03 117.679 386.099 117.68 386.162 117.702C386.225 117.725 386.278 117.769 386.312 117.827C386.346 117.884 386.359 117.952 386.349 118.018C386.339 118.084 386.306 118.145 386.256 118.19L372.304 126.291L372.123 126.327Z" fill="#3C3C3B"/>
<path d="M372.123 144.247C372.046 144.247 371.973 144.217 371.918 144.162C371.864 144.108 371.834 144.035 371.834 143.958V126.038C371.834 125.961 371.864 125.887 371.918 125.833C371.973 125.779 372.046 125.748 372.123 125.748C372.2 125.748 372.273 125.779 372.327 125.833C372.382 125.887 372.412 125.961 372.412 126.038V143.958C372.412 144.035 372.382 144.108 372.327 144.162C372.273 144.217 372.2 144.247 372.123 144.247Z" fill="#3C3C3B"/>
<path d="M325.585 99.4557C325.52 99.4568 325.457 99.4362 325.406 99.3973C325.354 99.3584 325.317 99.3034 325.301 99.241C325.284 99.1786 325.289 99.1125 325.314 99.0531C325.339 98.9937 325.384 98.9445 325.44 98.9132L339.537 90.7759C339.6 90.7537 339.669 90.7541 339.732 90.7769C339.795 90.7998 339.848 90.8438 339.882 90.9013C339.916 90.9589 339.929 91.0266 339.919 91.0927C339.909 91.1589 339.876 91.2195 339.826 91.2642L325.729 99.4015L325.585 99.4557Z" fill="#3C3C3B"/>
<path d="M387.648 99.4557H387.503L373.659 91.4631C373.626 91.4443 373.596 91.419 373.573 91.3888C373.549 91.3585 373.532 91.3239 373.522 91.2869C373.512 91.2498 373.509 91.2112 373.514 91.1731C373.519 91.1351 373.531 91.0984 373.551 91.0652C373.569 91.0318 373.595 91.0024 373.625 90.9787C373.655 90.9551 373.69 90.9378 373.727 90.9277C373.764 90.9176 373.802 90.9149 373.84 90.9199C373.878 90.9249 373.915 90.9374 373.948 90.9567L387.792 98.9494C387.849 98.9806 387.893 99.0298 387.918 99.0892C387.944 99.1486 387.948 99.2147 387.932 99.2771C387.915 99.3395 387.878 99.3945 387.827 99.4334C387.775 99.4723 387.712 99.4929 387.648 99.4919V99.4557Z" fill="#3C3C3B"/>
<path d="M375.033 126.038C375.033 126.613 374.862 127.176 374.542 127.655C374.223 128.134 373.768 128.507 373.237 128.727C372.705 128.948 372.12 129.005 371.555 128.893C370.991 128.781 370.473 128.503 370.066 128.096C369.659 127.689 369.382 127.17 369.269 126.606C369.157 126.041 369.215 125.455 369.435 124.923C369.655 124.391 370.028 123.937 370.507 123.617C370.985 123.297 371.548 123.126 372.123 123.126C372.505 123.126 372.884 123.202 373.237 123.348C373.59 123.494 373.91 123.709 374.181 123.979C374.451 124.249 374.665 124.57 374.811 124.923C374.958 125.277 375.033 125.655 375.033 126.038Z" fill="#00CFDD"/>
<path d="M390.557 99.1484C390.557 99.7242 390.387 100.287 390.067 100.766C389.747 101.245 389.293 101.618 388.761 101.838C388.229 102.059 387.644 102.116 387.08 102.004C386.515 101.891 385.997 101.614 385.59 101.207C385.183 100.8 384.906 100.281 384.794 99.7164C384.681 99.1516 384.739 98.5663 384.959 98.0343C385.18 97.5023 385.552 97.0476 386.031 96.7277C386.509 96.4078 387.072 96.2371 387.648 96.2371C388.419 96.2371 389.159 96.5438 389.705 97.0898C390.251 97.6358 390.557 98.3763 390.557 99.1484Z" fill="#00CFDD"/>
<path d="M375.051 143.958C375.051 144.534 374.88 145.096 374.561 145.575C374.241 146.054 373.786 146.427 373.255 146.647C372.723 146.868 372.138 146.925 371.574 146.813C371.009 146.701 370.491 146.424 370.084 146.016C369.677 145.609 369.4 145.09 369.287 144.526C369.175 143.961 369.233 143.376 369.453 142.844C369.673 142.312 370.046 141.857 370.525 141.537C371.003 141.217 371.566 141.046 372.141 141.046C372.913 141.046 373.653 141.353 374.199 141.899C374.744 142.445 375.051 143.186 375.051 143.958Z" fill="#1599B0"/>
<path d="M344.02 143.958C344.02 144.534 343.849 145.096 343.529 145.575C343.209 146.054 342.755 146.427 342.223 146.647C341.692 146.868 341.106 146.925 340.542 146.813C339.978 146.701 339.459 146.424 339.052 146.016C338.645 145.609 338.368 145.09 338.256 144.526C338.144 143.961 338.201 143.376 338.421 142.844C338.642 142.312 339.015 141.857 339.493 141.537C339.972 141.217 340.534 141.046 341.11 141.046C341.881 141.046 342.622 141.353 343.167 141.899C343.713 142.445 344.02 143.186 344.02 143.958Z" fill="#00CFDD"/>
<path d="M344.001 126.038C344.001 126.613 343.831 127.176 343.511 127.655C343.191 128.134 342.737 128.507 342.205 128.727C341.673 128.948 341.088 129.005 340.524 128.893C339.96 128.781 339.441 128.503 339.034 128.096C338.627 127.689 338.35 127.17 338.238 126.606C338.126 126.041 338.183 125.455 338.403 124.923C338.624 124.391 338.997 123.937 339.475 123.617C339.954 123.297 340.516 123.126 341.092 123.126C341.863 123.126 342.603 123.433 343.149 123.979C343.695 124.525 344.001 125.265 344.001 126.038Z" fill="#00CFDD"/>
<path d="M328.513 99.4558C328.513 100.032 328.342 100.594 328.023 101.073C327.703 101.552 327.248 101.925 326.717 102.146C326.185 102.366 325.6 102.424 325.035 102.311C324.471 102.199 323.953 101.922 323.546 101.514C323.139 101.107 322.862 100.589 322.749 100.024C322.637 99.459 322.695 98.8736 322.915 98.3417C323.135 97.8097 323.508 97.355 323.987 97.0351C324.465 96.7152 325.028 96.5444 325.603 96.5444C325.985 96.5444 326.364 96.6197 326.717 96.766C327.07 96.9124 327.39 97.1268 327.661 97.3971C327.931 97.6675 328.145 97.9884 328.291 98.3417C328.438 98.6949 328.513 99.0735 328.513 99.4558Z" fill="#00CFDD"/>
<path d="M356.616 153.216H356.472L342.483 145.133C342.433 145.088 342.401 145.028 342.391 144.962C342.38 144.895 342.394 144.828 342.428 144.77C342.462 144.713 342.515 144.669 342.578 144.646C342.64 144.623 342.709 144.623 342.772 144.645L356.761 152.728C356.817 152.759 356.862 152.808 356.887 152.868C356.912 152.927 356.917 152.993 356.9 153.056C356.884 153.118 356.847 153.173 356.795 153.212C356.744 153.251 356.681 153.271 356.616 153.27V153.216Z" fill="#3C3C3B"/>
<path d="M356.616 135.278H356.472L342.375 127.141C342.342 127.122 342.312 127.097 342.289 127.067C342.265 127.036 342.248 127.002 342.237 126.965C342.227 126.928 342.225 126.889 342.23 126.851C342.235 126.813 342.247 126.776 342.267 126.743C342.285 126.709 342.311 126.68 342.341 126.656C342.371 126.633 342.406 126.616 342.443 126.605C342.48 126.595 342.518 126.593 342.556 126.598C342.594 126.603 342.631 126.615 342.664 126.634L356.761 134.772C356.817 134.803 356.862 134.852 356.887 134.912C356.912 134.971 356.917 135.037 356.901 135.1C356.884 135.162 356.847 135.217 356.795 135.256C356.744 135.295 356.681 135.315 356.616 135.314V135.278Z" fill="#3C3C3B"/>
<path d="M356.616 153.216C356.552 153.217 356.489 153.197 356.437 153.158C356.386 153.119 356.349 153.064 356.332 153.001C356.316 152.939 356.32 152.873 356.346 152.813C356.371 152.754 356.415 152.705 356.472 152.674L370.496 144.663C370.56 144.641 370.628 144.641 370.691 144.664C370.754 144.687 370.807 144.731 370.841 144.788C370.875 144.846 370.888 144.914 370.878 144.98C370.868 145.046 370.835 145.106 370.786 145.151L356.689 153.234L356.616 153.216Z" fill="#3C3C3B"/>
<path d="M356.616 135.278C356.552 135.279 356.489 135.258 356.437 135.22C356.386 135.181 356.349 135.126 356.332 135.063C356.316 135.001 356.32 134.935 356.346 134.875C356.371 134.816 356.415 134.767 356.472 134.736L370.496 126.58C370.56 126.558 370.628 126.558 370.691 126.581C370.754 126.604 370.807 126.648 370.841 126.706C370.875 126.763 370.888 126.831 370.878 126.897C370.868 126.963 370.835 127.024 370.786 127.068L356.689 135.206L356.616 135.278Z" fill="#3C3C3B"/>
<path d="M359.526 153.234C359.526 153.81 359.355 154.373 359.036 154.852C358.716 155.331 358.262 155.704 357.73 155.924C357.198 156.144 356.613 156.202 356.049 156.09C355.484 155.977 354.966 155.7 354.559 155.293C354.152 154.886 353.875 154.367 353.762 153.802C353.65 153.238 353.708 152.652 353.928 152.12C354.148 151.588 354.521 151.134 355 150.814C355.478 150.494 356.041 150.323 356.616 150.323C357.388 150.323 358.128 150.63 358.674 151.176C359.219 151.722 359.526 152.462 359.526 153.234Z" fill="#00CFDD"/>
<path d="M356.616 151.806C356.54 151.806 356.466 151.775 356.412 151.721C356.358 151.667 356.327 151.593 356.327 151.517V135.007C356.327 134.93 356.358 134.857 356.412 134.802C356.466 134.748 356.54 134.718 356.616 134.718C356.693 134.718 356.767 134.748 356.821 134.802C356.875 134.857 356.905 134.93 356.905 135.007V151.517C356.905 151.593 356.875 151.667 356.821 151.721C356.767 151.775 356.693 151.806 356.616 151.806Z" fill="#3C3C3B"/>
<path d="M359.526 135.007C359.508 135.579 359.323 136.132 358.992 136.599C358.662 137.066 358.202 137.425 357.669 137.631C357.136 137.838 356.554 137.883 355.995 137.76C355.437 137.638 354.927 137.354 354.529 136.943C354.131 136.533 353.863 136.014 353.758 135.452C353.653 134.89 353.715 134.309 353.938 133.782C354.16 133.256 354.533 132.806 355.01 132.49C355.486 132.174 356.045 132.005 356.616 132.005C357.388 132.005 358.128 132.312 358.674 132.858C359.22 133.404 359.526 134.144 359.526 134.916V135.007Z" fill="#00CFDD"/>
<path d="M356.616 133.596C356.54 133.596 356.466 133.566 356.412 133.512C356.358 133.457 356.327 133.384 356.327 133.307V117.032C356.327 116.956 356.358 116.882 356.412 116.828C356.466 116.774 356.54 116.743 356.616 116.743C356.693 116.743 356.767 116.774 356.821 116.828C356.875 116.882 356.905 116.956 356.905 117.032V133.307C356.905 133.384 356.875 133.457 356.821 133.512C356.767 133.566 356.693 133.596 356.616 133.596Z" fill="#3C3C3B"/>
<path d="M341.092 108.389H340.947L326.959 100.306C326.925 100.287 326.896 100.262 326.872 100.231C326.849 100.201 326.831 100.166 326.821 100.129C326.811 100.092 326.808 100.054 326.813 100.016C326.818 99.9776 326.831 99.9409 326.85 99.9078C326.869 99.8743 326.894 99.8449 326.925 99.8213C326.955 99.7977 326.989 99.7803 327.026 99.7702C327.063 99.7601 327.102 99.7575 327.14 99.7625C327.178 99.7675 327.215 99.78 327.248 99.7993L341.236 107.882C341.293 107.914 341.337 107.963 341.362 108.022C341.388 108.082 341.392 108.148 341.376 108.21C341.359 108.272 341.322 108.327 341.271 108.366C341.219 108.405 341.156 108.426 341.092 108.425V108.389Z" fill="#3C3C3B"/>
<path d="M372.123 108.389C372.058 108.39 371.995 108.369 371.944 108.33C371.892 108.291 371.855 108.236 371.839 108.174C371.822 108.112 371.827 108.046 371.852 107.986C371.877 107.927 371.922 107.878 371.978 107.846L385.967 99.7632C386.03 99.741 386.099 99.7414 386.162 99.7642C386.225 99.7871 386.278 99.8311 386.312 99.8887C386.346 99.9462 386.359 100.014 386.349 100.08C386.339 100.146 386.306 100.207 386.256 100.251L372.304 108.353L372.123 108.389Z" fill="#3C3C3B"/>
<path d="M356.616 99.4558H356.472L342.375 91.3185C342.342 91.2997 342.312 91.2745 342.289 91.2442C342.265 91.214 342.248 91.1793 342.237 91.1423C342.227 91.1053 342.225 91.0666 342.23 91.0286C342.235 90.9905 342.247 90.9539 342.267 90.9207C342.285 90.8872 342.311 90.8578 342.341 90.8342C342.371 90.8106 342.406 90.7932 342.443 90.7831C342.48 90.773 342.518 90.7704 342.556 90.7754C342.594 90.7804 342.631 90.7929 342.664 90.8122L356.761 98.9495C356.817 98.9807 356.862 99.03 356.887 99.0893C356.912 99.1487 356.917 99.2149 356.901 99.2772C356.884 99.3396 356.847 99.3946 356.795 99.4335C356.744 99.4724 356.681 99.493 356.616 99.492V99.4558Z" fill="#3C3C3B"/>
<path d="M356.616 99.4558C356.552 99.4569 356.489 99.4363 356.437 99.3974C356.386 99.3585 356.349 99.3035 356.332 99.2411C356.316 99.1787 356.32 99.1126 356.346 99.0532C356.371 98.9938 356.415 98.9446 356.472 98.9134L370.316 90.9207C370.379 90.8985 370.448 90.8988 370.51 90.9217C370.573 90.9446 370.626 90.9885 370.66 91.0461C370.695 91.1037 370.708 91.1713 370.698 91.2375C370.687 91.3037 370.655 91.3643 370.605 91.409L356.761 99.4558H356.616Z" fill="#3C3C3B"/>
<path d="M359.526 99.1484C359.526 99.7242 359.355 100.287 359.036 100.766C358.716 101.245 358.262 101.618 357.73 101.838C357.198 102.059 356.613 102.116 356.049 102.004C355.484 101.891 354.966 101.614 354.559 101.207C354.152 100.8 353.875 100.281 353.762 99.7164C353.65 99.1516 353.708 98.5663 353.928 98.0343C354.148 97.5023 354.521 97.0476 355 96.7277C355.478 96.4078 356.041 96.2371 356.616 96.2371C357.388 96.2371 358.128 96.5438 358.674 97.0898C359.219 97.6358 359.526 98.3763 359.526 99.1484Z" fill="#00CFDD"/>
<path d="M341.092 108.389C341.027 108.39 340.964 108.369 340.913 108.33C340.861 108.291 340.824 108.236 340.808 108.174C340.791 108.112 340.796 108.046 340.821 107.986C340.846 107.927 340.891 107.878 340.947 107.846L354.936 99.7632C354.999 99.741 355.068 99.7414 355.13 99.7642C355.193 99.7871 355.246 99.8311 355.28 99.8887C355.315 99.9462 355.328 100.014 355.317 100.08C355.307 100.146 355.275 100.207 355.225 100.251L341.236 108.335L341.092 108.389Z" fill="#3C3C3B"/>
<path d="M372.123 108.389H371.978L357.99 100.306C357.957 100.287 357.927 100.262 357.904 100.231C357.88 100.201 357.863 100.166 357.852 100.129C357.842 100.092 357.84 100.054 357.845 100.016C357.85 99.9776 357.862 99.9409 357.882 99.9078C357.9 99.8743 357.926 99.8449 357.956 99.8213C357.986 99.7977 358.021 99.7803 358.058 99.7702C358.095 99.7601 358.133 99.7575 358.171 99.7625C358.209 99.7675 358.246 99.78 358.279 99.7993L372.304 107.864C372.36 107.895 372.405 107.945 372.43 108.004C372.455 108.063 372.46 108.13 372.443 108.192C372.427 108.254 372.39 108.309 372.338 108.348C372.287 108.387 372.224 108.408 372.159 108.407L372.123 108.389Z" fill="#3C3C3B"/>
<path d="M344.001 108.117C344.001 108.693 343.831 109.256 343.511 109.735C343.191 110.214 342.737 110.587 342.205 110.807C341.673 111.027 341.088 111.085 340.524 110.973C339.96 110.86 339.441 110.583 339.034 110.176C338.627 109.769 338.35 109.25 338.238 108.685C338.126 108.121 338.183 107.535 338.403 107.003C338.624 106.471 338.997 106.017 339.475 105.697C339.954 105.377 340.516 105.206 341.092 105.206C341.863 105.206 342.603 105.513 343.149 106.059C343.695 106.605 344.001 107.345 344.001 108.117Z" fill="#00CFDD"/>
<path d="M356.616 117.358H356.472L342.375 109.22C342.325 109.176 342.292 109.115 342.282 109.049C342.272 108.983 342.285 108.915 342.319 108.858C342.353 108.8 342.406 108.756 342.469 108.733C342.532 108.71 342.601 108.71 342.664 108.732L356.761 116.87C356.817 116.901 356.862 116.95 356.887 117.009C356.912 117.069 356.917 117.135 356.9 117.197C356.884 117.26 356.847 117.315 356.795 117.354C356.744 117.393 356.681 117.413 356.616 117.412V117.358Z" fill="#3C3C3B"/>
<path d="M375.033 108.117C375.033 108.693 374.862 109.256 374.542 109.735C374.223 110.214 373.768 110.587 373.237 110.807C372.705 111.027 372.12 111.085 371.555 110.973C370.991 110.86 370.473 110.583 370.066 110.176C369.659 109.769 369.382 109.25 369.269 108.685C369.157 108.121 369.215 107.535 369.435 107.003C369.655 106.471 370.028 106.017 370.507 105.697C370.985 105.377 371.548 105.206 372.123 105.206C372.505 105.206 372.884 105.281 373.237 105.428C373.59 105.574 373.91 105.788 374.181 106.059C374.451 106.329 374.665 106.65 374.811 107.003C374.958 107.356 375.033 107.735 375.033 108.117Z" fill="#00CFDD"/>
<path d="M356.616 117.358C356.552 117.359 356.489 117.338 356.437 117.299C356.386 117.261 356.349 117.205 356.332 117.143C356.316 117.081 356.32 117.015 356.346 116.955C356.371 116.896 356.415 116.847 356.472 116.815L370.569 108.678C370.632 108.656 370.701 108.656 370.763 108.679C370.826 108.702 370.879 108.746 370.913 108.803C370.948 108.861 370.961 108.929 370.951 108.995C370.94 109.061 370.908 109.122 370.858 109.166L356.761 117.304L356.616 117.358Z" fill="#3C3C3B"/>
<path d="M359.526 116.761C359.54 117.34 359.382 117.91 359.071 118.398C358.76 118.886 358.311 119.27 357.781 119.502C357.251 119.733 356.663 119.801 356.094 119.697C355.525 119.593 355 119.322 354.586 118.918C354.172 118.514 353.887 117.995 353.769 117.429C353.651 116.862 353.704 116.273 353.922 115.737C354.14 115.2 354.513 114.741 354.993 114.418C355.472 114.095 356.038 113.922 356.616 113.922C357.388 113.922 358.128 114.229 358.674 114.775C359.22 115.321 359.526 116.061 359.526 116.833V116.761Z" fill="#00CFDD"/>
<path d="M411.956 56.7803C419.04 64.9899 416.836 75.0982 412.733 84.7907C409.624 92.0238 406.895 99.926 403.534 107.828C400.064 116.418 389.871 127.719 379.551 137.683C379.551 134.989 377.003 132.909 375.159 134.067C381.123 121.047 387.286 109.456 394.1 102.313C393.268 93.9587 396.431 84.7364 399.955 75.044C400.714 63.0912 405.504 55.3155 411.956 56.7803Z" fill="white"/>
<path d="M362.978 145.838C362.978 146.725 363.412 147.249 364.279 147.086C365.062 146.428 365.89 145.823 366.755 145.278L367.297 144.934C367.27 145.47 367.128 145.994 366.882 146.471C366.52 147.051 366.069 147.57 365.544 148.008L365.418 148.135L364.894 148.551L367.37 149.473C369.101 149.801 370.879 149.801 372.611 149.473C374.483 148.032 376.155 146.348 377.581 144.464C378.422 142.486 379.029 140.417 379.388 138.298L379.696 137.755C380.093 134.808 377.671 132.728 375.304 134.139L374.527 135.26C370.424 138.244 367.406 142.493 364.84 143.379C364.367 143.626 363.955 143.975 363.634 144.4C363.312 144.825 363.088 145.317 362.978 145.838Z" fill="#FFC9AD"/>
<path opacity="0.15" d="M367.316 144.952C367.28 145.484 367.132 146.001 366.882 146.471C367.416 146.809 368.025 147.01 368.655 147.057C369.286 147.104 369.918 146.996 370.496 146.743L371.346 143.126L367.316 144.952Z" fill="black"/>
<path opacity="0.15" d="M364.894 148.497L367.297 149.383C369.029 149.711 370.807 149.711 372.538 149.383C374.411 147.942 376.082 146.257 377.509 144.374L372.304 147.665C371.245 148.159 370.1 148.437 368.933 148.484C367.766 148.53 366.602 148.344 365.508 147.936L365.382 148.063L364.894 148.497Z" fill="black"/>
</svg>
