<svg width="23" height="21" viewBox="0 0 23 21" fill="none" xmlns="http://www.w3.org/2000/svg">
<g clip-path="url(#clip0)">
<path d="M6.88128 6.55041H15.8272C15.9079 6.55041 15.9853 6.51821 16.0424 6.4609C16.0995 6.40359 16.1316 6.32586 16.1316 6.24481C16.1316 6.16376 16.0995 6.08603 16.0424 6.02872C15.9853 5.97141 15.9079 5.93921 15.8272 5.93921H6.88128C6.80055 5.93921 6.72313 5.97141 6.66605 6.02872C6.60897 6.08603 6.5769 6.16376 6.5769 6.24481C6.5769 6.32586 6.60897 6.40359 6.66605 6.4609C6.72313 6.51821 6.80055 6.55041 6.88128 6.55041Z" fill="white"/>
<path d="M16.1316 8.94207C16.1316 8.86102 16.0995 8.78329 16.0424 8.72598C15.9853 8.66867 15.9079 8.63647 15.8272 8.63647H6.88128C6.80055 8.63647 6.72313 8.66867 6.66605 8.72598C6.60897 8.78329 6.5769 8.86102 6.5769 8.94207C6.5769 9.02312 6.60897 9.10085 6.66605 9.15817C6.72313 9.21548 6.80055 9.24767 6.88128 9.24767H15.8272C15.9079 9.24767 15.9853 9.21548 16.0424 9.15817C16.0995 9.10085 16.1316 9.02312 16.1316 8.94207V8.94207Z" fill="white"/>
<path d="M22.8076 8.19131L19.0361 5.41434V4.75C19.0221 4.09742 18.7524 3.4767 18.2853 3.02267C17.8182 2.56865 17.1916 2.31798 16.5415 2.32513H14.8212L11.7708 0.0862838C11.6923 0.0280217 11.5972 -0.00341797 11.4995 -0.00341797C11.4019 -0.00341797 11.3068 0.0280217 11.2282 0.0862838L8.17788 2.32513H6.47736C5.82502 2.31445 5.195 2.56354 4.72506 3.01794C4.25512 3.47234 3.9835 4.09508 3.9696 4.75V5.41434L0.184785 8.19131C0.113295 8.23857 0.0574756 8.30618 0.0244706 8.38547C-0.00853435 8.46477 -0.0172235 8.55215 -0.000485018 8.63643C-0.00180009 8.65633 -0.00180009 8.67631 -0.000485018 8.69622V20.1628C0.000560127 20.2297 0.01638 20.2955 0.0458326 20.3555C0.00205307 20.4642 0.00205307 20.5857 0.0458326 20.6943C0.0765303 20.786 0.135298 20.8655 0.213733 20.9216C0.292168 20.9777 0.386255 21.0074 0.482542 21.0066H22.543C22.6392 21.0074 22.7333 20.9777 22.8118 20.9216C22.8902 20.8655 22.949 20.786 22.9797 20.6943C23.0217 20.5876 23.0217 20.4689 22.9797 20.3621C23.0091 20.3022 23.0249 20.2364 23.026 20.1695V8.69622C23.0274 8.67631 23.0274 8.65633 23.026 8.63643C23.0285 8.60991 23.0285 8.58322 23.026 8.5567C23.0212 8.48274 22.9989 8.41098 22.9609 8.34742C22.923 8.28386 22.8704 8.23034 22.8076 8.19131V8.19131ZM19.0361 6.55702L21.7754 8.55006L19.1287 10.5962L19.0294 10.6693L19.0361 6.55702ZM11.4995 1.02966L13.2331 2.32513H9.73283L11.4995 1.02966ZM4.88271 4.75C4.89653 4.33881 5.07214 3.94988 5.37104 3.66845C5.66995 3.38702 6.06778 3.23603 6.47736 3.24857H16.5415C16.9511 3.23603 17.3489 3.38702 17.6478 3.66845C17.9467 3.94988 18.1223 4.33881 18.1362 4.75V11.3536L14.5234 14.011C14.4612 14.0254 14.4026 14.0525 14.3514 14.0907L11.5458 16.2166L8.60136 14.0575L4.89595 11.3536L4.88271 4.75ZM3.9696 6.55702V10.6295L1.23024 8.56335L3.9696 6.55702ZM0.91925 9.59973L7.53605 14.4295L0.91925 19.266V9.59973ZM1.79929 20.0765L8.33007 15.0009L11.2481 17.1334C11.3266 17.1917 11.4217 17.2231 11.5194 17.2231C11.617 17.2231 11.7121 17.1917 11.7907 17.1334L14.5896 15.0142L21.1733 20.0765H1.79929ZM22.0798 19.266L15.463 14.4362L22.0798 9.60637V19.266Z" fill="white"/>
</g>
<defs>
<clipPath id="clip0">
<rect width="23" height="21" fill="white"/>
</clipPath>
</defs>
</svg>
