<svg width="21" height="21" viewBox="0 0 21 21" fill="none" xmlns="http://www.w3.org/2000/svg">
<path d="M19.8637 10.9197C19.9896 10.9197 20.1141 10.8949 20.2304 10.8468C20.3466 10.7986 20.4522 10.7281 20.5412 10.6391C20.6302 10.5501 20.7008 10.4445 20.7489 10.3283C20.7971 10.212 20.8218 10.0874 20.8218 9.96161C20.8201 7.32129 19.7709 4.78952 17.9046 2.92192C16.0382 1.05432 13.5071 0.00347581 10.8668 0C10.6127 3.78644e-09 10.369 0.100942 10.1893 0.280621C10.0096 0.460299 9.90869 0.703996 9.90869 0.958099C9.90869 1.2122 10.0096 1.4559 10.1893 1.63558C10.369 1.81526 10.6127 1.9162 10.8668 1.9162C12.9983 1.91794 15.042 2.76544 16.5492 4.27264C18.0564 5.77984 18.9039 7.82354 18.9056 9.95504C18.9048 10.0814 18.9289 10.2067 18.9767 10.3237C19.0244 10.4407 19.0949 10.5471 19.1839 10.6368C19.273 10.7264 19.3789 10.7976 19.4956 10.8462C19.6122 10.8947 19.7374 10.9197 19.8637 10.9197V10.9197ZM10.8668 1.31246C10.7728 1.31246 10.6827 1.27513 10.6162 1.20867C10.5498 1.14222 10.5124 1.05208 10.5124 0.958099C10.5124 0.864116 10.5498 0.773981 10.6162 0.707525C10.6827 0.641069 10.7728 0.603734 10.8668 0.603734C13.3458 0.607206 15.7224 1.59355 17.4753 3.3465C19.2283 5.09946 20.2146 7.47599 20.2181 9.95504C20.2181 10.049 20.1808 10.1392 20.1143 10.2056C20.0479 10.2721 19.9577 10.3094 19.8637 10.3094C19.7698 10.3094 19.6796 10.2721 19.6132 10.2056C19.5467 10.1392 19.5094 10.049 19.5094 9.95504C19.5059 7.66396 18.5942 5.4677 16.9742 3.84765C15.3541 2.22761 13.1579 1.31594 10.8668 1.31246V1.31246Z" fill="white"/>
<path d="M10.7616 3.20898C10.5075 3.20898 10.2638 3.30993 10.0841 3.48961C9.90441 3.66928 9.80347 3.91298 9.80347 4.16708C9.80347 4.42119 9.90441 4.66488 10.0841 4.84456C10.2638 5.02424 10.5075 5.12518 10.7616 5.12518C12.0698 5.12692 13.324 5.6474 14.2491 6.57249C15.1742 7.49758 15.6947 8.75178 15.6964 10.0601C15.6964 10.3142 15.7974 10.5579 15.9771 10.7375C16.1567 10.9172 16.4004 11.0182 16.6545 11.0182C16.9086 11.0182 17.1523 10.9172 17.332 10.7375C17.5117 10.5579 17.6126 10.3142 17.6126 10.0601C17.6109 8.24357 16.8885 6.50198 15.6041 5.21753C14.3196 3.93309 12.578 3.21072 10.7616 3.20898ZM16.6677 10.4275C16.5737 10.4275 16.4835 10.3902 16.4171 10.3237C16.3506 10.2573 16.3133 10.1672 16.3133 10.0732C16.3116 8.60478 15.7275 7.19702 14.6892 6.15871C13.6508 5.1204 12.2431 4.53631 10.7747 4.53457C10.6807 4.53457 10.5906 4.49724 10.5241 4.43078C10.4577 4.36433 10.4203 4.27419 10.4203 4.18021C10.4203 4.08622 10.4577 3.99609 10.5241 3.92963C10.5906 3.86318 10.6807 3.82584 10.7747 3.82584C12.4311 3.82758 14.0191 4.48634 15.1903 5.65756C16.3615 6.82879 17.0203 8.41681 17.022 10.0732C17.0203 10.1197 17.0095 10.1655 16.9901 10.2078C16.9707 10.2502 16.9432 10.2883 16.909 10.32C16.8749 10.3517 16.8348 10.3763 16.7912 10.3925C16.7475 10.4087 16.7011 10.4162 16.6545 10.4144L16.6677 10.4275Z" fill="white"/>
<path d="M14.5219 20.9994C14.6794 20.9994 14.8347 20.9994 14.9878 20.9994C15.7689 21.0121 16.5384 20.8101 17.2124 20.4154C17.51 20.2398 17.778 20.0183 18.0065 19.7592L18.6168 19.1029C19.1883 18.46 19.4845 17.6183 19.4415 16.7591C19.3986 15.9 19.0199 15.092 18.3871 14.5093L17.3568 13.5775C16.7139 13.0059 15.8722 12.7097 15.013 12.7527C14.1539 12.7957 13.3459 13.1743 12.7632 13.8071L12.1529 14.4634C11.9208 14.7185 11.7303 15.0086 11.5885 15.323C9.18081 14.3121 7.19317 12.5052 5.95806 10.2044C6.39819 10.0183 6.79236 9.73839 7.11303 9.38413L7.72333 8.72789C8.29486 8.08495 8.59103 7.24327 8.54807 6.3841C8.50511 5.52493 8.12646 4.71699 7.49364 4.13427L6.4568 3.15648C5.81385 2.58495 4.97218 2.28878 4.113 2.33173C3.25383 2.37469 2.4459 2.75335 1.86317 3.38616L1.25287 4.04239C1.16599 4.13809 1.08491 4.23889 1.01007 4.34426C0.565207 4.81718 0.246643 5.39453 0.0837809 6.02305C-0.0790815 6.65156 -0.0809946 7.31097 0.0782182 7.94041C0.752159 11.3852 2.5235 14.5191 5.12718 16.8732C7.73085 19.2273 11.0268 20.6749 14.5219 20.9994V20.9994ZM1.60724 5.0333L1.65318 4.99393L1.68599 4.94799C1.74419 4.86517 1.80777 4.78626 1.8763 4.71175L2.48659 4.05552C2.90724 3.59225 3.4945 3.31478 4.11949 3.28403C4.74449 3.25327 5.35615 3.47173 5.82025 3.89146L6.85054 4.82331C7.31381 5.24396 7.59127 5.83122 7.62203 6.45621C7.65278 7.0812 7.43433 7.69287 7.01459 8.15697L6.4043 8.8132C6.11363 9.12463 5.74397 9.35142 5.33464 9.46944L5.15089 9.52193C5.08483 9.54014 5.02375 9.57311 4.97228 9.61835C4.9208 9.6636 4.88027 9.71993 4.85373 9.78312C4.82719 9.84631 4.81534 9.91469 4.81907 9.98312C4.82281 10.0516 4.84202 10.1182 4.87528 10.1782L4.96059 10.3488C6.31702 13.0762 8.63641 15.2038 11.4704 16.3205L11.6345 16.3861C11.6916 16.409 11.7528 16.4199 11.8144 16.4184C11.8759 16.4168 11.9365 16.4026 11.9924 16.3768C12.0483 16.351 12.0983 16.3141 12.1394 16.2683C12.1806 16.2225 12.212 16.1688 12.2316 16.1105L12.2841 15.9464C12.3937 15.6281 12.5705 15.3372 12.8026 15.0933L13.4129 14.4371C13.8335 13.9738 14.4208 13.6964 15.0458 13.6656C15.6708 13.6349 16.2824 13.8533 16.7465 14.2731L17.7768 15.2049C18.2401 15.6256 18.5175 16.2128 18.5483 16.8378C18.5791 17.4628 18.3606 18.0745 17.9409 18.5386L17.3306 19.1948C17.1597 19.3823 16.9604 19.5418 16.74 19.6673C16.0919 20.038 15.3424 20.192 14.6006 20.107C11.3007 19.7994 8.18926 18.4312 5.73214 16.2071C3.27502 13.983 1.60448 11.0228 0.970694 7.76979C0.845284 7.29636 0.83773 6.79942 0.948693 6.3224C1.05966 5.84537 1.28576 5.40278 1.60724 5.0333V5.0333Z" fill="white"/>
</svg>
