<svg width="476" height="614" viewBox="0 0 476 614" fill="none" xmlns="http://www.w3.org/2000/svg">
<path opacity="0.15" d="M109.582 549.863C134.645 564.332 134.645 587.775 109.582 602.226C84.5181 616.677 43.8613 616.694 18.7977 602.226C-6.2659 587.758 -6.2659 564.314 18.7977 549.863C43.8613 535.413 84.5007 535.482 109.582 549.863Z" fill="#1D1D1B"/>
<path opacity="0.15" d="M462.276 424.727C480.54 435.262 480.54 452.346 462.276 462.847C444.011 473.347 414.386 473.381 396.104 462.847C377.823 452.312 377.84 435.227 396.104 424.727C414.369 414.227 444.011 414.192 462.276 424.727Z" fill="#1D1D1B"/>
<path d="M374.631 298.1C374.801 298.26 374.994 298.395 375.204 298.499C375.588 298.742 376.032 298.874 376.487 298.88C377.386 298.882 378.284 298.824 379.176 298.706C385.697 297.979 398.255 293.647 405.28 289.922C408.749 288.085 429.355 281.57 430.205 279.525C431.193 267.951 449.284 268.124 444.792 261.107C439.432 256.203 434.975 255.285 426.562 259.27C422.174 261.349 414.664 266.738 400.545 274.31C390.138 279.924 379.609 283.355 373.192 288.518C372.929 288.694 372.708 288.924 372.543 289.193C372.379 289.463 372.274 289.764 372.238 290.078C372.011 291.508 372.108 292.972 372.522 294.36C372.936 295.749 373.657 297.027 374.631 298.1Z" fill="white"/>
<path opacity="0.1" d="M379.193 298.793C385.663 298.083 434.697 282.038 441.635 278.278L429.199 270.81C425.522 280.218 390.45 294.357 379.193 298.793Z" fill="#1D1D1B"/>
<path d="M422.972 437.22C425.591 437.22 433.379 434.014 437.941 431.207L438.548 430.809C438.929 430.549 439.294 430.289 439.606 430.046C439.901 429.83 440.179 429.593 440.438 429.336C440.727 429.074 440.968 428.763 441.15 428.418C441.128 427.107 441.024 425.799 440.837 424.502C440.686 423.13 440.286 421.797 439.658 420.568L439.103 415.474L438.929 413.741H427.274L427.534 417.103L427.863 421.14C427.863 421.14 427.742 421.348 427.464 421.729C424.946 424.882 421.936 427.608 418.549 429.804C416.416 431.328 416.259 437.22 422.972 437.22Z" fill="#1D1D1B"/>
<path d="M426.666 330.519L423.718 368.275C424.377 388.478 426.493 397.263 427.326 420.568C427.499 425.281 442.034 427.239 441.705 423.635C442.693 408.041 443.439 388.669 441.184 374.738C444.352 362.197 446.097 349.341 446.388 336.41L426.666 330.519Z" fill="#2E241F"/>
<path d="M447.48 455.517C450.099 455.517 457.887 452.312 462.449 449.505L463.056 449.106C463.438 448.864 463.802 448.604 464.114 448.344L464.669 447.911L464.964 447.633C465.252 447.374 465.487 447.062 465.658 446.715C465.644 445.404 465.54 444.096 465.346 442.799C465.346 442.799 465.346 442.695 465.346 442.643C465.192 441.326 464.804 440.047 464.201 438.866L463.646 433.772L463.472 432.039H451.817L452.059 435.4L452.389 439.438C452.389 439.438 452.268 439.646 451.99 440.027L451.765 440.321C449.278 443.332 446.355 445.954 443.092 448.101C440.924 449.609 440.75 455.517 447.48 455.517Z" fill="#1D1D1B"/>
<path d="M438.097 348.574L443.3 383.558C447.084 401.834 449.771 420.321 451.348 438.918V439.386C451.398 439.748 451.535 440.093 451.747 440.391C453.222 442.401 458.2 444.029 461.929 443.856C463.178 443.859 464.395 443.457 465.398 442.712C465.642 442.506 465.843 442.253 465.988 441.967C466.237 441.53 466.362 441.033 466.352 440.529C466.144 435.227 466.126 411.714 465.346 404.142C465.346 403.657 465.259 403.155 465.207 402.652C465.155 402.15 465.051 401.249 464.964 400.555C464.974 400.382 464.974 400.209 464.964 400.036C464.964 399.81 464.964 399.585 464.877 399.36C464.704 397.87 464.478 396.362 464.218 394.872C464.218 394.491 464.097 394.11 464.028 393.729C463.958 393.347 463.871 392.828 463.785 392.446C463.698 392.065 463.646 391.632 463.559 391.251C463.472 390.87 463.403 390.488 463.282 390.107C463.16 389.726 463.074 389.154 462.935 388.704C462.571 387.318 462.189 386.018 461.738 384.788C463.476 374.114 463.907 363.268 463.021 352.49L462.865 350.671C464.801 344.145 464.933 337.218 463.247 330.623L457.939 329.324L442.121 325.408L427.516 321.786L426.961 321.648C426.059 336.376 426.545 342.18 438.097 348.574Z" fill="#45362E"/>
<path d="M463.091 329.168C463.091 329.168 463.195 332.633 463.091 333.898C451.886 341.782 428.748 332.165 426.666 324.715C426.666 323.155 426.458 321.648 426.666 319.62C433.5 328.977 454.626 333.898 463.091 329.168Z" fill="black"/>
<path d="M433.604 330.571C435.014 331.579 436.578 332.351 438.236 332.858V329.947C436.599 329.389 435.042 328.62 433.604 327.66V330.571Z" fill="#575756"/>
<path d="M426.562 320.989C432.477 329.116 453.065 336.826 462.987 329.514C465.068 327.989 464.444 326.049 465.051 321.561C465.571 316.733 466.016 312.297 466.386 308.254C467.502 297.896 468.017 287.482 467.93 277.065C467.93 276.043 468.052 275.731 467.93 275.09C462.858 269.685 457.089 264.977 450.776 261.089C446.711 259.204 442.521 257.6 438.235 256.29C422.486 250.572 424.654 318.321 426.562 320.989Z" fill="#00CFDD"/>
<path d="M440.04 387.404C440.04 389.882 449.909 392.048 458.425 390.003C460.657 389.628 462.782 388.779 464.657 387.515C466.533 386.251 468.116 384.6 469.301 382.674L469.023 351.381L468.295 300.457V297.528L468 275.124C464.826 270.844 459.188 266.634 454.124 263.203C448.053 271.503 444.723 286.214 442.815 301.756L441.878 325.304L440.04 387.404Z" fill="white"/>
<path d="M441.67 256.827C436.58 269.411 433.411 282.687 432.269 296.211L428.297 382.657C422.313 380.924 418.757 378.273 418.757 368.535C418.757 366.334 425.244 280.86 425.244 280.86C427.117 263.688 430.69 252.582 441.67 256.827Z" fill="white"/>
<path d="M455.841 264.052C457.385 267.76 448.608 273.565 444.376 273.565C443.266 271.919 443.248 269.441 442.242 267.518C440.837 268.471 439.276 269.995 437.542 271.208C435.981 259.079 449.961 255.094 453.152 260.119C454.123 261.378 455.021 262.691 455.841 264.052Z" fill="#1C8EF4"/>
<path d="M453.083 260.119C453.724 265.664 451.504 266.859 449.353 272.248C446.041 280.582 443.838 292.763 442.884 301.704L453.811 277.186L449.7 273.842L454.21 274.344C455.695 271.391 456.478 268.136 456.5 264.832C455.652 263.069 454.495 261.473 453.083 260.119Z" fill="#DADADA"/>
<path d="M442.416 256.757C437.056 266.669 433.743 281.865 432.009 298.793C431.003 288.717 430.846 278.573 431.54 268.471L435.183 269.025L432.009 266.565L439.085 255.978L442.416 256.757Z" fill="#DADADA"/>
<path d="M438.166 246.119C435.755 243.918 432.477 240.349 432.963 236.467C433.5 231.893 438.166 230.143 444.237 230.178C452.909 230.178 456.743 237.351 454.8 246.136C454.124 249.203 453.794 253.587 452.476 253.743C450.429 253.985 451.522 253.119 449.943 253.413L438.166 246.119Z" fill="#1D1D1B"/>
<path d="M439.398 265.438V265.23L439.051 260.812L438.947 259.478L452.198 250.936L453.135 259.599C454.696 268.107 440.907 269.787 439.398 265.438Z" fill="#FFC9AD"/>
<path opacity="0.1" d="M439.398 265.438V265.23L439.051 260.812L448.729 255.701C449.371 261.159 444.913 266.911 439.398 265.438Z" fill="#1D1D1B"/>
<path d="M432.026 238.911C432.963 233.712 438.357 231.702 444.167 231.841C452.007 232.049 454.071 237.767 454.28 243.97C454.064 247.026 453.482 250.045 452.545 252.963L448.833 255.787C448.202 257.612 447.157 259.266 445.781 260.621C444.877 261.515 443.785 262.195 442.585 262.611C441.384 263.028 440.106 263.171 438.843 263.03C436.223 262.649 434.437 261.02 433.743 256.775C433.049 252.53 432.564 252.478 432.373 250.641C432.269 249.601 432.46 248.423 432.373 247.869C432.286 247.314 431.818 246.257 431.714 245.495C431.571 243.295 431.676 241.087 432.026 238.911Z" fill="#FFC9AD"/>
<path d="M447.48 237.455C449.007 236.779 447.619 246.604 447.619 246.604C447.619 246.604 449.961 246.413 450.498 246.881C451.626 247.851 449.926 251.559 450.811 253.257C451.071 253.76 451.782 253.881 452.545 253.691C453.424 251.002 454.096 248.251 454.557 245.46C454.87 242.763 454.531 240.029 453.569 237.49C453.083 236.225 452.352 235.069 451.417 234.087C450.482 233.106 449.363 232.319 448.122 231.772C445.8 230.955 443.295 230.799 440.889 231.321C435.096 232.344 433.57 234.18 433.049 236.415C433.466 239.066 439.432 241.007 447.48 237.455Z" fill="#1D1D1B"/>
<path d="M450.498 244.195C452.337 243.502 452.354 246.101 452.233 247.245C452.146 247.99 451.903 248.683 451.799 249.428C451.695 250.173 451.799 251.057 451.383 251.611C450.169 252.98 448.937 250.641 448.712 249.705C448.348 248.371 448.903 244.802 450.498 244.195Z" fill="#FFC9AD"/>
<path opacity="0.1" d="M447.082 354.188L447.376 354.309C458.356 365.485 457.593 385.723 458.425 390.003C460.657 389.628 462.782 388.779 464.657 387.515C466.533 386.251 468.116 384.6 469.301 382.674L469.023 351.381L468.295 300.457L457.228 293.63C457.992 311.182 458.72 343.324 447.082 354.188Z" fill="#1D1D1B"/>
<path d="M431.87 249.255C433.466 250.641 435.634 250.468 435.478 247.522C435.48 247.482 435.48 247.441 435.478 247.401C435.696 247.372 435.918 247.387 436.129 247.447C436.341 247.507 436.538 247.609 436.709 247.747C436.709 247.747 436.709 247.747 436.709 247.869C436.709 253.639 444.497 252.356 443.647 248.475C443.3 246.829 440.386 247.366 437.941 246.968C437.646 246.968 436.9 246.968 436.779 247.28C436.345 246.943 435.798 246.787 435.252 246.846C435.115 246.505 434.856 246.226 434.524 246.067C432.564 245.218 430.899 243.71 430.604 245.252C430.483 245.972 430.534 246.71 430.754 247.406C430.974 248.102 431.357 248.735 431.87 249.255ZM437.073 247.834C437.073 247.47 437.073 247.158 437.941 247.245C438.808 247.331 439.519 247.435 440.3 247.47C442.034 247.557 443.196 247.678 443.37 248.492C443.436 248.793 443.434 249.104 443.365 249.404C443.296 249.703 443.161 249.984 442.971 250.225C442.668 250.576 442.297 250.86 441.879 251.06C441.461 251.26 441.006 251.371 440.542 251.386C440.102 251.427 439.658 251.377 439.237 251.24C438.817 251.103 438.428 250.881 438.097 250.589C437.745 250.229 437.473 249.799 437.296 249.328C437.12 248.857 437.044 248.354 437.073 247.851V247.834ZM431.003 245.287C431.003 244.975 431.193 244.94 431.332 244.94C431.766 244.94 432.165 245.218 432.945 245.616C433.431 245.859 433.934 246.119 434.454 246.344C434.621 246.426 434.767 246.546 434.882 246.693C434.996 246.84 435.075 247.011 435.113 247.193C435.304 248.284 435.113 249.688 433.934 249.757C433.564 249.745 433.199 249.66 432.863 249.505C432.526 249.35 432.224 249.13 431.974 248.856C431.56 248.366 431.261 247.79 431.099 247.169C430.937 246.548 430.916 245.899 431.037 245.27L431.003 245.287Z" fill="#1D1D1B"/>
<path d="M443.543 248.614L448.504 246.223L448.66 245.703L443.231 247.921L443.543 248.614Z" fill="#1D1D1B"/>
<path d="M468.433 349.943V352.299L468.294 355.106L467.809 357.03C467.653 358.052 468.242 358.572 468.728 358.554C468.852 358.552 468.973 358.513 469.075 358.442C469.177 358.371 469.256 358.272 469.3 358.156L470.116 355.886L470.515 353.512C470.664 352.812 470.728 352.096 470.705 351.381L470.012 350.948L468.624 350.081L468.433 349.943Z" fill="#FFC9AD"/>
<path opacity="0.1" d="M470.289 349.596H468.728V350.133L468.485 352.178L467.895 357.082C467.739 358.104 468.329 358.624 468.832 358.606C468.864 357.749 469.114 356.914 469.561 356.181C469.437 355.449 469.585 354.697 469.977 354.067C469.799 353.046 469.852 351.998 470.133 351C470.133 350.515 470.22 350.081 470.289 349.596Z" fill="#1D1D1B"/>
<path d="M469.786 351.468L468.555 351.121L466.82 350.636L466.352 350.497L466.629 352.23L467.011 354.569L466.629 357.497L465.936 359.473C465.675 360.582 466.3 361.205 466.855 361.205C466.976 361.199 467.093 361.16 467.193 361.093C467.294 361.026 467.375 360.933 467.427 360.824L468.728 358.087L469.405 354.846C469.617 353.731 469.744 352.602 469.786 351.468Z" fill="#FFC9AD"/>
<path opacity="0.1" d="M468.641 350.567H466.907L466.699 352.299L467.08 354.639L466.699 357.567L466.005 359.542C465.745 360.651 466.369 361.275 466.924 361.275C466.932 360.239 467.226 359.226 467.774 358.347C467.623 357.495 467.796 356.617 468.26 355.886C468.064 354.341 468.188 352.772 468.624 351.277L468.641 350.567Z" fill="#1D1D1B"/>
<path d="M467.861 353.547L466.126 353.062L464.617 352.629L464.288 352.542V352.75L464.93 356.735L464.548 359.785L463.837 361.847C463.764 362.071 463.742 362.308 463.772 362.542C463.802 362.775 463.883 363 464.01 363.198C464.077 363.321 464.177 363.424 464.297 363.495C464.418 363.567 464.555 363.604 464.695 363.604C464.836 363.604 464.973 363.567 465.094 363.495C465.214 363.424 465.313 363.321 465.381 363.198L466.733 360.339L467.427 356.96C467.655 355.835 467.8 354.694 467.861 353.547Z" fill="#FFC9AD"/>
<path opacity="0.1" d="M466.317 352.022L464.583 352.663L464.288 352.784L464.93 356.77L464.548 359.819L463.837 361.881C463.764 362.105 463.742 362.343 463.772 362.576C463.802 362.81 463.883 363.034 464.01 363.233C464.115 362.315 464.462 361.442 465.016 360.703C465.04 359.54 465.325 358.397 465.849 357.359C465.639 355.935 465.728 354.484 466.109 353.096L466.317 352.022Z" fill="#1D1D1B"/>
<path d="M469.057 337.606C468.563 338.348 467.859 338.928 467.034 339.27C466.21 339.612 465.302 339.703 464.426 339.529C463.483 339.434 462.589 339.06 461.859 338.455L461.703 345.213C460.349 346.909 459.626 349.021 459.656 351.19L460.212 351.71L462.31 353.703L462.761 353.859L465.033 354.638C467.281 354.292 469.321 353.125 470.757 351.364C470.468 348.809 469.771 346.317 468.693 343.982L469.057 337.606Z" fill="#FFC9AD"/>
<path d="M465.658 354.049L462.9 353.27L462.449 353.148L462.085 353.044L462.258 354.136L462.432 355.158L462.761 357.22L462.38 360.27L461.669 362.332C461.443 363.267 461.825 363.857 462.276 364.064C462.442 364.137 462.63 364.144 462.801 364.082C462.972 364.021 463.113 363.897 463.195 363.735L464.548 360.876L465.242 357.497C465.466 356.36 465.605 355.207 465.658 354.049Z" fill="#FFC9AD"/>
<path d="M460.368 351L459.657 351.19C459.538 352.875 459.538 354.566 459.657 356.25L458.807 359.144C458.78 359.31 458.78 359.48 458.807 359.646C458.807 360.201 459.258 360.426 459.778 360.27C460.214 360.12 460.591 359.834 460.853 359.455C461.425 358.458 461.868 357.393 462.172 356.285L462.449 355.176L462.64 354.396L462.779 353.876L462.935 353.27L463.247 352.039C462.949 351.574 462.505 351.22 461.984 351.032C461.464 350.844 460.895 350.832 460.368 351Z" fill="#FFC9AD"/>
<path opacity="0.1" d="M462.397 352.525C462.397 352.733 462.397 352.923 462.397 353.131C462.397 353.339 462.397 353.824 462.31 354.153C462.221 355.333 461.878 356.48 461.304 357.515C461.042 358.551 460.523 359.504 459.795 360.287C460.231 360.137 460.608 359.852 460.871 359.473C461.443 358.476 461.885 357.41 462.189 356.302L462.467 355.193L462.796 357.255L462.414 360.304L461.703 362.366C461.478 363.302 461.859 363.891 462.31 364.099C462.083 363.526 462.014 362.903 462.108 362.293C462.203 361.684 462.458 361.111 462.848 360.634C462.686 359.485 462.958 358.318 463.611 357.359C463.109 356.435 462.791 355.423 462.675 354.379C462.675 353.98 462.553 353.564 462.501 353.131C462.449 352.698 462.414 352.733 462.397 352.525Z" fill="#1D1D1B"/>
<path opacity="0.1" d="M461.86 338.455L461.703 345.213C460.349 346.909 459.626 349.021 459.657 351.19C459.538 352.875 459.538 354.565 459.657 356.25L458.807 359.144C458.78 359.31 458.78 359.48 458.807 359.646C459.148 358.347 459.686 357.108 460.403 355.973C459.913 354.603 459.847 353.118 460.212 351.71C460.212 351.468 460.316 351.242 460.385 351C460.374 349.925 460.63 348.864 461.129 347.911C461.629 346.959 462.356 346.145 463.247 345.542C462.8 344.536 462.675 343.417 462.889 342.337C463.103 341.258 463.646 340.271 464.444 339.512C463.496 339.425 462.596 339.057 461.86 338.455Z" fill="#1D1D1B"/>
<path d="M467.93 275.038C473.706 280.963 474.07 297.424 475.527 308.964C474.64 321.02 472.725 332.979 469.803 344.71C469.3 349.042 461.599 348.626 461.01 345.282C460.559 332.096 460.628 324.108 462.154 314.284C459.605 308.115 458.477 298.308 456.274 288.293C455.875 278.85 461.669 271.347 467.93 275.038Z" fill="white"/>
<path d="M357.65 304.65C357.65 305.689 358.916 305.776 359.385 305.343C361.69 303.37 364.162 301.602 366.774 300.058C366.93 299.971 366.999 299.971 366.913 300.058C364.519 302.207 365.074 303.35 365.178 303.523C365.245 303.59 365.329 303.638 365.421 303.662C365.676 303.698 365.937 303.661 366.172 303.557C366.408 303.453 366.611 303.285 366.756 303.073C367.18 302.588 367.716 302.213 368.317 301.981C368.951 301.809 369.604 301.716 370.26 301.704C372.011 300.932 373.628 299.885 375.047 298.602C375.481 298.271 375.898 297.919 376.296 297.546C376.573 297.273 376.791 296.946 376.934 296.585C377.077 296.224 377.144 295.837 377.129 295.449C377.14 295.351 377.14 295.252 377.129 295.154C376.949 293.717 376.345 292.366 375.394 291.273C375.015 290.775 374.494 290.404 373.899 290.209C373.304 290.015 372.664 290.005 372.064 290.181C371.544 290.181 370.971 290.32 370.33 290.337C368.293 290.384 366.271 290.687 364.311 291.238C363.118 292.181 362.092 293.318 361.275 294.6C360.84 295.152 360.527 295.79 360.356 296.471C360.477 297.726 360.939 298.924 361.692 299.937C360.145 301.047 358.786 302.399 357.668 303.939C357.624 304.174 357.618 304.413 357.65 304.65Z" fill="#FFC9AD"/>
<path opacity="0.1" d="M365.542 303.627C365.798 303.663 366.058 303.627 366.294 303.522C366.53 303.418 366.732 303.251 366.878 303.038C367.302 302.553 367.838 302.179 368.439 301.947C369.073 301.774 369.725 301.681 370.382 301.669C372.133 300.897 373.749 299.85 375.169 298.568C375.553 298.812 375.998 298.944 376.453 298.949C377.352 298.952 378.25 298.894 379.141 298.776C378.512 298.484 377.99 298.003 377.648 297.4C377.306 296.798 377.161 296.103 377.233 295.414V295.068C376.591 296.252 375.704 297.285 374.631 298.1C373.296 299.107 371.874 299.994 370.382 300.751C368.717 300.439 366.236 302.813 365.542 303.627Z" fill="#1D1D1B"/>
<path opacity="0.1" d="M357.65 304.65C357.65 305.689 358.917 305.776 359.385 305.343C361.69 303.37 364.162 301.602 366.774 300.058L367.017 299.781L369.844 298.966L370.451 297.112C370.021 297.725 369.432 298.21 368.748 298.515C368.064 298.82 367.31 298.934 366.566 298.845C363.565 301.565 358.847 305.845 357.65 304.65Z" fill="#1D1D1B"/>
<path opacity="0.1" d="M360.512 296.471C360.634 297.726 361.096 298.924 361.848 299.937L363.305 298.845C362.762 298.649 362.283 298.311 361.917 297.866C361.55 297.421 361.311 296.885 361.224 296.315L361.432 294.583C360.994 295.14 360.681 295.784 360.512 296.471Z" fill="#1D1D1B"/>
<path d="M364.45 478.077L212.576 566.238C208.469 568.327 203.925 569.416 199.316 569.416C194.707 569.416 190.163 568.327 186.056 566.238L72.7407 500.828C69.0462 498.697 67.2076 495.89 67.2076 493.1V523.249C67.2076 526.039 69.0462 528.846 72.7407 530.977L186.073 596.335C190.181 598.424 194.724 599.513 199.334 599.513C203.943 599.513 208.486 598.424 212.594 596.335L364.467 508.174C368.092 506.078 369.913 503.323 369.913 500.551V470.401C369.896 473.208 368.075 475.963 364.45 478.077Z" fill="#1D1D1B"/>
<path d="M364.363 462.708C371.7 466.936 371.752 473.815 364.449 478.06L212.576 566.22C208.469 568.309 203.925 569.398 199.316 569.398C194.707 569.398 190.163 568.309 186.056 566.22L72.7405 500.828C65.4036 496.6 65.3515 489.721 72.7405 485.476L224.614 397.315C228.721 395.226 233.265 394.137 237.874 394.137C242.483 394.137 247.027 395.226 251.134 397.315L364.363 462.708Z" fill="#8C71EF"/>
<g opacity="0.15">
<path opacity="0.15" d="M248.168 489.964L182.153 528.291L115.704 489.981L181.72 451.653L248.168 489.964Z" fill="#1D1D1B"/>
</g>
<path d="M239.166 213.769L208.57 196.009L208.483 167.349L239.08 185.11L239.166 213.769Z" fill="#9D9D9C"/>
<path d="M280.205 250.814C280.205 238.98 275.99 230.645 269.243 226.73L238.646 208.969C245.393 212.885 249.573 221.22 249.608 233.054V327.123C249.608 338.958 241.3 353.391 230.997 359.334L204.407 374.669C201.988 376.236 199.974 378.353 198.53 380.846C197.086 383.34 196.253 386.139 196.099 389.016L196.324 468.807L226.921 486.567L226.695 406.776C226.849 403.899 227.682 401.1 229.126 398.607C230.57 396.113 232.584 393.996 235.004 392.429L261.594 377.095C271.914 371.151 280.239 356.718 280.205 344.866V250.814Z" fill="#1D1D1B"/>
<path d="M239.999 202.09C281.835 177.971 315.849 197.325 315.988 245.408V345.784L316.248 435.123L280.5 455.743L226.903 486.654L226.678 406.863C226.832 403.986 227.665 401.187 229.109 398.693C230.553 396.2 232.567 394.083 234.986 392.516L261.576 377.181C271.897 371.238 280.222 356.804 280.187 344.953V250.884C280.187 227.059 263.241 217.442 242.497 229.415L239.149 231.339V202.679L239.999 202.09Z" fill="#FFE6AB"/>
<path d="M263.293 179.063C249.521 171.075 230.442 172.132 209.402 184.261L208.483 184.798L239.08 202.558L239.999 202.021C261.056 189.892 280.118 188.748 293.89 196.823L263.293 179.063Z" fill="#1D1D1B"/>
<path d="M248.169 424.086L248.151 432.767L182.136 471.094L182.153 462.413L248.169 424.086Z" fill="#1D1D1B"/>
<path d="M182.153 462.413L182.136 471.094L115.67 432.767L115.704 424.086L182.153 462.413Z" fill="#1D1D1B"/>
<path d="M248.169 424.086L182.153 462.413L115.705 424.086L181.72 385.758L248.169 424.086Z" fill="white"/>
<path d="M194.989 410.848C203.904 416.046 203.904 424.328 194.989 429.474C186.073 434.621 171.607 434.673 162.692 429.474C153.777 424.276 153.777 415.994 162.692 410.848C171.607 405.702 186.056 405.702 194.989 410.848Z" fill="#00CFDD"/>
<path d="M188.796 343.826H161.478V361.673H188.796V343.826Z" fill="#C6C6C6"/>
<path d="M184.807 356.094C190.149 359.178 190.149 364.151 184.807 367.235C181.813 368.753 178.503 369.544 175.146 369.544C171.789 369.544 168.479 368.753 165.485 367.235C160.142 364.151 160.142 359.161 165.485 356.094C168.479 354.576 171.789 353.786 175.146 353.786C178.503 353.786 181.813 354.576 184.807 356.094Z" fill="#C6C6C6"/>
<path d="M184.807 338.247C190.149 341.331 190.149 346.304 184.807 349.388C181.813 350.906 178.503 351.697 175.146 351.697C171.789 351.697 168.479 350.906 165.485 349.388C160.142 346.304 160.142 341.331 165.485 338.247C168.479 336.729 171.789 335.939 175.146 335.939C178.503 335.939 181.813 336.729 184.807 338.247Z" fill="#C6C6C6"/>
<path d="M197.261 313.227H153.048V342.111H197.261V313.227Z" fill="#1D1D1B"/>
<path d="M190.774 333.101C199.446 338.074 199.446 346.148 190.774 351.138C182.101 356.129 168.225 356.111 159.553 351.138C150.88 346.166 150.88 338.091 159.553 333.101C168.225 328.111 182.101 328.111 190.774 333.101Z" fill="#1D1D1B"/>
<path d="M190.774 304.217C199.446 309.189 199.446 317.264 190.774 322.254C182.101 327.244 168.225 327.227 159.553 322.254C150.88 317.281 150.88 309.207 159.553 304.217C168.225 299.226 182.101 299.244 190.774 304.217Z" fill="#878787"/>
<path d="M203.973 281.154H146.318V318.806H203.973V281.154Z" fill="#FFE6AB"/>
<path d="M195.526 307.058C206.783 313.556 206.783 324.073 195.526 330.571C184.269 337.069 166.04 337.069 154.765 330.571C143.491 324.073 143.508 313.556 154.765 307.058C166.022 300.56 184.269 300.56 195.526 307.058Z" fill="#FFE6AB"/>
<path d="M195.526 269.389C206.783 275.887 206.783 286.404 195.526 292.902C184.269 299.4 166.04 299.4 154.765 292.902C143.491 286.404 143.508 275.887 154.765 269.389C166.022 262.891 184.269 262.909 195.526 269.389Z" fill="#9D9D9C"/>
<path d="M178.84 307.335C212.886 307.335 240.485 279.765 240.485 245.755C240.485 211.745 212.886 184.174 178.84 184.174C144.795 184.174 117.196 211.745 117.196 245.755C117.196 279.765 144.795 307.335 178.84 307.335Z" fill="#1D1D1B"/>
<path d="M211.848 168.77L150.637 133.232L195.093 139.713L256.286 175.251L211.848 168.77Z" fill="#8E79F7"/>
<path d="M167.722 276.874L106.512 241.336L106.338 178.837L167.549 214.375L167.722 276.874Z" fill="#7462CC"/>
<path d="M167.549 214.375L106.338 178.837L120.717 150.49L181.928 186.028L167.549 214.375Z" fill="#7B68D8"/>
<path d="M181.928 186.028L120.717 150.49L150.637 133.232L211.848 168.77L181.928 186.028Z" fill="#826EE5"/>
<path d="M211.848 168.77L256.286 175.251L256.442 225.707L167.722 276.874L167.549 214.375L181.928 186.028L211.848 168.77Z" fill="#8C71EF"/>
<path d="M273.544 46.8563C268.15 47.4454 254.014 42.9404 241.976 36.8066C232.489 31.9723 227.129 27.5712 227.962 25.6479L177.956 143.126C177.141 145.049 182.483 149.468 191.971 154.285C204.008 160.418 218.144 164.906 223.539 164.334C224.683 164.213 225.273 163.867 225.551 163.364L275.539 45.9553C275.348 46.4578 274.689 46.8563 273.544 46.8563Z" fill="#FFE6AB"/>
<path d="M241.976 36.8759C229.956 30.7594 224.631 25.3187 229.973 24.7469C235.316 24.1751 249.504 28.6628 261.524 34.7793C273.544 40.8958 278.869 46.3365 273.544 46.9083C268.219 47.4801 254.014 42.9924 241.976 36.8759Z" fill="#1D1D1B"/>
<path d="M288.929 28.2816C282.078 29.0094 264.143 23.3087 248.88 15.5462C236.842 9.41236 230.043 3.83301 231.084 1.37256L221.093 24.8509C220.052 27.294 226.834 32.8906 238.889 39.0245C254.153 46.787 272.087 52.505 278.939 51.7599C280.378 51.604 281.211 51.1708 281.506 50.5297L291.496 27.0514C291.219 27.6925 290.386 28.1257 288.929 28.2816Z" fill="#1D1D1B"/>
<path d="M248.88 15.5462C233.633 7.76629 226.799 0.870085 233.651 0.0730359C240.502 -0.724013 258.419 5.09791 273.7 12.8778C288.981 20.6577 295.781 27.5366 288.929 28.2816C282.078 29.0267 264.143 23.3087 248.88 15.5462Z" fill="#575756"/>
<path d="M255.419 14.8358C248.203 11.1624 245.012 7.9049 248.221 7.55836C251.429 7.21181 259.946 9.89752 267.092 13.5709C274.238 17.2442 277.499 20.5017 274.29 20.8483C271.081 21.1948 262.652 18.5091 255.419 14.8358Z" fill="white"/>
<path d="M223.729 260.552C221.648 258.698 217.624 259.079 212.438 262.077C203.297 267.275 194.035 278.694 191.624 287.461C190.618 291.238 191.086 293.89 192.647 295.293L225.603 324.576C224.042 323.172 223.573 320.504 224.579 316.744C226.903 307.977 236.183 296.627 245.393 291.36C250.597 288.362 254.603 287.998 256.685 289.835L223.729 260.552Z" fill="#FFE6AB"/>
<path d="M245.376 291.36C254.482 286.162 260.015 288.917 257.691 297.684C255.367 306.452 246.087 317.801 236.998 323.051C227.91 328.301 222.342 325.512 224.649 316.744C226.956 307.976 236.252 296.627 245.376 291.36Z" fill="#1D1D1B"/>
<path d="M255.384 293.508C253.65 291.949 250.181 292.261 245.827 294.808C238.108 299.261 230.216 308.843 228.308 316.259C227.459 319.447 227.84 321.717 229.176 322.895L237.605 330.329C236.27 329.15 235.871 326.863 236.738 323.692C238.698 316.276 246.521 306.694 254.257 302.241C258.645 299.711 262.045 299.382 263.814 300.942L255.384 293.508Z" fill="#8C71EF"/>
<path d="M254.187 302.241C261.906 297.788 266.572 300.179 264.594 307.578C262.617 314.977 254.812 324.576 247.076 329.029C239.34 333.482 234.692 331.091 236.669 323.692C238.646 316.294 246.469 306.764 254.187 302.241Z" fill="#1D1D1B"/>
<path d="M254.187 302.241C261.906 297.788 266.572 300.179 264.594 307.578C262.617 314.977 254.812 324.576 247.076 329.029C239.34 333.482 234.692 331.091 236.669 323.692C238.646 316.294 246.469 306.764 254.187 302.241Z" fill="#3C3C3B"/>
<path d="M260.483 309.259C259.547 308.427 257.726 308.6 255.384 309.952C251.056 312.594 247.763 316.635 246.052 321.405C245.601 323.138 245.809 324.299 246.521 324.87L260.397 337.259C259.686 336.636 259.477 335.423 259.928 333.794C261.639 329.024 264.932 324.983 269.26 322.341C271.602 320.989 273.423 320.816 274.359 321.648L260.483 309.259Z" fill="white"/>
<path d="M269.312 322.358C273.44 319.984 275.92 321.249 274.88 325.217C273.16 329.982 269.861 334.017 265.531 336.653C261.437 339.009 258.94 337.745 259.98 333.811C261.69 329.041 264.983 324.999 269.312 322.358Z" fill="#706F6F"/>
<path d="M261.767 335.752C261.747 335.261 261.805 334.769 261.94 334.296C263.509 330.053 266.46 326.459 270.318 324.091C271.078 323.576 271.954 323.26 272.868 323.172C273.024 323.172 273.18 323.588 272.868 324.663C271.293 328.908 268.337 332.502 264.473 334.868C263.719 335.381 262.848 335.697 261.94 335.787L261.767 335.752Z" fill="#1D1D1B"/>
<path d="M95.0986 264.052L95.272 263.602C95.272 263.602 104.76 235.878 104.968 230.49C104.968 230.49 99.192 224.945 96.1393 225.846C91.6469 230.749 85.4027 246.032 80.2165 257.832L79.9737 258.507C79.5835 259.506 79.3969 260.573 79.4246 261.645C79.4523 262.716 79.6938 263.772 80.1351 264.749C80.5763 265.726 81.2084 266.606 81.9942 267.336C82.78 268.066 83.7039 268.632 84.7115 269.001C85.7192 269.37 86.7904 269.535 87.8625 269.485C88.9346 269.435 89.9859 269.172 90.9549 268.711C91.9238 268.25 92.791 267.601 93.5055 266.801C94.22 266.001 94.7675 265.066 95.1159 264.052H95.0986Z" fill="white"/>
<path d="M58.0149 282.35L62.7327 280.894L87.6055 273.184C89.1606 272.698 90.5319 271.752 91.5388 270.473C92.5456 269.193 93.1408 267.638 93.246 266.014C93.3511 264.39 92.9613 262.771 92.1278 261.373C91.2943 259.974 90.0563 258.86 88.5768 258.178C86.7713 257.341 84.7186 257.205 82.8183 257.797L81.5001 258.248L79.8696 258.75L60.4258 264.78L53.2276 266.911C52.2024 267.213 51.2475 267.716 50.4185 268.39C49.5894 269.064 48.9028 269.896 48.3986 270.838C47.8943 271.78 47.5824 272.812 47.481 273.875C47.3797 274.938 47.4909 276.011 47.8081 277.03C48.1254 278.05 48.6424 278.997 49.3292 279.815C50.0159 280.633 50.8586 281.307 51.8083 281.797C52.758 282.287 53.7958 282.584 54.8613 282.67C55.9268 282.756 56.9988 282.629 58.0149 282.298V282.35Z" fill="white"/>
<path d="M54.1294 609.365C54.9775 609.368 55.8028 609.091 56.4771 608.577C57.1514 608.063 57.637 607.341 57.8586 606.523L173.116 142.156C173.292 141.194 173.095 140.2 172.564 139.379C172.033 138.557 171.208 137.968 170.258 137.732C169.308 137.496 168.304 137.63 167.449 138.107C166.594 138.585 165.954 139.369 165.658 140.302L50.4002 604.669C50.2783 605.16 50.2542 605.669 50.3294 606.169C50.4047 606.669 50.5777 607.148 50.8386 607.581C51.0995 608.014 51.4433 608.391 51.8502 608.691C52.2571 608.992 52.7192 609.209 53.2101 609.33C53.5142 609.377 53.8227 609.389 54.1294 609.365Z" fill="#936037"/>
<path d="M14.0104 587.221C14.8677 587.22 15.7 586.933 16.3755 586.405C17.051 585.878 17.5311 585.141 17.7396 584.31L132.997 119.942C133.173 118.98 132.976 117.987 132.445 117.165C131.914 116.343 131.089 115.755 130.139 115.518C129.189 115.282 128.185 115.416 127.33 115.894C126.475 116.371 125.835 117.156 125.539 118.088L10.2812 582.456C10.1593 582.946 10.1352 583.456 10.2104 583.956C10.2856 584.455 10.4587 584.935 10.7196 585.368C10.9805 585.801 11.3243 586.178 11.7312 586.478C12.1381 586.778 12.6002 586.995 13.0911 587.117C13.3924 587.187 13.701 587.222 14.0104 587.221Z" fill="#936037"/>
<path d="M159.553 176.169C160.399 176.167 161.221 175.887 161.892 175.372C162.563 174.857 163.045 174.135 163.264 173.318C163.483 172.502 163.427 171.636 163.104 170.855C162.781 170.073 162.21 169.42 161.478 168.995L123.631 147.198C123.193 146.918 122.702 146.73 122.189 146.644C121.676 146.559 121.151 146.578 120.646 146.701C120.14 146.824 119.665 147.048 119.248 147.359C118.832 147.671 118.483 148.063 118.223 148.513C117.962 148.963 117.796 149.461 117.734 149.977C117.671 150.493 117.714 151.016 117.86 151.515C118.005 152.014 118.25 152.478 118.581 152.88C118.911 153.281 119.319 153.612 119.781 153.852L157.558 175.649C158.163 176.002 158.853 176.182 159.553 176.169Z" fill="#936037"/>
<path d="M151.799 207.808C152.456 207.787 153.094 207.589 153.646 207.235C154.199 206.881 154.645 206.385 154.939 205.798C155.215 205.382 155.403 204.913 155.491 204.421C155.579 203.929 155.566 203.425 155.452 202.938C155.339 202.452 155.127 201.993 154.83 201.591C154.533 201.189 154.157 200.852 153.725 200.6L115.791 178.768C114.901 178.258 113.845 178.122 112.854 178.39C111.864 178.658 111.02 179.308 110.51 180.197C109.999 181.087 109.863 182.142 110.131 183.132C110.4 184.121 111.05 184.964 111.941 185.474L149.892 207.306C150.472 207.638 151.13 207.811 151.799 207.808Z" fill="#936037"/>
<path d="M144.133 239.465C144.77 239.421 145.382 239.201 145.903 238.831C146.423 238.461 146.831 237.955 147.082 237.368C147.373 236.978 147.579 236.531 147.686 236.055C147.792 235.58 147.798 235.088 147.701 234.61C147.605 234.133 147.408 233.681 147.125 233.285C146.842 232.888 146.479 232.556 146.058 232.309L107.899 210.321C107.02 209.864 105.997 209.764 105.046 210.041C104.094 210.318 103.286 210.951 102.79 211.809C102.294 212.666 102.147 213.681 102.382 214.644C102.616 215.606 103.213 216.441 104.049 216.974L142.208 238.963C142.794 239.297 143.458 239.471 144.133 239.465Z" fill="#936037"/>
<path d="M136.449 271.122C137.785 271.122 138.478 270.151 139.19 268.921C140.248 267.084 140.213 265.005 138.374 263.948L100.094 241.873C99.2142 241.417 98.1921 241.316 97.2403 241.594C96.2886 241.871 95.4805 242.504 94.9843 243.361C94.4881 244.219 94.3421 245.234 94.5766 246.196C94.8111 247.159 95.408 247.993 96.2432 248.527L134.506 270.602C135.096 270.946 135.767 271.125 136.449 271.122Z" fill="#936037"/>
<path d="M128.765 302.778C130.101 302.778 130.604 301.721 131.315 300.491C132.373 298.655 132.529 296.679 130.691 295.605L92.2541 273.444C91.8154 273.143 91.3193 272.937 90.7968 272.837C90.2744 272.738 89.737 272.748 89.2186 272.866C88.7001 272.985 88.2119 273.209 87.7846 273.525C87.3573 273.842 87.0002 274.243 86.7358 274.704C86.4714 275.165 86.3055 275.676 86.2485 276.204C86.1915 276.732 86.2446 277.266 86.4046 277.773C86.5645 278.28 86.8278 278.748 87.1778 279.148C87.5278 279.548 87.9569 279.871 88.4382 280.097L126.84 302.259C127.424 302.599 128.089 302.779 128.765 302.778Z" fill="#936037"/>
<path d="M121.081 334.487C122.417 334.487 122.729 333.343 123.44 332.113C124.498 330.277 124.845 328.388 123.007 327.331L84.414 305.031C83.9757 304.751 83.4852 304.562 82.9721 304.477C82.459 304.392 81.9339 304.411 81.4284 304.534C80.923 304.657 80.4477 304.881 80.0313 305.192C79.6149 305.504 79.266 305.896 79.0056 306.346C78.7453 306.796 78.5789 307.294 78.5165 307.81C78.454 308.326 78.4969 308.849 78.6425 309.348C78.7881 309.847 79.0333 310.311 79.3635 310.713C79.6936 311.114 80.1018 311.445 80.5634 311.684L119.156 333.95C119.739 334.297 120.403 334.482 121.081 334.487Z" fill="#936037"/>
<path d="M113.397 366.074C114.733 366.074 114.837 364.844 115.548 363.597C116.606 361.76 117.161 359.958 115.323 358.901L76.5566 336.549C75.6932 336.185 74.7265 336.148 73.8378 336.445C72.9491 336.743 72.1994 337.353 71.7291 338.163C71.2589 338.973 71.1005 339.926 71.2835 340.844C71.4665 341.763 71.9785 342.582 72.7234 343.151L111.49 365.503C112.064 365.859 112.722 366.056 113.397 366.074Z" fill="#936037"/>
<path d="M105.783 397.731C107.119 397.731 107.032 396.397 107.743 395.167C108.801 393.33 109.477 391.701 107.743 390.558L68.8207 368.032C67.9411 367.576 66.919 367.475 65.9672 367.753C65.0155 368.03 64.2074 368.663 63.7112 369.52C63.215 370.378 63.069 371.393 63.3035 372.355C63.538 373.318 64.135 374.152 64.9701 374.686L103.892 397.211C104.466 397.546 105.118 397.725 105.783 397.731Z" fill="#936037"/>
<path d="M98.0298 429.388C99.3654 429.388 99.0879 427.967 99.7643 426.737C100.822 424.9 101.759 423.271 99.9204 422.232L60.8421 399.706C60.4038 399.426 59.9133 399.238 59.4002 399.153C58.8871 399.067 58.362 399.087 57.8565 399.209C57.3511 399.332 56.8758 399.556 56.4594 399.868C56.043 400.179 55.6941 400.572 55.4338 401.022C55.1734 401.472 55.007 401.969 54.9446 402.485C54.8822 403.001 54.925 403.525 55.0706 404.023C55.2162 404.522 55.4614 404.987 55.7916 405.388C56.1217 405.79 56.5299 406.12 56.9915 406.36L96.0698 428.885C96.666 429.226 97.3431 429.4 98.0298 429.388Z" fill="#936037"/>
<path d="M90.3459 460.975C91.6815 460.975 91.2132 459.468 91.9243 458.22C92.9824 456.384 94.1098 454.859 92.2712 453.802L53.0368 431.224C52.5985 430.944 52.108 430.756 51.5949 430.671C51.0818 430.585 50.5567 430.605 50.0512 430.728C49.5458 430.85 49.0705 431.074 48.6541 431.386C48.2377 431.697 47.8888 432.09 47.6285 432.54C47.3681 432.99 47.2017 433.488 47.1393 434.003C47.0769 434.519 47.1197 435.043 47.2653 435.541C47.4109 436.04 47.6561 436.505 47.9863 436.906C48.3164 437.308 48.7246 437.638 49.1862 437.878L88.438 460.525C89.0238 460.838 89.6815 460.994 90.3459 460.975Z" fill="#936037"/>
<path d="M82.6794 492.684C84.015 492.684 83.3385 491.073 84.0497 489.842C85.1077 488.006 86.4433 486.567 84.6047 485.51L45.1968 462.708C44.7586 462.428 44.2681 462.24 43.755 462.154C43.2418 462.069 42.7167 462.088 42.2113 462.211C41.7058 462.334 41.2306 462.558 40.8142 462.869C40.3978 463.181 40.0488 463.573 39.7885 464.023C39.5281 464.473 39.3617 464.971 39.2993 465.487C39.2369 466.003 39.2798 466.526 39.4253 467.025C39.5709 467.524 39.8162 467.988 40.1463 468.39C40.4765 468.791 40.8846 469.122 41.3462 469.362L80.7541 492.164C81.3384 492.505 82.0029 492.684 82.6794 492.684Z" fill="#936037"/>
<path d="M74.9956 524.341C76.3312 524.341 75.4639 522.608 76.1751 521.412C77.2331 519.576 78.7595 518.241 76.9209 517.184L37.3395 494.347C36.4599 493.891 35.4378 493.79 34.486 494.067C33.5343 494.345 32.7262 494.978 32.23 495.835C31.7338 496.693 31.5878 497.708 31.8223 498.67C32.0568 499.633 32.6538 500.467 33.4889 501.001L73.0529 523.821C73.6423 524.164 74.3132 524.344 74.9956 524.341Z" fill="#936037"/>
<path d="M67.3117 555.997C68.6473 555.997 67.5893 554.265 68.3004 552.982C69.3585 551.146 71.0756 549.898 69.237 548.841L29.4649 525.9C29.0266 525.62 28.5361 525.432 28.023 525.346C27.5099 525.261 26.9848 525.28 26.4793 525.403C25.9739 525.526 25.4986 525.75 25.0822 526.061C24.6658 526.373 24.3169 526.765 24.0566 527.215C23.7962 527.665 23.6298 528.163 23.5674 528.679C23.505 529.195 23.5478 529.718 23.6934 530.217C23.839 530.716 24.0842 531.18 24.4144 531.582C24.7445 531.983 25.1527 532.314 25.6143 532.554L65.3517 555.477C65.9462 555.824 66.6234 556.004 67.3117 555.997Z" fill="#936037"/>
<path d="M59.6279 587.654C60.9634 587.654 59.6279 585.783 60.4084 584.535C61.4664 582.698 63.3917 581.537 61.5532 580.481L21.6596 557.47C21.2213 557.19 20.7309 557.002 20.2177 556.916C19.7046 556.831 19.1795 556.85 18.674 556.973C18.1686 557.096 17.6933 557.32 17.2769 557.631C16.8605 557.943 16.5116 558.335 16.2513 558.785C15.9909 559.235 15.8245 559.733 15.7621 560.249C15.6997 560.765 15.7425 561.288 15.8881 561.787C16.0337 562.286 16.2789 562.75 16.6091 563.152C16.9392 563.553 17.3474 563.884 17.809 564.124L57.7026 587.134C58.2868 587.475 58.9513 587.654 59.6279 587.654Z" fill="#936037"/>
<path d="M88.9237 442.141C91.2999 443.613 91.2306 445.901 88.7502 447.217L74.7007 454.72C73.3148 455.365 71.7964 455.674 70.2685 455.623C68.7407 455.571 67.2464 455.161 65.9068 454.426C63.5305 452.953 63.5999 450.666 66.0802 449.349L80.1297 441.846C81.5157 441.202 83.0341 440.892 84.5619 440.944C86.0898 440.995 87.5841 441.405 88.9237 442.141Z" fill="#1D1D1B"/>
<path d="M64.6926 435.885L77.7014 439.351C85.6107 437.618 90.7969 440.183 90.6581 444.653L64.1549 451.653L64.6926 435.885Z" fill="#1D1D1B"/>
<path d="M60.6859 395.565C60.9167 395.773 61.1664 395.959 61.4318 396.12C61.9391 396.432 62.4731 396.699 63.0275 396.917C66.4385 398.32 70.0926 399.038 73.7814 399.031C74.6815 399.027 75.5801 398.958 76.4699 398.823C78.4646 398.528 80.4593 397.818 80.7541 396.328C81.604 395.409 88.9757 354.396 88.6288 350.48C88.2819 346.564 85.6281 339.876 81.8469 338.819C78.7248 337.952 75.4292 339.304 72.5673 340.846C70.5379 341.955 68.2657 348.141 66.9995 350.064C65.7333 351.987 60.8941 377.597 59.6972 393.382C59.6972 393.382 59.6972 393.278 59.6972 393.226C59.6753 393.399 59.6753 393.573 59.6972 393.746C59.7893 394.454 60.1417 395.102 60.6859 395.565ZM60.0268 392.429C60.0268 392.429 60.0268 392.568 59.9227 392.637C59.9362 392.567 59.9536 392.497 59.9748 392.429H60.0268Z" fill="#45362E"/>
<path d="M82.3672 401.127C84.518 402.86 84.1017 405.164 81.4826 406.135L66.5139 411.558C65.0488 412.001 63.4998 412.092 61.9929 411.824C60.486 411.556 59.0636 410.936 57.8413 410.016C55.6906 408.283 56.1068 405.979 58.7259 405.009L73.6947 399.585C75.1598 399.143 76.7088 399.052 78.2157 399.32C79.7226 399.588 81.1449 400.207 82.3672 401.127Z" fill="#1D1D1B"/>
<path d="M59.281 391.459L71.6654 396.657C79.7482 395.998 84.5181 399.343 83.8069 403.761L56.5925 406.932L59.281 391.459Z" fill="#1D1D1B"/>
<path d="M42.491 364.428L44.6591 365.936L59.3851 391.043L79.6788 384.112H79.8696L70.087 355.54L70.7114 353.166L72.9662 344.797L72.3765 344.069L61.4318 330.207L49.6025 338.524L37.7905 337.103C37.7905 337.103 30.2454 356.319 42.491 364.428Z" fill="#1D1D1B"/>
<path d="M80.6675 434.984C85.2292 436.527 85.975 440.356 82.402 443.527C80.3397 445.135 77.9276 446.237 75.3605 446.743C72.7934 447.249 70.1432 447.144 67.624 446.438C63.0622 444.896 62.3164 441.066 65.8895 437.895C67.9518 436.287 70.3638 435.185 72.931 434.679C75.4981 434.174 78.1482 434.278 80.6675 434.984Z" fill="#45362E"/>
<path d="M63.6519 442.782C61.0848 427.187 58.4484 391.875 59.0554 389.969C59.8403 387.411 61.1586 385.049 62.9234 383.038C65.317 380.855 68.1269 378.758 71.4571 378.879C73.3718 378.94 75.2236 379.576 76.7708 380.704C78.318 381.832 79.4886 383.4 80.1297 385.204C81.3958 388.912 84.8822 436.267 84.5353 438.571C84.1884 440.876 84.2231 440.754 82.1243 441.742L63.6519 442.782Z" fill="#45362E"/>
<path d="M84.3445 295.744L89.2705 295.414L115.288 293.682C116.903 293.554 118.442 292.943 119.704 291.929C120.967 290.914 121.894 289.544 122.366 287.996C122.838 286.447 122.832 284.793 122.349 283.248C121.866 281.704 120.929 280.34 119.659 279.335C118.1 278.092 116.134 277.474 114.143 277.602H112.842L111.108 277.723L89.1665 277.307L81.5867 277.81C77.632 278.07 76.2444 283.008 75.8281 286.751C75.696 287.923 75.8231 289.109 76.2003 290.227C76.5775 291.344 77.1958 292.365 78.0113 293.218C78.8268 294.071 79.8198 294.734 80.9201 295.162C82.0205 295.589 83.2013 295.77 84.3792 295.692L84.3445 295.744Z" fill="white"/>
<path d="M31.1993 381.08C31.7543 392.481 71.0928 408.924 79.5399 389.865C82.9222 382.241 78.8287 356.943 84.7434 318.823C85.3852 314.665 86.582 310.558 87.4839 306.4C88.5073 301.669 89.4959 296.107 90.4326 291.377C90.6234 290.372 89.6 288.709 89.5306 287.686C89.3572 284.879 86.5646 281.726 84.6914 279.751C81.473 276.522 77.9921 273.567 74.2843 270.914C66.9994 265.438 61.6745 265.906 56.4189 266.114C49.7931 266.357 47.2087 272.941 46.0119 278.486C42.7164 293.578 41.2073 304.823 37.5302 319.846C36.819 322.202 29.7423 352.507 31.1993 381.08Z" fill="white"/>
<path d="M67.9534 252.27C67.6261 254.425 67.4868 256.605 67.5371 258.785C67.5714 260.967 68.1688 263.104 69.2716 264.988C70.6332 267.055 72.7387 268.519 75.1516 269.077C75.901 269.257 76.6707 269.338 77.4411 269.32C78.2121 269.328 78.9757 269.168 79.6787 268.852C80.7233 268.258 81.5591 267.356 82.0723 266.27L82.4539 265.542C85.0638 259.966 86.6892 253.981 87.2584 247.851C87.3742 246.942 87.3742 246.023 87.2584 245.114C86.9881 243.794 86.3597 242.574 85.442 241.587C84.5243 240.6 83.3526 239.884 82.0549 239.517C79.4197 238.845 76.6484 238.929 74.0589 239.76C73.3365 239.926 72.6455 240.207 72.0121 240.591C71.4224 240.99 70.9541 241.527 70.399 241.977C69.844 242.428 68.3523 249.03 67.9534 252.27Z" fill="#FFC9AD"/>
<path opacity="0.1" d="M75.6547 263.948C75.4292 265.23 75.2211 266.53 75.0303 267.829C74.9728 268.11 74.9728 268.398 75.0303 268.679C75.0708 268.825 75.1417 268.96 75.2384 269.077C75.9879 269.257 76.7575 269.338 77.528 269.32C78.299 269.328 79.0625 269.168 79.7655 268.852C80.8101 268.258 81.646 267.356 82.1591 266.27C79.2451 268.228 78.0136 265.889 78.6901 258.975C77.6321 262.094 76.2965 260.725 75.6547 263.948Z" fill="#1D1D1B"/>
<path d="M64.6594 250.556L61.2311 269.94L76.2277 272.587L79.6561 253.203L64.6594 250.556Z" fill="#FFC9AD"/>
<path d="M64.0161 266.721C60.7899 267.899 60.3043 270.636 62.9234 272.854C64.4237 273.979 66.1683 274.735 68.0157 275.06C69.863 275.385 71.7611 275.271 73.5559 274.726C76.7821 273.547 77.2677 270.81 74.6313 268.592C73.133 267.47 71.3913 266.716 69.5473 266.391C67.7032 266.066 65.8084 266.179 64.0161 266.721Z" fill="#FFC9AD"/>
<path d="M83.8242 249.238C82.6757 249.728 81.6627 250.488 80.8715 251.453C80.0803 252.419 79.5342 253.561 79.2798 254.782C78.6034 257.277 78.5166 259.98 77.8402 262.406C77.5899 263.679 77.0456 264.876 76.2506 265.902C75.4557 266.928 74.432 267.754 73.2611 268.315C71.5021 268.803 69.6431 268.803 67.8841 268.315C65.5425 267.864 62.4725 267.188 61.9695 264.849C55.2569 234.163 73.6947 235.393 75.8455 235.618C83.46 236.294 91.7856 242.549 87.2065 247.869C86.53 248.839 84.6568 248.926 83.8242 249.238Z" fill="#1D1D1B"/>
<path d="M79.0023 253.049C79.3781 253.173 79.7104 253.403 79.9595 253.71C80.2086 254.017 80.364 254.389 80.4073 254.782C80.5016 255.741 80.4253 256.709 80.1818 257.641C80.0491 258.885 79.6079 260.076 78.8982 261.107C78.6968 261.411 78.3867 261.628 78.031 261.713C77.7675 261.739 77.5021 261.687 77.2678 261.564C77.0335 261.441 76.8405 261.252 76.7128 261.02C76.4871 260.569 76.3797 260.068 76.4006 259.564C76.3654 258.14 76.4875 256.717 76.7648 255.319C76.8399 254.753 77.0479 254.213 77.3719 253.743C77.5562 253.491 77.8049 253.294 78.0918 253.172C78.3787 253.05 78.6933 253.008 79.0023 253.049Z" fill="#FFC9AD"/>
<path d="M136.033 247.851C136.384 246.737 136.886 245.676 137.525 244.698C138.201 243.745 138.86 240.522 140.612 241.128C140.057 243.242 139.606 245.426 140.785 246.049C141.965 246.673 142.988 247.591 144.133 246.95C146.267 245.755 147.255 245.339 148.938 239.864C149.993 241.04 150.718 242.475 151.036 244.022C151.134 247.128 150.954 250.236 150.499 253.309C150.037 255.389 148.843 257.234 147.134 258.507C145 260.24 144.653 261.505 142.19 262.787L141.878 263.099C139.873 262.66 138.068 261.574 136.741 260.008C135.415 258.442 134.642 256.484 134.541 254.436C134.623 252.167 135.129 249.934 136.033 247.851Z" fill="#FFC9AD"/>
<path d="M121.775 291.169L122.087 290.788C122.087 290.788 140.178 267.881 142.208 262.787C142.208 262.787 137.733 255.856 134.558 255.666C128.696 258.819 118.618 271 109.807 280.426L109.356 280.981C108.635 281.791 108.086 282.739 107.74 283.767C107.395 284.794 107.261 285.881 107.346 286.962C107.43 288.043 107.733 289.095 108.235 290.057C108.736 291.018 109.427 291.868 110.266 292.556C111.104 293.245 112.073 293.757 113.114 294.062C114.156 294.368 115.248 294.46 116.326 294.334C117.404 294.207 118.445 293.865 119.387 293.327C120.33 292.789 121.154 292.067 121.81 291.204L121.775 291.169Z" fill="white"/>
<path d="M97.232 231.304C96.5922 231.295 95.9638 231.133 95.3995 230.831C94.8352 230.53 94.3514 230.098 93.9885 229.571C94.0766 228.304 94.3634 227.059 94.8384 225.881C95.4622 223.849 96.2933 221.886 97.3188 220.024C98.1569 218.165 99.5747 216.627 101.36 215.64C100.476 218.43 100.215 220.37 99.4175 223.489C101.239 222.121 102.887 221.375 104.742 220.024C105.54 219.435 106.477 218.811 107.448 219.21C107.606 219.628 107.636 220.083 107.534 220.518C107.432 220.953 107.203 221.348 106.876 221.653C106.269 222.311 105.471 222.762 104.847 223.385C103.112 225.118 102.488 226.851 100.805 228.809C99.8267 229.909 98.6026 230.764 97.232 231.304Z" fill="#FFC9AD"/>
<path d="M61.6573 266.911C61.0036 267.576 60.4222 268.308 59.9228 269.094C59.7549 269.656 59.7018 270.245 59.7667 270.827C59.8718 271.565 60.2646 272.231 60.8594 272.681C63.5563 274.613 66.8035 275.627 70.1217 275.575C72.8928 275.732 75.6645 275.276 78.2391 274.24C77.6668 273.132 77.1984 272.837 76.5046 271.607C72.3949 272.11 68.2245 271.592 64.3631 270.099C62.5592 269.441 61.4491 268.436 61.6573 266.911Z" fill="#DADADA"/>
<path d="M266.797 342.735L265.409 340.222L262.738 335.405L262.513 335.284L262.097 335.059C260.64 334.191 259.27 333.187 258.003 332.061L256.06 330.19C255.748 330.38 255.436 330.571 255.072 330.744C253.996 331.593 254.586 332.477 254.812 333.222C254.817 333.512 254.732 333.797 254.569 334.037C254.414 334.331 254.325 334.657 254.309 334.989C254.35 335.373 254.468 335.744 254.655 336.081C254.744 336.255 254.803 336.442 254.829 336.636C254.829 336.762 254.8 336.887 254.742 336.999C254.64 337.234 254.604 337.491 254.638 337.745C254.653 337.841 254.682 337.934 254.725 338.022C254.898 338.403 255.228 338.94 255.211 339.2C255.193 339.46 255.211 339.373 255.211 339.46C255.191 339.779 255.24 340.098 255.353 340.397C255.467 340.696 255.643 340.967 255.87 341.193C258.295 343.753 260.961 346.074 263.831 348.123L266.415 345.091L267.491 343.826L266.797 342.735Z" fill="#FFC9AD"/>
<path d="M265.167 345.68L266.051 344.502L266.815 343.48C266.815 343.237 266.815 342.995 266.815 342.735C266.812 340.746 266.998 338.762 267.37 336.809C267.49 336.238 267.49 335.647 267.37 335.076C267.047 333.786 267.113 332.43 267.56 331.178C267.631 331.007 267.663 330.823 267.655 330.638C267.648 330.454 267.6 330.273 267.516 330.108C267.432 329.944 267.314 329.799 267.169 329.685C267.024 329.57 266.855 329.488 266.676 329.445H266.45C265.687 329.445 265.219 330.45 264.907 331.645C264.803 332.079 264.716 332.512 264.629 332.962C264.406 333.493 264.063 333.964 263.626 334.34C263.19 334.716 262.672 334.986 262.114 335.128C261.807 335.223 261.494 335.299 261.177 335.353L260.102 335.492L263.415 342.128L265.167 345.68Z" fill="#FFC9AD"/>
<path d="M334.738 439.212V440.737V443.457L334.079 446.403L332.517 448.742C331.668 449.73 330.783 449.643 330.419 449.089C330.276 448.854 330.201 448.584 330.201 448.309C330.201 448.034 330.276 447.765 330.419 447.529L331.546 445.658L331.945 442.695V438.45L332.986 438.744L334.738 439.212Z" fill="#FFC9AD"/>
<path opacity="0.1" d="M334.738 440.72V443.44L334.078 446.386L332.517 448.725C331.668 449.713 330.783 449.626 330.419 449.071C331.789 449.071 332.587 448.118 333.142 446.628C333.476 446.227 333.694 445.743 333.774 445.227C333.853 444.711 333.791 444.183 333.593 443.7C333.857 443.075 333.971 442.397 333.926 441.72C333.88 441.043 333.677 440.386 333.333 439.801L334.738 440.72Z" fill="black"/>
<path d="M337.096 440.512V444.151L336.698 447.616L334.842 450.406C333.905 451.497 332.934 451.272 332.639 450.544C332.566 450.317 332.543 450.077 332.573 449.841C332.603 449.604 332.685 449.377 332.812 449.175L334.235 446.819V443.787L334.096 439.905L337.096 440.512Z" fill="#FFC9AD"/>
<path opacity="0.1" d="M337.097 441.707V444.151L336.698 447.616L334.842 450.406C333.905 451.497 332.934 451.272 332.639 450.544C334.113 450.752 335.588 449.609 335.865 447.46C336.179 447.077 336.374 446.61 336.426 446.118C336.478 445.625 336.386 445.128 336.16 444.688C336.411 444.157 336.515 443.569 336.463 442.984C336.412 442.4 336.205 441.839 335.865 441.361L337.097 441.707Z" fill="black"/>
<path d="M339.629 444.844L339.022 448.309L337.547 451.029C337.461 451.189 337.339 451.325 337.19 451.428C337.041 451.53 336.87 451.596 336.69 451.62C336.511 451.643 336.328 451.624 336.158 451.564C335.987 451.503 335.833 451.403 335.709 451.272C335.578 451.122 335.493 450.938 335.465 450.741C335.438 450.544 335.468 450.343 335.553 450.163L336.541 447.668L336.802 444.636L336.541 440.824L339.421 441.205V442.262L339.629 444.844Z" fill="#FFC9AD"/>
<path opacity="0.1" d="M339.629 444.844L339.022 448.309L337.548 451.029C337.462 451.189 337.339 451.325 337.19 451.428C337.041 451.53 336.87 451.596 336.69 451.62C336.511 451.643 336.328 451.624 336.158 451.564C335.987 451.503 335.833 451.403 335.709 451.272C337.443 451.48 337.842 449.972 338.051 448.326C338.347 447.876 338.549 447.371 338.644 446.841C338.74 446.311 338.727 445.767 338.606 445.242C338.858 444.77 338.99 444.244 338.99 443.709C338.99 443.174 338.858 442.647 338.606 442.175H339.49L339.629 444.844Z" fill="black"/>
<path d="M342.127 440.339C342.08 440.809 341.906 441.258 341.624 441.638C341.504 441.779 341.363 441.902 341.207 442.002C340.629 442.33 339.954 442.446 339.299 442.331H338.935C337.517 441.966 336.136 441.473 334.807 440.858C334.062 440.512 333.363 440.076 332.726 439.559C332.578 439.43 332.439 439.291 332.309 439.143L332.049 438.848V438.485L332.552 435.92L334.738 424.588L339.941 426.408L340.548 426.581L340.461 430.895C342.352 432.697 342.213 436.44 342.127 440.339Z" fill="#FFC9AD"/>
<path d="M342.127 440.339L341.676 444.809L341.155 447.425L339.976 449.661C339.914 449.779 339.827 449.882 339.722 449.964C339.617 450.046 339.495 450.104 339.366 450.136C339.236 450.167 339.101 450.17 338.97 450.145C338.839 450.12 338.715 450.067 338.606 449.99C338.476 449.899 338.378 449.77 338.326 449.621C338.273 449.472 338.268 449.31 338.311 449.158L338.953 447.044L339.438 444.861L339.299 442.314V442.002L341.468 440.72L342.127 440.339Z" fill="#FFC9AD"/>
<path opacity="0.1" d="M333.003 438.71L332.743 438.918L332.639 439.507C332.343 440.638 332.284 441.818 332.465 442.972C332.242 443.914 331.941 444.836 331.563 445.727L331.962 442.764V438.45L332.535 435.903L333.593 433.373L335.327 433.113C335.458 434.167 335.313 435.237 334.905 436.218C334.498 437.199 333.842 438.058 333.003 438.71Z" fill="black"/>
<path d="M335.379 433.928C335.257 434.858 334.92 435.746 334.392 436.522C333.865 437.299 333.164 437.941 332.344 438.398L331.824 441.534C331.62 442.366 331.159 443.112 330.505 443.665C330.318 443.808 330.083 443.875 329.848 443.852C329.614 443.83 329.396 443.72 329.239 443.544C329.067 443.388 328.94 443.187 328.873 442.965C328.805 442.742 328.8 442.505 328.858 442.279L329.256 440.98L329.846 438.398V434.257C330.956 431.328 332.292 429.249 333.732 428.643V424.38L335.466 424.831C335.778 427.857 335.749 430.908 335.379 433.928Z" fill="#FFC9AD"/>
<path opacity="0.1" d="M342.127 440.339L341.676 444.809L341.173 447.425L339.993 449.661C339.931 449.779 339.845 449.882 339.74 449.964C339.634 450.046 339.513 450.104 339.383 450.136C339.253 450.167 339.118 450.17 338.987 450.145C338.856 450.12 338.732 450.067 338.623 449.99C339.785 449.713 340.358 448.708 340.358 447.321C340.662 447.039 340.874 446.67 340.963 446.265C341.053 445.859 341.017 445.436 340.861 445.052C341.063 444.598 341.141 444.099 341.086 443.606C341.031 443.112 340.846 442.642 340.548 442.245C340.548 442.245 340.687 441.638 340.826 440.685C341.225 438.086 341.641 432.992 339.247 431.121C339.997 429.671 340.27 428.021 340.028 426.408L340.635 426.581L340.548 430.895C342.352 432.697 342.213 436.44 342.127 440.339Z" fill="#1D1D1B"/>
<path opacity="0.1" d="M335.379 433.928C335.258 434.858 334.92 435.746 334.393 436.522C333.866 437.299 333.164 437.941 332.344 438.398L331.824 441.534C331.621 442.366 331.159 443.112 330.505 443.665C330.318 443.808 330.083 443.875 329.849 443.852C329.614 443.83 329.396 443.72 329.239 443.544C330.974 443.457 331.772 441.569 331.754 438.017C332.65 437.687 333.449 437.141 334.082 436.428C334.714 435.714 335.16 434.855 335.379 433.928Z" fill="black"/>
<path opacity="0.1" d="M340.895 440.702C340.756 441.638 340.618 442.262 340.618 442.262C340.181 442.337 339.736 442.337 339.299 442.262H338.935C337.517 441.896 336.136 441.403 334.807 440.789C334.062 440.443 333.363 440.007 332.726 439.49C332.578 439.36 332.439 439.221 332.309 439.074C334.876 440.529 338.987 441.915 340.895 440.702Z" fill="#1D1D1B"/>
<path d="M332.448 431.814C336.021 434.881 338.432 434.517 341.242 431.675C343.965 420.412 346.081 411.281 345.683 398.112C344.859 390.845 343.23 383.691 340.826 376.783C336.16 362.921 321.087 354.621 323.481 372.312L331.598 399.706L332.448 431.814Z" fill="white"/>
<path opacity="0.1" d="M332.431 431.519V431.744C336.004 434.794 338.415 434.447 341.225 431.588C341.363 430.999 341.502 430.41 341.641 429.856C341.155 421.105 340.045 408.041 340.895 399.637L334.495 380.005C334.495 380.005 333.853 416.167 332.431 431.519Z" fill="#1D1D1B"/>
<path d="M285.096 564.02C290.195 567.232 295.612 569.909 301.262 572.007C303.003 572.612 304.855 572.837 306.691 572.666C307.489 572.623 308.25 572.315 308.854 571.791C309.457 571.267 309.868 570.556 310.021 569.772C310.445 566.161 310.138 562.502 309.119 559.012V550.851L303.465 550.193L296.527 549.361L296.717 554.663V556.136L291.722 556.465L289.155 556.205C288.337 556.104 287.506 556.21 286.74 556.512C285.973 556.815 285.295 557.305 284.767 557.938C284.046 558.807 283.679 559.916 283.74 561.043C283.802 562.17 284.286 563.233 285.096 564.02Z" fill="#1D1D1B"/>
<path d="M311.513 549.066C316.611 552.278 322.029 554.955 327.678 557.054C329.42 557.659 331.271 557.884 333.107 557.713C333.906 557.67 334.667 557.362 335.27 556.837C335.873 556.313 336.284 555.603 336.438 554.819C336.861 551.208 336.555 547.549 335.536 544.059V535.898L329.881 535.239L322.943 534.408L323.134 539.71V541.183L318.138 541.512L315.571 541.252C314.753 541.151 313.923 541.256 313.156 541.559C312.389 541.862 311.711 542.352 311.183 542.985C310.462 543.854 310.096 544.963 310.157 546.09C310.218 547.217 310.702 548.28 311.513 549.066Z" fill="#1D1D1B"/>
<path d="M334.738 430.116L332.726 480.278C335.085 498.229 339.039 514.724 336.195 542.655C335.518 547.854 320.723 546.45 319.144 540.542C317.861 524.531 313.559 504.154 313.16 481.005C313.854 470.367 312.068 448.898 313.733 441.153C321.919 440.39 329.471 436.422 334.738 430.116Z" fill="#45362E"/>
<path d="M320.532 461.46L311.859 499.771C314.218 517.722 313.091 529.92 310.316 557.834C309.639 563.032 293.231 561.802 293.231 555.408C293.075 540.056 291.392 519.021 290.993 495.855C291.687 485.216 294.462 444.982 296.11 437.22C297.671 423.947 335.154 416.86 335.466 429.96C336.16 446.057 333.003 454.53 320.532 461.46Z" fill="#45362E"/>
<path d="M296.093 438.225C296.093 438.225 295.989 441.967 296.093 443.423C308.234 451.965 333.333 441.569 335.588 433.46C335.588 431.727 335.796 430.133 335.588 427.932C328.095 438.034 305.251 443.354 296.093 438.225Z" fill="black"/>
<path d="M285.755 493.221C285.911 494.087 287.264 495.37 288.999 496.686C291.379 498.492 294.072 499.843 296.943 500.672C298.324 501.014 299.736 501.217 301.158 501.278C309.169 500.936 317.089 499.448 324.677 496.86C322.943 484.921 324.677 467.785 324.677 467.785C324.521 478.476 324.834 489.166 327.245 494.469C327.245 494.469 339.612 489.721 340.219 484.367C339.109 476.015 338.571 415.63 334.876 382.882C333.87 374.028 331.407 362.99 327.782 362.003C322.457 360.53 322.336 362.436 314.045 363.96C306.725 367.426 300.863 368.864 295.989 371.446C295.399 371.775 294.809 372.087 294.254 372.451C293.256 377.378 292.676 382.38 292.52 387.404C292.398 389.397 292.294 391.407 292.173 393.243C292.173 394.162 292.051 394.976 291.999 395.912V396.449C291.115 408.387 287.628 451.237 286.189 467.767C285.252 477.661 284.749 487.971 285.755 493.221Z" fill="white"/>
<path d="M322.492 361.933C326.429 365.399 326.464 369.055 319.318 372.659C312.814 374.391 307.523 373.976 301.973 368.777L306.743 366.421L322.492 361.933Z" fill="#DADADA"/>
<path d="M322.492 357.567V363.735C322.318 366.005 319.352 368.518 315.432 368.933C312.333 369.217 309.24 368.334 306.76 366.456V363.614L305.65 363.181C303.308 362.037 302.719 360.946 302.372 354.846C302.328 352.211 302.148 349.58 301.834 346.963C301.699 345.852 301.699 344.729 301.834 343.618C301.931 342.123 302.329 340.661 303.003 339.322C303.678 337.983 304.615 336.793 305.759 335.823C306.903 334.853 308.231 334.123 309.663 333.676C311.096 333.229 312.604 333.075 314.097 333.222C321.972 334.002 326.412 338.559 326.412 345.854C326.308 350.48 325.319 354.569 322.492 357.567Z" fill="#FFC9AD"/>
<path d="M322.492 360.304C321.022 361.405 319.326 362.165 317.527 362.531C315.727 362.896 313.868 362.858 312.085 362.418C309.154 361.223 309.05 355.574 308.842 350.064L307.211 349.198C306.942 345.618 307.258 342.019 308.148 338.542C306.882 337.866 305.737 337.086 305.737 335.613C305.737 333.569 310.09 331.299 316.577 332.477C323.515 333.725 327.834 337.952 327.696 345.403C327.626 351.71 326.065 356.856 322.492 360.304Z" fill="black"/>
<path d="M308.72 349.076C309.431 346.287 313.004 348.02 311.686 353.356C311.148 355.47 310.142 357.047 308.668 355.089C308.72 354.708 308.72 349.267 308.72 349.076Z" fill="#FFC9AD"/>
<path d="M257.327 345.715C257.483 347.015 263.293 371.706 265.86 376.141C273.62 382.565 282.101 388.065 291.132 392.533C291.132 392.533 292.103 393.174 292.138 393.174C293.873 393.971 294.41 393.347 295.711 392.776C297.437 391.899 298.786 390.428 299.51 388.634C299.695 388.138 299.886 387.664 300.082 387.214C302.008 381.669 301.262 373.906 296.96 371.775L295.954 371.377L292.711 370.112L277.603 364.151L267.196 342.076C265.982 339.928 258.61 341.418 257.327 345.715Z" fill="white"/>
<path opacity="0.1" d="M291.913 396.38V395.842C291.913 394.993 292.034 394.11 292.086 393.174C292.086 393.174 291.098 392.533 291.08 392.533C282.061 388.046 273.597 382.521 265.861 376.072C274.533 380.924 284.697 385.897 292.485 387.283C294.987 387.885 297.601 387.843 300.082 387.162L299.51 388.582C299.021 389.95 298.609 391.344 298.278 392.758C297.042 409.486 298.53 426.304 302.684 442.556C298.298 433.223 295.641 423.172 294.844 412.892L294.653 414.348C295.232 430.344 298.262 446.157 303.638 461.235C297.601 451.697 293.987 440.83 293.11 429.578C290.785 453.369 289.242 481.005 289.051 496.634C287.316 495.37 285.963 494.087 285.807 493.169C284.801 487.971 285.322 477.575 286.172 467.663C287.542 451.185 291.028 408.335 291.913 396.38Z" fill="#1D1D1B"/>
<path d="M255.453 340.777L252.522 333.846L251.776 328.301C251.776 327.279 252.453 327.123 253.337 327.21C254.53 327.866 255.474 328.894 256.026 330.138L259.113 334.591L257.379 340.915L255.453 340.777Z" fill="#FFC9AD"/>
</svg>
